# Blender v2.76 (sub 0) OBJ File: ''
# www.blender.org
mtllib BigCube.mtl
o Cube
v -5.000000 -5.000000 5.000000
v -5.000000 -5.000000 -5.000000
v 5.000000 -5.000000 -4.999999
v 4.999998 -5.000000 5.000002
v -5.000002 5.000000 4.999997
v -4.999997 5.000000 -5.000003
v 5.000002 5.000000 -4.999998
v 5.000000 5.000000 5.000000
vn 0.000000 0.000000 -1.000000
vn -1.000000 0.000000 -0.000000
vn -0.000000 0.000000 1.000000
vn 1.000000 -0.000000 0.000000
vn 0.000000 -1.000000 0.000000
vn 0.000000 1.000000 0.000000
usemtl Material
s off
f 6//1 7//1 3//1
f 2//1 6//1 3//1
usemtl Material.001
f 5//2 6//2 2//2
f 1//2 5//2 2//2
usemtl Material.002
f 1//3 4//3 8//3
f 5//3 1//3 8//3
usemtl Material.003
f 7//4 8//4 4//4
f 3//4 7//4 4//4
usemtl Material.004
f 1//5 2//5 3//5
f 4//5 1//5 3//5
usemtl Material.005
f 8//6 7//6 6//6
f 5//6 8//6 6//6
