# Blender v2.76 (sub 0) OBJ File: 'Ship_Cobra.blend'
# www.blender.org
mtllib Cockpit.mtl
o Canopy__Outside_Cube.001
v -0.464582 0.500000 -0.480784
v -0.268764 0.875000 -0.122947
v -0.318764 0.875000 -0.172947
v -0.268764 0.875000 -0.172947
v -0.318764 0.875000 -0.122947
v -0.464582 0.500000 -0.430784
v -0.414582 0.500000 -0.480784
v -0.333346 0.837500 -0.203730
v -0.450000 0.537500 -0.450000
v -0.333346 0.837500 -0.153730
v -0.450000 0.537500 -0.400000
v -0.283346 0.837500 -0.203730
v -0.400000 0.537500 -0.450000
v -0.283346 0.837500 -0.178730
v -0.400000 0.537500 -0.425000
v -0.308346 0.837500 -0.153730
v -0.464582 0.500000 1.480783
v -0.268764 0.875000 1.122947
v -0.318764 0.875000 1.172947
v -0.268764 0.875000 1.172947
v -0.318764 0.875000 1.122947
v -0.464582 0.500000 1.430784
v -0.414582 0.500000 1.480783
v -0.333346 0.837500 1.203730
v -0.450000 0.537500 1.450000
v -0.333346 0.837500 1.153730
v -0.450000 0.537500 1.400000
v -0.283346 0.837500 1.203730
v -0.400000 0.537500 1.450000
v -0.283346 0.837500 1.178730
v -0.400000 0.537500 1.425000
v -0.425000 0.537500 -0.400000
v -0.425000 0.537500 1.400000
v -0.308346 0.837500 1.153730
v 0.464582 0.500000 -0.480784
v 0.268764 0.875000 -0.122947
v 0.318764 0.875000 -0.172947
v 0.268764 0.875000 -0.172947
v 0.318764 0.875000 -0.122947
v 0.464582 0.500000 -0.430784
v 0.414582 0.500000 -0.480784
v 0.333346 0.837500 -0.203730
v 0.450000 0.537500 -0.450000
v 0.333346 0.837500 -0.153730
v 0.450000 0.537500 -0.400000
v 0.283346 0.837500 -0.203730
v 0.000000 0.837500 -0.203730
v 0.000000 0.875000 -0.172947
v 0.000000 0.537500 -0.450000
v 0.000000 0.500000 -0.480784
v 0.400000 0.537500 -0.450000
v 0.283346 0.837500 -0.178730
v 0.000000 0.837500 -0.178730
v 0.000000 0.537500 -0.425000
v 0.400000 0.537500 -0.425000
v 0.308346 0.837500 -0.153730
v 0.000000 0.875000 1.122947
v 0.464582 0.500000 1.480783
v 0.268764 0.875000 1.122947
v 0.318764 0.875000 1.172947
v 0.268764 0.875000 1.172947
v 0.318764 0.875000 1.122947
v 0.464582 0.500000 1.430784
v 0.414582 0.500000 1.480783
v 0.333346 0.837500 1.203730
v 0.450000 0.537500 1.450000
v 0.333346 0.837500 1.153730
v 0.450000 0.537500 1.400000
v 0.283346 0.837500 1.203730
v 0.000000 0.837500 1.203730
v 0.000000 0.875000 1.172947
v 0.000000 0.537500 1.450000
v 0.000000 0.500000 1.480783
v 0.400000 0.537500 1.450000
v 0.283346 0.837500 1.178730
v 0.000000 0.837500 1.178730
v 0.000000 0.537500 1.425000
v 0.400000 0.537500 1.425000
v 0.000000 0.875000 -0.122947
v 0.425000 0.537500 -0.400000
v 0.425000 0.537500 1.400000
v 0.308346 0.837500 1.153730
vn 0.000000 0.634500 -0.772900
vn -0.932000 0.362400 0.000000
vn 0.000000 1.000000 0.000000
vn 0.932000 -0.362400 0.000000
vn 0.000000 -1.000000 0.000000
vn 0.000000 0.634500 0.772900
vn 0.000000 -0.634500 -0.772900
vn 0.000000 -0.634500 0.772900
vn 0.932000 0.362400 0.000000
vn -0.932000 -0.362400 0.000000
usemtl Secondary
s off
f 3//1 4//1 12//1
f 9//2 1//2 6//2
f 3//3 5//3 2//3
f 3//2 8//2 10//2
f 9//1 13//1 7//1
f 22//2 27//2 11//2
f 4//1 48//1 47//1
f 13//1 49//1 50//1
f 8//2 9//2 11//2
f 13//1 9//1 8//1
f 12//4 14//4 15//4
f 13//3 15//3 54//3
f 47//5 53//5 14//5
f 21//3 18//3 2//3
f 28//6 20//6 19//6
f 25//2 27//2 22//2
f 18//3 21//3 19//3
f 19//2 21//2 26//2
f 23//6 29//6 25//6
f 70//6 71//6 20//6
f 73//6 72//6 29//6
f 27//2 25//2 24//2
f 29//6 28//6 24//6
f 31//4 30//4 28//4
f 77//3 31//3 29//3
f 30//5 76//5 70//5
f 26//2 21//2 5//2
f 26//7 34//7 33//7
f 33//3 32//3 11//3
f 10//8 11//8 32//8
f 16//5 34//5 26//5
f 2//3 79//3 48//3
f 71//3 57//3 18//3
f 18//3 57//3 79//3
f 46//1 38//1 37//1
f 43//9 45//9 40//9
f 36//3 39//3 37//3
f 37//9 39//9 44//9
f 41//1 51//1 43//1
f 45//9 68//9 63//9
f 47//1 48//1 38//1
f 50//1 49//1 51//1
f 45//9 43//9 42//9
f 51//1 46//1 42//1
f 55//10 52//10 46//10
f 54//3 55//3 51//3
f 52//5 53//5 47//5
f 36//3 59//3 62//3
f 60//6 61//6 69//6
f 66//9 58//9 63//9
f 60//3 62//3 59//3
f 60//9 65//9 67//9
f 66//6 74//6 64//6
f 61//6 71//6 70//6
f 74//6 72//6 73//6
f 65//9 66//9 68//9
f 74//6 66//6 65//6
f 69//10 75//10 78//10
f 74//3 78//3 77//3
f 70//5 76//5 75//5
f 39//9 62//9 67//9
f 67//7 68//7 81//7
f 45//3 80//3 81//3
f 44//8 56//8 80//8
f 67//5 82//5 56//5
f 48//3 79//3 36//3
f 59//3 57//3 71//3
f 79//3 57//3 59//3
f 8//1 3//1 12//1
f 11//2 9//2 6//2
f 4//3 3//3 2//3
f 5//2 3//2 10//2
f 1//1 9//1 7//1
f 6//2 22//2 11//2
f 12//1 4//1 47//1
f 7//1 13//1 50//1
f 10//2 8//2 11//2
f 12//1 13//1 8//1
f 13//4 12//4 15//4
f 49//3 13//3 54//3
f 12//5 47//5 14//5
f 5//3 21//3 2//3
f 24//6 28//6 19//6
f 17//2 25//2 22//2
f 20//3 18//3 19//3
f 24//2 19//2 26//2
f 17//6 23//6 25//6
f 28//6 70//6 20//6
f 23//6 73//6 29//6
f 26//2 27//2 24//2
f 25//6 29//6 24//6
f 29//4 31//4 28//4
f 72//3 77//3 29//3
f 28//5 30//5 70//5
f 10//2 26//2 5//2
f 27//7 26//7 33//7
f 27//3 33//3 11//3
f 16//8 10//8 32//8
f 10//5 16//5 26//5
f 4//3 2//3 48//3
f 20//3 71//3 18//3
f 2//3 18//3 79//3
f 42//1 46//1 37//1
f 35//9 43//9 40//9
f 38//3 36//3 37//3
f 42//9 37//9 44//9
f 35//1 41//1 43//1
f 40//9 45//9 63//9
f 46//1 47//1 38//1
f 41//1 50//1 51//1
f 44//9 45//9 42//9
f 43//1 51//1 42//1
f 51//10 55//10 46//10
f 49//3 54//3 51//3
f 46//5 52//5 47//5
f 39//3 36//3 62//3
f 65//6 60//6 69//6
f 68//9 66//9 63//9
f 61//3 60//3 59//3
f 62//9 60//9 67//9
f 58//6 66//6 64//6
f 69//6 61//6 70//6
f 64//6 74//6 73//6
f 67//9 65//9 68//9
f 69//6 74//6 65//6
f 74//10 69//10 78//10
f 72//3 74//3 77//3
f 69//5 70//5 75//5
f 44//9 39//9 67//9
f 82//7 67//7 81//7
f 68//3 45//3 81//3
f 45//8 44//8 80//8
f 44//5 67//5 56//5
f 38//3 48//3 36//3
f 61//3 59//3 71//3
f 36//3 79//3 59//3
usemtl Glass
f 54//1 15//1 14//1
f 30//6 31//6 77//6
f 34//2 16//2 32//2
f 52//1 55//1 54//1
f 77//6 78//6 75//6
f 81//9 80//9 56//9
f 53//1 54//1 14//1
f 76//6 30//6 77//6
f 33//2 34//2 32//2
f 53//1 52//1 54//1
f 76//6 77//6 75//6
f 82//9 81//9 56//9
o Cockpit_Outside_Cube
v -0.500000 -0.500000 1.500000
v -0.500000 0.500000 1.500000
v -0.400000 0.500000 1.400000
v -0.500000 -0.500000 -0.500000
v -0.500000 0.500000 -0.500000
v -0.400000 0.500000 -0.400000
v 0.500000 -0.500000 1.500000
v 0.500000 0.500000 1.500000
v 0.000000 -0.500000 1.500000
v 0.000000 0.500000 1.500000
v 0.400000 0.500000 1.400000
v 0.000000 0.500000 1.400000
v 0.500000 -0.500000 -0.500000
v 0.500000 0.500000 -0.500000
v 0.000000 -0.500000 -0.500000
v 0.000000 0.500000 -0.500000
v 0.400000 0.500000 -0.400000
v 0.000000 0.500000 -0.400000
vn 0.000000 1.000000 0.000000
vn -1.000000 -0.000000 0.000000
vn 0.000000 0.000000 1.000000
vn 0.000000 -1.000000 0.000000
vn -0.000000 0.000000 -1.000000
vn 1.000000 -0.000000 0.000000
usemtl Primary
s off
f 92//11 94//11 85//11
f 87//12 86//12 83//12
f 83//13 91//13 92//13
f 98//11 87//11 88//11
f 85//11 88//11 87//11
f 83//14 86//14 97//14
f 86//15 87//15 98//15
f 92//11 90//11 93//11
f 89//16 95//16 96//16
f 89//13 90//13 92//13
f 98//11 100//11 99//11
f 96//11 99//11 93//11
f 89//14 91//14 97//14
f 95//15 97//15 98//15
f 84//11 92//11 85//11
f 84//12 87//12 83//12
f 84//13 83//13 92//13
f 100//11 98//11 88//11
f 84//11 85//11 87//11
f 91//14 83//14 97//14
f 97//15 86//15 98//15
f 94//11 92//11 93//11
f 90//16 89//16 96//16
f 91//13 89//13 92//13
f 96//11 98//11 99//11
f 90//11 96//11 93//11
f 95//14 89//14 97//14
f 96//15 95//15 98//15
