# Blender v2.76 (sub 0) OBJ File: 'Cursor.blend'
# www.blender.org
mtllib Cursor.mtl
o Cube_Cube.001
v 0.000000 0.000000 -0.353550
v 0.000000 -0.353553 0.000000
v 0.000000 0.000000 0.353550
v -0.353553 -0.000000 0.000000
v 0.353553 0.000000 0.000000
v -0.000000 0.353553 0.000000
vn 0.577300 0.577300 0.577400
vn -0.577300 0.577300 0.577400
vn 0.577300 -0.577300 0.577400
vn -0.577300 -0.577300 0.577400
vn 0.577300 -0.577300 -0.577400
vn -0.577300 0.577300 -0.577400
vn 0.577300 0.577300 -0.577400
vn -0.577300 -0.577300 -0.577400
usemtl Material.001
s off
f 6//1 3//1 5//1
f 4//2 3//2 6//2
f 5//3 3//3 2//3
f 2//4 3//4 4//4
f 2//5 1//5 5//5
f 6//6 1//6 4//6
f 5//7 1//7 6//7
f 4//8 1//8 2//8
