# Blender v2.76 (sub 0) OBJ File: ''
# www.blender.org
o Cube
v -10.000000 -10.000000 10.000000
v -10.000000 -10.000000 -10.000000
v 10.000000 -10.000000 -10.000000
v 10.000000 -10.000000 10.000000
v -10.000000 10.000000 10.000000
v -10.000000 10.000000 -10.000000
v 10.000000 10.000000 -10.000000
v 10.000000 10.000000 10.000000
vt 0.250000 0.333333
vt 0.250000 0.000000
vt 0.500000 0.000000
vt 0.500000 1.000000
vt 0.250000 1.000000
vt 0.250000 0.666667
vt 0.750000 0.333333
vt 0.750000 0.666667
vt 0.500000 0.666667
vt 1.000000 0.333333
vt 1.000000 0.666667
vt 0.000000 0.666667
vt 0.500000 0.333333
vt 0.000000 0.333333
vn 0.000000 1.000000 0.000000
vn 0.000000 -1.000000 0.000000
vn 1.000000 -0.000000 0.000000
vn -0.000000 -0.000000 1.000000
vn -1.000000 0.000000 -0.000000
vn 0.000000 -0.000000 -1.000000
s off
f 4/1/1 3/2/1 2/3/1
f 6/4/2 7/5/2 8/6/2
f 2/7/3 6/8/3 5/9/3
f 3/10/4 7/11/4 6/8/4
f 4/1/5 8/6/5 7/12/5
f 8/6/6 4/1/6 1/13/6
f 1/13/1 4/1/1 2/3/1
f 5/9/2 6/4/2 8/6/2
f 1/13/3 2/7/3 5/9/3
f 2/7/4 3/10/4 6/8/4
f 3/14/5 4/1/5 7/12/5
f 5/9/6 8/6/6 1/13/6
