# Blender v2.76 (sub 0) OBJ File: '0x10c_Rife.blend'
# www.blender.org
mtllib 0x10c_Rife.mtl
o Cube
v 1.000000 -1.000000 -2.000000
v 0.900000 1.000000 -2.000000
v 0.900000 1.000000 1.000000
v 1.000000 2.300000 -2.000000
v 0.800000 2.500000 -2.000000
v 0.900000 -1.000000 1.000000
v 1.000000 2.300000 -6.000000
v 0.800000 2.500000 -6.000000
v 0.400000 2.000000 1.000000
v 0.400000 2.000000 -2.000000
v 1.000000 1.000000 -2.000000
v 1.000000 1.000000 -6.000000
v 0.900000 -1.000000 -5.800000
v 0.900000 -1.000000 -2.000000
v 1.000000 -2.000000 1.000000
v 1.000000 2.300000 9.000000
v 0.800000 2.500000 9.000000
v 1.000000 2.300000 1.000000
v 0.800000 2.500000 1.000000
v 0.800000 -2.200000 9.000000
v 0.800000 -2.200000 1.000000
v 1.000000 -2.000000 9.000000
v 0.800000 1.200000 -8.000000
v 0.500000 -4.749136 -4.842091
v 0.500000 -0.885433 -3.806815
v 0.500000 -5.163248 -3.296610
v 0.500000 -1.299543 -2.261334
v 1.000000 1.500000 4.000000
v 1.000000 1.500000 8.600000
v 1.000000 -1.200000 4.000000
v 1.000000 -1.200000 8.600000
v 1.500000 1.500000 4.000000
v 1.500000 1.500000 8.600000
v 1.500000 -1.200000 4.000000
v 1.500000 -1.200000 8.600000
v 1.700000 1.300000 4.000000
v 1.700000 1.300000 8.600000
v 1.700000 -1.000000 4.000000
v 1.700000 -1.000000 8.600000
v 0.500000 -1.299543 1.000000
v 0.500000 -1.000000 -2.261334
v 0.500000 -1.000000 1.000000
v 0.550000 2.250000 9.000000
v 0.750000 2.050000 9.000000
v 0.500000 -1.950000 9.000000
v 0.750000 -1.700000 9.000000
v 0.800000 1.200000 -12.000000
v 1.000000 1.000000 -12.000000
v 1.000000 -1.000000 -8.000000
v 1.000000 1.000000 -8.000000
v 0.800000 -1.000000 -12.200000
v 1.000000 -1.000000 -12.000000
v 0.800000 -2.800000 -12.200000
v 0.800000 1.000000 -12.200000
v 1.000000 -1.000000 -6.000000
v 1.000000 -2.800000 -12.000000
v 0.800000 -3.000000 -12.000000
v 0.800000 -1.200000 -6.000000
v -1.000000 -1.000000 -2.000000
v -0.900000 1.000000 -2.000000
v -0.900000 1.000000 1.000000
v 0.000000 -1.000000 1.000000
v 0.000000 -1.000000 -2.000000
v -1.000000 2.300000 -2.000000
v -0.800000 2.500000 -2.000000
v -0.900000 -1.000000 1.000000
v 0.000000 -1.000000 -5.800000
v -1.000000 2.300000 -6.000000
v -0.800000 2.500000 -6.000000
v 0.000000 2.000000 1.000000
v 0.000000 2.000000 -2.000000
v -0.400000 2.000000 1.000000
v -0.400000 2.000000 -2.000000
v 0.000000 2.500000 -2.000000
v 0.000000 2.500000 -6.000000
v -1.000000 1.000000 -2.000000
v -1.000000 1.000000 -6.000000
v -0.900000 -1.000000 -5.800000
v -0.900000 -1.000000 -2.000000
v -1.000000 -2.000000 1.000000
v -1.000000 2.300000 9.000000
v -0.800000 2.500000 9.000000
v -1.000000 2.300000 1.000000
v -0.800000 2.500000 1.000000
v 0.000000 2.500000 9.000000
v 0.000000 2.500000 1.000000
v -0.800000 -2.200000 9.000000
v -0.800000 -2.200000 1.000000
v 0.000000 -2.200000 9.000000
v 0.000000 -2.200000 1.000000
v -1.000000 -2.000000 9.000000
v 0.000000 1.200000 -8.000000
v -0.800000 1.200000 -8.000000
v -0.500000 -4.749136 -4.842091
v -0.500000 -0.885433 -3.806815
v -0.500000 -5.163248 -3.296610
v -0.500000 -1.299543 -2.261334
v 0.000000 -1.351307 -2.068148
v 0.000000 -5.215010 -3.103424
v 0.000000 -0.833670 -4.000000
v 0.000000 -4.697371 -5.035276
v -1.000000 1.500000 4.000000
v -1.000000 1.500000 8.600000
v -1.000000 -1.200000 4.000000
v -1.000000 -1.200000 8.600000
v -1.500000 1.500000 4.000000
v -1.500000 1.500000 8.600000
v -1.500000 -1.200000 4.000000
v -1.500000 -1.200000 8.600000
v -1.700000 1.300000 4.000000
v -1.700000 1.300000 8.600000
v -1.700000 -1.000000 4.000000
v -1.700000 -1.000000 8.600000
v -0.500000 -1.299543 1.000000
v 0.000000 -1.351307 1.000000
v -0.500000 -1.000000 -2.261334
v -0.500000 -1.000000 1.000000
v -0.550000 2.250000 9.000000
v -0.750000 2.050000 9.000000
v 0.000000 2.250000 9.000000
v -0.500000 -1.950000 9.000000
v -0.750000 -1.700000 9.000000
v 0.000000 -1.950000 9.000000
v 0.000000 1.200000 -12.000000
v -0.800000 1.200000 -12.000000
v -1.000000 1.000000 -12.000000
v -1.000000 -1.000000 -8.000000
v 0.000000 -1.000000 -12.200000
v -1.000000 1.000000 -8.000000
v -0.800000 -1.000000 -12.200000
v -1.000000 -1.000000 -12.000000
v 0.000000 -2.800000 -12.200000
v -0.800000 -2.800000 -12.200000
v -0.800000 1.000000 -12.200000
v 0.000000 1.000000 -12.200000
v -1.000000 -1.000000 -6.000000
v -1.000000 -2.800000 -12.000000
v 0.000000 -3.000000 -12.000000
v -0.800000 -3.000000 -12.000000
v 0.000000 -1.200000 -6.000000
v -0.800000 -1.200000 -6.000000
vn 1.000000 0.000000 0.000000
vn 0.000000 1.000000 0.000000
vn 0.707100 0.707100 0.000000
vn 0.000000 -0.000000 1.000000
vn 0.000000 -1.000000 0.000000
vn 0.000000 0.000000 -1.000000
vn 0.000000 0.838400 -0.545000
vn 0.707100 -0.707100 0.000000
vn 0.642500 0.642500 -0.417600
vn 0.000000 0.707100 -0.707100
vn 0.707100 0.000000 -0.707100
vn 0.577400 0.577300 -0.577400
vn 0.000000 -0.707100 -0.707100
vn 0.000000 -0.957800 0.287300
vn 0.691700 -0.691700 0.207500
vn 0.577300 -0.577300 -0.577400
vn 0.666700 -0.666700 0.333300
vn 0.000000 -0.707100 0.707100
vn -1.000000 0.000000 0.000000
vn -0.707100 0.707100 0.000000
vn -0.707100 -0.707100 0.000000
vn -0.642500 0.642500 -0.417600
vn -0.707100 0.000000 -0.707100
vn -0.577400 0.577300 -0.577400
vn -0.691700 -0.691700 0.207500
vn -0.577300 -0.577300 -0.577400
vn -0.666700 -0.666700 0.333300
vn 0.894400 0.447200 0.000000
vn 0.371400 0.240300 -0.896800
vn -0.000000 -0.965900 -0.258800
vn 0.371400 -0.240300 0.896800
vn 0.103000 -0.994700 0.000000
vn -0.894400 0.447200 0.000000
vn -0.371400 0.240300 -0.896800
vn -0.371400 -0.240300 0.896800
vn -0.103000 -0.994700 0.000000
usemtl Red
s off
f 12//1 7//1 4//1
f 8//2 75//2 74//2
f 7//3 8//3 5//3
f 2//4 14//4 1//4
f 89//5 90//5 21//5
f 10//4 11//4 4//4
f 74//4 71//4 10//4
f 19//2 86//2 85//2
f 18//3 19//3 17//3
f 86//6 19//6 9//6
f 15//6 21//6 6//6
f 8//7 23//7 92//7
f 62//6 6//6 21//6
f 20//8 21//8 15//8
f 3//6 18//6 15//6
f 9//6 19//6 18//6
f 16//1 29//1 28//1
f 22//1 31//1 29//1
f 15//1 18//1 28//1
f 22//1 15//1 30//1
f 30//5 34//5 35//5
f 29//2 33//2 32//2
f 37//1 39//1 38//1
f 33//3 37//3 36//3
f 34//8 38//8 39//8
f 20//4 22//4 46//4
f 16//4 17//4 43//4
f 16//4 44//4 46//4
f 85//4 120//4 43//4
f 89//4 20//4 45//4
f 23//2 47//2 124//2
f 7//1 12//1 50//1
f 7//9 50//9 23//9
f 54//6 51//6 128//6
f 47//10 54//10 135//10
f 50//3 48//3 47//3
f 49//1 52//1 48//1
f 48//11 52//11 51//11
f 54//12 47//12 48//12
f 53//13 57//13 138//13
f 57//14 58//14 140//14
f 56//15 55//15 58//15
f 51//6 53//6 132//6
f 52//11 56//11 53//11
f 53//16 56//16 57//16
f 55//17 13//17 58//17
f 67//18 140//18 58//18
f 52//1 49//1 56//1
f 1//5 14//5 13//5
f 11//1 1//1 55//1
f 55//1 49//1 50//1
f 56//1 49//1 55//1
f 64//19 68//19 77//19
f 74//2 75//2 69//2
f 65//20 69//20 68//20
f 59//4 79//4 60//4
f 88//5 90//5 89//5
f 64//4 60//4 73//4
f 73//4 71//4 74//4
f 85//2 86//2 84//2
f 82//20 84//20 83//20
f 72//6 84//6 86//6
f 80//6 66//6 88//6
f 92//7 93//7 69//7
f 62//6 90//6 88//6
f 80//21 88//21 87//21
f 61//6 66//6 80//6
f 72//6 61//6 83//6
f 102//19 103//19 81//19
f 103//19 105//19 91//19
f 104//19 102//19 83//19
f 91//19 105//19 104//19
f 109//5 108//5 104//5
f 106//2 107//2 103//2
f 112//19 113//19 111//19
f 110//20 111//20 107//20
f 113//21 112//21 108//21
f 87//4 121//4 122//4
f 81//4 119//4 118//4
f 122//4 119//4 81//4
f 118//4 120//4 85//4
f 89//4 123//4 121//4
f 124//2 125//2 93//2
f 68//19 129//19 77//19
f 93//22 129//22 68//22
f 128//6 130//6 134//6
f 135//10 134//10 125//10
f 125//20 126//20 129//20
f 126//19 131//19 127//19
f 130//23 131//23 126//23
f 134//24 126//24 125//24
f 138//13 139//13 133//13
f 140//14 141//14 139//14
f 141//25 136//25 137//25
f 132//6 133//6 130//6
f 133//23 137//23 131//23
f 133//26 139//26 137//26
f 136//27 141//27 78//27
f 67//18 78//18 141//18
f 131//19 137//19 127//19
f 78//5 79//5 59//5
f 136//19 59//19 76//19
f 129//19 127//19 136//19
f 137//19 136//19 127//19
f 11//1 12//1 4//1
f 5//2 8//2 74//2
f 4//3 7//3 5//3
f 11//4 2//4 1//4
f 20//5 89//5 21//5
f 4//4 5//4 10//4
f 10//4 2//4 11//4
f 5//4 74//4 10//4
f 17//2 19//2 85//2
f 16//3 18//3 17//3
f 70//6 86//6 9//6
f 75//7 8//7 92//7
f 90//6 62//6 21//6
f 22//8 20//8 15//8
f 6//6 3//6 15//6
f 3//6 9//6 18//6
f 18//1 16//1 28//1
f 16//1 22//1 29//1
f 30//1 15//1 28//1
f 31//1 22//1 30//1
f 31//5 30//5 35//5
f 28//2 29//2 32//2
f 36//1 37//1 38//1
f 32//3 33//3 36//3
f 35//8 34//8 39//8
f 45//4 20//4 46//4
f 44//4 16//4 43//4
f 22//4 16//4 46//4
f 17//4 85//4 43//4
f 123//4 89//4 45//4
f 92//2 23//2 124//2
f 8//9 7//9 23//9
f 135//6 54//6 128//6
f 124//10 47//10 135//10
f 23//3 50//3 47//3
f 50//1 49//1 48//1
f 54//11 48//11 51//11
f 132//13 53//13 138//13
f 138//14 57//14 140//14
f 57//15 56//15 58//15
f 128//6 51//6 132//6
f 51//11 52//11 53//11
f 13//18 67//18 58//18
f 55//5 1//5 13//5
f 12//1 11//1 55//1
f 12//1 55//1 50//1
f 76//19 64//19 77//19
f 65//2 74//2 69//2
f 64//20 65//20 68//20
f 76//4 59//4 60//4
f 87//5 88//5 89//5
f 73//4 65//4 64//4
f 64//4 76//4 60//4
f 65//4 73//4 74//4
f 82//2 85//2 84//2
f 81//20 82//20 83//20
f 70//6 72//6 86//6
f 75//7 92//7 69//7
f 66//6 62//6 88//6
f 91//21 80//21 87//21
f 83//6 61//6 80//6
f 84//6 72//6 83//6
f 83//19 102//19 81//19
f 81//19 103//19 91//19
f 80//19 104//19 83//19
f 80//19 91//19 104//19
f 105//5 109//5 104//5
f 102//2 106//2 103//2
f 110//19 112//19 111//19
f 106//20 110//20 107//20
f 109//21 113//21 108//21
f 91//4 87//4 122//4
f 82//4 81//4 118//4
f 91//4 122//4 81//4
f 82//4 118//4 85//4
f 87//4 89//4 121//4
f 92//2 124//2 93//2
f 69//22 93//22 68//22
f 135//6 128//6 134//6
f 124//10 135//10 125//10
f 93//20 125//20 129//20
f 129//19 126//19 127//19
f 134//23 130//23 126//23
f 132//13 138//13 133//13
f 138//14 140//14 139//14
f 139//25 141//25 137//25
f 128//6 132//6 130//6
f 130//23 133//23 131//23
f 140//18 67//18 141//18
f 136//5 78//5 59//5
f 77//19 136//19 76//19
f 77//19 129//19 136//19
usemtl DarkGray
f 70//2 9//2 10//2
f 2//28 10//28 9//28
f 63//5 14//5 6//5
f 2//1 3//1 6//1
f 14//5 63//5 67//5
f 27//1 26//1 24//1
f 25//29 24//29 101//29
f 27//1 25//1 41//1
f 24//30 26//30 99//30
f 27//31 98//31 99//31
f 31//4 35//4 33//4
f 34//6 32//6 36//6
f 28//6 32//6 34//6
f 35//4 39//4 37//4
f 40//32 115//32 98//32
f 27//1 41//1 42//1
f 120//4 123//4 46//4
f 71//2 73//2 72//2
f 60//33 61//33 72//33
f 66//5 79//5 63//5
f 66//19 61//19 60//19
f 67//5 63//5 79//5
f 94//19 96//19 97//19
f 101//34 94//34 95//34
f 97//19 116//19 95//19
f 94//30 101//30 99//30
f 97//35 96//35 99//35
f 107//4 109//4 105//4
f 108//6 112//6 110//6
f 108//6 106//6 102//6
f 111//4 113//4 109//4
f 114//36 97//36 98//36
f 117//19 116//19 97//19
f 122//4 120//4 119//4
f 71//2 70//2 10//2
f 3//28 2//28 9//28
f 62//5 63//5 6//5
f 14//1 2//1 6//1
f 13//5 14//5 67//5
f 25//1 27//1 24//1
f 100//29 25//29 101//29
f 101//30 24//30 99//30
f 26//31 27//31 99//31
f 29//4 31//4 33//4
f 38//6 34//6 36//6
f 30//6 28//6 34//6
f 33//4 35//4 37//4
f 27//32 40//32 98//32
f 40//1 27//1 42//1
f 46//4 44//4 120//4
f 43//4 120//4 44//4
f 123//4 45//4 46//4
f 70//2 71//2 72//2
f 73//33 60//33 72//33
f 62//5 66//5 63//5
f 79//19 66//19 60//19
f 78//5 67//5 79//5
f 95//19 94//19 97//19
f 100//34 101//34 95//34
f 96//30 94//30 99//30
f 98//35 97//35 99//35
f 103//4 107//4 105//4
f 106//6 108//6 110//6
f 104//6 108//6 102//6
f 107//4 111//4 109//4
f 115//36 114//36 98//36
f 114//19 117//19 97//19
f 118//4 119//4 120//4
f 122//4 121//4 123//4
f 123//4 120//4 122//4
