# Blender v2.77 (sub 0) OBJ File: ''
# www.blender.org
mtllib LandingPad.mtl
o Cube
v -20.000000 -1.000000 8.000000
v -20.000000 -1.000000 -8.000000
v -3.999999 -1.000000 -7.999998
v -4.000003 -1.000000 8.000003
v -20.000004 1.000000 7.999996
v -19.999996 1.000000 -8.000005
v -3.999997 1.000000 -7.999997
v -4.000001 1.000000 8.000000
v -19.600002 1.000000 7.599996
v -19.599995 1.000000 -7.600005
v -4.400002 1.000000 7.600000
v -4.399998 1.000000 -7.599997
v -19.400003 0.800000 7.399996
v -19.399996 0.800000 -7.400005
v -4.600001 0.800000 7.400001
v -4.599998 0.800000 -7.399997
v -16.800001 -1.000000 8.000001
v -13.600001 -1.000000 8.000002
v -10.400002 -1.000000 8.000002
v -7.200003 -1.000000 8.000002
v -16.799999 -1.000000 -8.000000
v -13.600000 -1.000000 -7.999999
v -10.400000 -1.000000 -7.999999
v -7.199999 -1.000000 -7.999998
v -16.800003 1.000000 7.999997
v -13.600002 1.000000 7.999998
v -10.400002 1.000000 7.999999
v -7.200002 1.000000 7.999999
v -16.799995 1.000000 -8.000003
v -13.599996 1.000000 -8.000002
v -10.399996 1.000000 -8.000000
v -7.199997 1.000000 -7.999999
v -16.560003 1.000000 7.599997
v -13.520002 1.000000 7.599998
v -10.480001 1.000000 7.599999
v -7.440001 1.000000 7.599999
v -16.559996 1.000000 -7.600004
v -13.519997 1.000000 -7.600002
v -10.479997 1.000000 -7.600000
v -7.439997 1.000000 -7.599998
v -16.440002 0.800000 7.399997
v -13.480002 0.800000 7.399998
v -10.520002 0.800000 7.399999
v -7.560001 0.800000 7.400000
v -16.439995 0.800000 -7.400004
v -13.479996 0.800000 -7.400002
v -10.519997 0.800000 -7.400001
v -7.559997 0.800000 -7.399999
v -20.000000 -1.000000 4.800000
v -20.000000 -1.000000 1.600000
v -20.000000 -1.000000 -1.600000
v -20.000000 -1.000000 -4.800000
v -4.000000 -1.000000 -4.799998
v -4.000001 -1.000000 -1.599998
v -4.000002 -1.000000 1.600002
v -4.000003 -1.000000 4.800003
v -20.000002 1.000000 4.799996
v -20.000000 1.000000 1.599996
v -19.999998 1.000000 -1.600004
v -19.999996 1.000000 -4.800004
v -3.999998 1.000000 -4.799997
v -3.999999 1.000000 -1.599998
v -4.000000 1.000000 1.600002
v -4.000000 1.000000 4.800001
v -19.600002 1.000000 4.559996
v -19.600000 1.000000 1.519995
v -19.599998 1.000000 -1.520005
v -19.599998 1.000000 -4.560005
v -4.399999 1.000000 -4.559998
v -4.400000 1.000000 -1.519998
v -4.400000 1.000000 1.520002
v -4.400001 1.000000 4.560001
v -19.400002 0.800000 4.439996
v -19.400002 0.800000 1.479995
v -19.400000 0.800000 -1.480005
v -19.399998 0.800000 -4.440005
v -4.599998 0.800000 -4.439998
v -4.599999 0.800000 -1.479998
v -4.600000 0.800000 1.480002
v -4.600000 0.800000 4.440001
v -16.440002 0.800000 4.439997
v -16.440001 0.800000 1.479997
v -16.439999 0.800000 -1.480004
v -16.439997 0.800000 -4.440004
v -13.480001 0.800000 4.439998
v -13.480000 0.800000 1.479998
v -13.479999 0.800000 -1.480002
v -13.479998 0.800000 -4.440002
v -10.520000 0.800000 4.440000
v -10.520000 0.800000 1.480000
v -10.519999 0.800000 -1.480000
v -10.519998 0.800000 -4.440001
v -7.560000 0.800000 4.440000
v -7.559999 0.800000 1.480000
v -7.559999 0.800000 -1.480000
v -7.559998 0.800000 -4.440000
v -16.799999 -4.000000 -4.799999
v -16.799999 -4.000000 -1.599999
v -16.799999 -4.000000 1.600001
v -16.799999 -4.000000 4.800001
v -13.600000 -4.000000 -4.799999
v -13.600000 -4.000000 -1.599999
v -13.600000 -4.000000 1.600001
v -13.600001 -4.000000 4.800002
v -10.400000 -4.000000 -4.799998
v -10.400001 -4.000000 -1.599998
v -10.400001 -4.000000 1.600002
v -10.400002 -4.000000 4.800002
v -7.200000 -4.000000 -4.799998
v -7.200001 -4.000000 -1.599998
v -7.200001 -4.000000 1.600002
v -7.200002 -4.000000 4.800002
v -0.000002 -1.000000 3.200002
v -0.000002 -1.000000 1.600002
v -0.000001 -1.000000 -1.599998
v -0.000000 -1.000000 -3.199998
v -8.800002 -1.000000 8.000002
v -8.799999 -1.000000 -7.999998
v -8.800001 1.000000 7.999999
v -8.799996 1.000000 -7.999999
v -8.960001 1.000000 7.599999
v -8.959997 1.000000 -7.599999
v -9.040002 0.800000 7.400000
v -9.039997 0.800000 -7.400000
v -8.800001 -4.000000 4.800002
v -8.800001 -4.000000 1.600002
v -8.800001 -4.000000 -1.599998
v -8.799999 -4.000000 -4.799998
v -9.040001 0.800000 4.440000
v -9.039999 0.800000 1.480000
v -9.039999 0.800000 -1.480000
v -9.039997 0.800000 -4.440000
v -15.200001 -1.000000 8.000002
v -15.200000 -1.000000 -7.999999
v -15.200003 1.000000 7.999998
v -15.199995 1.000000 -8.000002
v -15.040003 1.000000 7.599998
v -15.039996 1.000000 -7.600003
v -14.960003 0.800000 7.399998
v -14.959995 0.800000 -7.400003
v -15.200001 -4.000000 4.800001
v -15.200000 -4.000000 1.600001
v -15.200000 -4.000000 -1.599999
v -15.200000 -4.000000 -4.799999
v -14.960002 0.800000 4.439997
v -14.960000 0.800000 1.479997
v -14.959999 0.800000 -1.480003
v -14.959997 0.800000 -4.440003
v -20.000000 -1.000000 3.200000
v -4.000002 -1.000000 3.200002
v -20.000000 1.000000 3.199996
v -4.000000 1.000000 3.200001
v -19.600002 1.000000 3.039996
v -4.400001 1.000000 3.040001
v -19.400002 0.800000 2.959996
v -4.600000 0.800000 2.960001
v -16.440002 0.800000 2.959997
v -13.480000 0.800000 2.959998
v -10.520000 0.800000 2.960000
v -7.560000 0.800000 2.960000
v -16.799999 -4.000000 3.200001
v -13.600000 -4.000000 3.200001
v -10.400002 -4.000000 3.200002
v -7.200002 -4.000000 3.200002
v -9.040000 0.800000 2.960000
v -8.800001 -4.000000 3.200002
v -14.960001 0.800000 2.959997
v -15.200001 -4.000000 3.200001
v -20.000000 -1.000000 -3.200000
v -4.000000 -1.000000 -3.199998
v -19.999996 1.000000 -3.200004
v -3.999999 1.000000 -3.199998
v -19.599998 1.000000 -3.040005
v -4.399999 1.000000 -3.039998
v -19.399998 0.800000 -2.960005
v -4.599999 0.800000 -2.959998
v -16.439999 0.800000 -2.960004
v -13.479998 0.800000 -2.960002
v -10.519999 0.800000 -2.960001
v -7.559998 0.800000 -2.960000
v -16.799999 -4.000000 -3.199999
v -13.600000 -4.000000 -3.199999
v -10.400000 -4.000000 -3.199998
v -7.200000 -4.000000 -3.199998
v -9.039998 0.800000 -2.960000
v -8.800000 -4.000000 -3.199998
v -14.959998 0.800000 -2.960003
v -15.200000 -4.000000 -3.199999
v -0.000003 -1.000000 4.800003
v 0.000001 1.000000 -3.199998
v 0.000001 1.000000 -1.599998
v 0.000000 1.000000 1.600002
v 0.000000 1.000000 3.200001
v -0.000000 1.000000 4.800001
v 0.000002 1.000000 -4.799997
v 0.000000 -1.000000 -4.799998
vn 0.0000 -1.0000 0.0000
vn 0.0000 1.0000 0.0000
vn -1.0000 0.0000 0.0000
vn 0.0000 -0.0000 -1.0000
vn 1.0000 -0.0000 0.0000
vn -0.0000 0.0000 1.0000
vn 0.0000 -0.7295 -0.6839
vn 0.0000 -0.7295 0.6839
vn -0.6839 -0.7295 0.0000
vn 0.6839 -0.7295 0.0000
vn -0.5645 -0.6022 -0.5645
vn 0.5645 -0.6022 -0.5645
vn 0.5645 -0.6022 0.5645
vn -0.5645 -0.6022 0.5645
vn -0.0000 0.7071 0.7071
vn 0.7071 0.7071 0.0000
vn -0.7071 0.7071 -0.0000
vn 0.0000 0.7071 -0.7071
usemtl Material
s off
f 2//1 21//1 52//1
f 29//2 10//2 37//2
f 60//3 2//3 52//3
f 32//4 3//4 24//4
f 56//5 8//5 4//5
f 28//6 4//6 8//6
f 57//2 9//2 65//2
f 61//2 12//2 69//2
f 28//2 11//2 36//2
f 25//2 9//2 5//2
f 26//2 137//2 135//2
f 26//2 35//2 34//2
f 119//2 36//2 121//2
f 1//6 25//6 5//6
f 133//6 26//6 135//6
f 18//6 27//6 26//6
f 119//6 20//6 28//6
f 6//4 21//4 2//4
f 136//4 22//4 134//4
f 30//4 23//4 22//4
f 120//4 24//4 118//4
f 32//2 12//2 7//2
f 31//2 122//2 120//2
f 30//2 39//2 31//2
f 136//2 37//2 138//2
f 17//1 1//1 49//1
f 134//7 101//7 144//7
f 22//7 105//7 101//7
f 118//7 109//7 128//7
f 125//8 20//8 117//8
f 126//1 164//1 166//1
f 127//1 111//1 126//1
f 128//1 184//1 186//1
f 104//8 19//8 18//8
f 103//1 163//1 162//1
f 102//1 107//1 103//1
f 182//1 105//1 183//1
f 141//8 18//8 133//8
f 142//1 162//1 168//1
f 143//1 103//1 142//1
f 144//1 182//1 188//1
f 4//1 20//1 56//1
f 149//9 99//9 161//9
f 50//9 98//9 99//9
f 169//9 97//9 181//9
f 64//2 11//2 8//2
f 63//2 154//2 152//2
f 62//2 71//2 63//2
f 172//2 69//2 174//2
f 60//2 10//2 6//2
f 59//2 173//2 171//2
f 59//2 66//2 67//2
f 151//2 65//2 153//2
f 7//5 53//5 3//5
f 55//1 113//1 150//1
f 62//2 192//2 191//2
f 5//3 49//3 1//3
f 151//3 50//3 149//3
f 58//3 51//3 50//3
f 171//3 52//3 169//3
f 3//1 53//1 24//1
f 111//10 150//10 164//10
f 110//10 55//10 111//10
f 109//10 170//10 184//10
f 150//1 189//1 56//1
f 105//1 186//1 183//1
f 106//1 126//1 107//1
f 107//1 166//1 163//1
f 108//8 117//8 19//8
f 105//7 118//7 128//7
f 120//2 40//2 32//2
f 31//4 118//4 23//4
f 19//6 119//6 27//6
f 27//2 121//2 35//2
f 97//1 188//1 181//1
f 98//1 142//1 99//1
f 99//1 168//1 161//1
f 17//8 141//8 133//8
f 21//7 144//7 97//7
f 30//2 138//2 38//2
f 29//4 134//4 21//4
f 17//6 135//6 25//6
f 135//2 33//2 25//2
f 161//1 141//1 100//1
f 163//1 125//1 108//1
f 164//10 56//10 112//10
f 57//3 149//3 49//3
f 64//6 189//6 194//6
f 58//2 153//2 66//2
f 152//2 72//2 64//2
f 49//9 161//9 100//9
f 168//1 104//1 141//1
f 162//1 108//1 104//1
f 166//1 112//1 125//1
f 181//1 143//1 98//1
f 183//1 127//1 106//1
f 184//10 54//10 110//10
f 59//3 169//3 51//3
f 53//1 116//1 170//1
f 171//2 68//2 60//2
f 62//2 174//2 70//2
f 51//9 181//9 98//9
f 143//1 182//1 102//1
f 102//1 183//1 106//1
f 186//1 110//1 127//1
f 61//4 196//4 53//4
f 152//2 194//2 193//2
f 61//2 190//2 195//2
f 170//1 115//1 54//1
f 152//2 192//2 63//2
f 54//1 114//1 55//1
f 172//2 191//2 190//2
f 193//5 113//5 114//5
f 21//11 97//11 52//11
f 109//12 24//12 53//12
f 20//13 112//13 56//13
f 100//14 17//14 49//14
f 29//2 6//2 10//2
f 60//3 6//3 2//3
f 32//4 7//4 3//4
f 56//5 64//5 8//5
f 28//6 20//6 4//6
f 57//2 5//2 9//2
f 61//2 7//2 12//2
f 28//2 8//2 11//2
f 25//2 33//2 9//2
f 26//2 34//2 137//2
f 26//2 27//2 35//2
f 119//2 28//2 36//2
f 1//6 17//6 25//6
f 133//6 18//6 26//6
f 18//6 19//6 27//6
f 119//6 117//6 20//6
f 6//4 29//4 21//4
f 136//4 30//4 22//4
f 30//4 31//4 23//4
f 120//4 32//4 24//4
f 32//2 40//2 12//2
f 31//2 39//2 122//2
f 30//2 38//2 39//2
f 136//2 29//2 37//2
f 134//7 22//7 101//7
f 22//7 23//7 105//7
f 118//7 24//7 109//7
f 125//8 112//8 20//8
f 126//1 111//1 164//1
f 127//1 110//1 111//1
f 128//1 109//1 184//1
f 104//8 108//8 19//8
f 103//1 107//1 163//1
f 102//1 106//1 107//1
f 182//1 101//1 105//1
f 141//8 104//8 18//8
f 142//1 103//1 162//1
f 143//1 102//1 103//1
f 144//1 101//1 182//1
f 149//9 50//9 99//9
f 50//9 51//9 98//9
f 169//9 52//9 97//9
f 64//2 72//2 11//2
f 63//2 71//2 154//2
f 62//2 70//2 71//2
f 172//2 61//2 69//2
f 60//2 68//2 10//2
f 59//2 67//2 173//2
f 59//2 58//2 66//2
f 151//2 57//2 65//2
f 7//5 61//5 53//5
f 55//1 114//1 113//1
f 62//2 63//2 192//2
f 5//3 57//3 49//3
f 151//3 58//3 50//3
f 58//3 59//3 51//3
f 171//3 60//3 52//3
f 111//10 55//10 150//10
f 110//10 54//10 55//10
f 109//10 53//10 170//10
f 150//1 113//1 189//1
f 105//1 128//1 186//1
f 106//1 127//1 126//1
f 107//1 126//1 166//1
f 108//8 125//8 117//8
f 105//7 23//7 118//7
f 120//2 122//2 40//2
f 31//4 120//4 118//4
f 19//6 117//6 119//6
f 27//2 119//2 121//2
f 97//1 144//1 188//1
f 98//1 143//1 142//1
f 99//1 142//1 168//1
f 17//8 100//8 141//8
f 21//7 134//7 144//7
f 30//2 136//2 138//2
f 29//4 136//4 134//4
f 17//6 133//6 135//6
f 135//2 137//2 33//2
f 161//1 168//1 141//1
f 163//1 166//1 125//1
f 164//10 150//10 56//10
f 57//3 151//3 149//3
f 64//6 56//6 189//6
f 58//2 151//2 153//2
f 152//2 154//2 72//2
f 49//9 149//9 161//9
f 168//1 162//1 104//1
f 162//1 163//1 108//1
f 166//1 164//1 112//1
f 181//1 188//1 143//1
f 183//1 186//1 127//1
f 184//10 170//10 54//10
f 59//3 171//3 169//3
f 53//1 196//1 116//1
f 171//2 173//2 68//2
f 62//2 172//2 174//2
f 51//9 169//9 181//9
f 143//1 188//1 182//1
f 102//1 182//1 183//1
f 186//1 184//1 110//1
f 61//4 195//4 196//4
f 152//2 64//2 194//2
f 61//2 172//2 190//2
f 170//1 116//1 115//1
f 152//2 193//2 192//2
f 54//1 115//1 114//1
f 172//2 62//2 191//2
f 116//5 196//5 195//5
f 190//5 191//5 115//5
f 116//5 195//5 190//5
f 115//5 116//5 190//5
f 192//5 193//5 114//5
f 115//5 191//5 192//5
f 189//5 113//5 194//5
f 114//5 115//5 192//5
f 193//5 194//5 113//5
usemtl Material.001
f 37//15 14//15 45//15
f 96//2 16//2 48//2
f 65//16 13//16 73//16
f 69//17 16//17 77//17
f 36//18 15//18 44//18
f 33//18 13//18 9//18
f 34//18 139//18 137//18
f 34//18 43//18 42//18
f 121//18 44//18 123//18
f 84//2 14//2 76//2
f 88//2 140//2 148//2
f 88//2 47//2 46//2
f 96//2 124//2 132//2
f 40//15 16//15 12//15
f 39//15 124//15 122//15
f 39//15 46//15 47//15
f 138//15 45//15 140//15
f 44//2 129//2 123//2
f 180//2 132//2 185//2
f 43//2 85//2 42//2
f 159//2 86//2 158//2
f 86//2 91//2 87//2
f 139//2 85//2 145//2
f 158//2 146//2 167//2
f 146//2 87//2 147//2
f 41//2 73//2 13//2
f 157//2 74//2 155//2
f 82//2 75//2 74//2
f 177//2 76//2 175//2
f 72//17 15//17 11//17
f 71//17 156//17 154//17
f 70//17 79//17 71//17
f 174//17 77//17 176//17
f 68//16 14//16 10//16
f 67//16 175//16 173//16
f 66//16 75//16 67//16
f 153//16 73//16 155//16
f 44//2 80//2 93//2
f 160//2 79//2 94//2
f 94//2 78//2 95//2
f 180//2 77//2 96//2
f 130//2 91//2 90//2
f 165//2 90//2 159//2
f 123//2 89//2 43//2
f 122//15 48//15 40//15
f 92//2 124//2 47//2
f 35//18 123//18 43//18
f 187//2 84//2 177//2
f 41//2 145//2 81//2
f 38//15 140//15 46//15
f 148//2 45//2 84//2
f 137//18 41//18 33//18
f 145//2 157//2 81//2
f 93//2 156//2 160//2
f 66//16 155//16 74//16
f 154//17 80//17 72//17
f 73//2 157//2 155//2
f 93//2 165//2 129//2
f 91//2 185//2 179//2
f 78//2 180//2 95//2
f 173//16 76//16 68//16
f 70//17 176//17 78//17
f 83//2 175//2 75//2
f 87//2 187//2 147//2
f 87//2 179//2 178//2
f 37//15 10//15 14//15
f 96//2 77//2 16//2
f 65//16 9//16 13//16
f 69//17 12//17 16//17
f 36//18 11//18 15//18
f 33//18 41//18 13//18
f 34//18 42//18 139//18
f 34//18 35//18 43//18
f 121//18 36//18 44//18
f 84//2 45//2 14//2
f 88//2 46//2 140//2
f 88//2 92//2 47//2
f 96//2 48//2 124//2
f 40//15 48//15 16//15
f 39//15 47//15 124//15
f 39//15 38//15 46//15
f 138//15 37//15 45//15
f 44//2 93//2 129//2
f 180//2 96//2 132//2
f 43//2 89//2 85//2
f 159//2 90//2 86//2
f 86//2 90//2 91//2
f 139//2 42//2 85//2
f 158//2 86//2 146//2
f 146//2 86//2 87//2
f 41//2 81//2 73//2
f 157//2 82//2 74//2
f 82//2 83//2 75//2
f 177//2 84//2 76//2
f 72//17 80//17 15//17
f 71//17 79//17 156//17
f 70//17 78//17 79//17
f 174//17 69//17 77//17
f 68//16 76//16 14//16
f 67//16 75//16 175//16
f 66//16 74//16 75//16
f 153//16 65//16 73//16
f 44//2 15//2 80//2
f 160//2 156//2 79//2
f 94//2 79//2 78//2
f 180//2 176//2 77//2
f 130//2 131//2 91//2
f 165//2 130//2 90//2
f 123//2 129//2 89//2
f 122//15 124//15 48//15
f 92//2 132//2 124//2
f 35//18 121//18 123//18
f 187//2 148//2 84//2
f 41//2 139//2 145//2
f 38//15 138//15 140//15
f 148//2 140//2 45//2
f 137//18 139//18 41//18
f 145//2 167//2 157//2
f 93//2 80//2 156//2
f 66//16 153//16 155//16
f 154//17 156//17 80//17
f 73//2 81//2 157//2
f 93//2 160//2 165//2
f 91//2 131//2 185//2
f 78//2 176//2 180//2
f 173//16 175//16 76//16
f 70//17 174//17 176//17
f 83//2 177//2 175//2
f 87//2 178//2 187//2
f 87//2 91//2 179//2
usemtl Material.002
f 160//2 130//2 165//2
f 94//2 131//2 130//2
f 178//2 92//2 88//2
f 178//2 148//2 187//2
f 185//2 92//2 179//2
f 146//2 83//2 82//2
f 167//2 82//2 157//2
f 129//2 159//2 89//2
f 85//2 167//2 145//2
f 85//2 159//2 158//2
f 147//2 177//2 83//2
f 95//2 185//2 131//2
f 160//2 94//2 130//2
f 94//2 95//2 131//2
f 178//2 179//2 92//2
f 178//2 88//2 148//2
f 185//2 132//2 92//2
f 146//2 147//2 83//2
f 167//2 146//2 82//2
f 129//2 165//2 159//2
f 85//2 158//2 167//2
f 85//2 89//2 159//2
f 147//2 187//2 177//2
f 95//2 180//2 185//2
