# Blender v2.76 (sub 0) OBJ File: '0x10c.blend'
# www.blender.org
mtllib LaserGun.mtl
o Cube
v 1.000000 -1.000000 -4.000000
v 1.000000 -1.000000 -2.000000
v 0.900000 1.000000 -2.000000
v 0.900000 1.000000 1.000000
v 1.000000 2.300000 -2.000000
v 0.800000 2.500000 -2.000000
v 0.900000 -1.000000 1.000000
v 1.000000 2.300000 -4.000000
v 0.800000 2.500000 -4.000000
v 0.400000 2.000000 1.000000
v 0.400000 2.000000 -2.000000
v 1.000000 1.000000 -2.000000
v 1.000000 1.000000 -4.000000
v 0.900000 -1.000000 -4.000000
v 0.900000 -1.000000 -2.000000
v 1.000000 -2.000000 1.000000
v 0.900000 -1.000000 -4.800000
v 1.000000 2.300000 5.000000
v 0.800000 2.500000 5.000000
v 1.000000 2.300000 1.000000
v 0.800000 2.500000 1.000000
v 0.800000 -2.200000 5.000000
v 0.800000 -2.200000 1.000000
v 1.000000 -2.000000 5.000000
v 0.900000 1.000000 -4.800000
v 0.400000 2.000000 -4.250000
v 0.400000 2.000000 -4.000000
v 0.900000 1.000000 -4.000000
v 0.500000 -4.749136 -4.842091
v 0.500000 -0.885433 -3.806815
v 0.500000 -5.163248 -3.296610
v 0.500000 -1.299543 -2.261334
v 1.000000 1.500000 2.000000
v 1.000000 1.500000 4.600000
v 1.000000 -1.200000 2.000000
v 1.000000 -1.200000 4.600000
v 1.500000 1.500000 2.000000
v 1.500000 1.500000 4.600000
v 1.500000 -1.200000 2.000000
v 1.500000 -1.200000 4.600000
v 1.700000 1.300000 2.000000
v 1.700000 1.300000 4.600000
v 1.700000 -1.000000 2.000000
v 1.700000 -1.000000 4.600000
v 0.500000 -1.299543 1.000000
v 0.500000 -1.000000 -2.261334
v 0.500000 -1.000000 1.000000
v 0.550000 2.250000 5.000000
v 0.750000 2.050000 5.000000
v 0.500000 -1.950000 5.000000
v 0.750000 -1.700000 5.000000
v -1.000000 -1.000000 -4.000000
v -1.000000 -1.000000 -2.000000
v -0.900000 1.000000 -2.000000
v -0.900000 1.000000 1.000000
v 0.000000 -1.000000 1.000000
v 0.000000 -1.000000 -2.000000
v -1.000000 2.300000 -2.000000
v -0.800000 2.500000 -2.000000
v -0.900000 -1.000000 1.000000
v 0.000000 -1.000000 -4.000000
v -1.000000 2.300000 -4.000000
v -0.800000 2.500000 -4.000000
v 0.000000 2.000000 1.000000
v 0.000000 2.000000 -2.000000
v -0.400000 2.000000 1.000000
v -0.400000 2.000000 -2.000000
v 0.000000 2.500000 -2.000000
v 0.000000 2.500000 -4.000000
v -1.000000 1.000000 -2.000000
v -1.000000 1.000000 -4.000000
v -0.900000 -1.000000 -4.000000
v -0.900000 -1.000000 -2.000000
v -1.000000 -2.000000 1.000000
v -0.900000 -1.000000 -4.800000
v -1.000000 2.300000 5.000000
v -0.800000 2.500000 5.000000
v -1.000000 2.300000 1.000000
v -0.800000 2.500000 1.000000
v 0.000000 2.500000 5.000000
v 0.000000 2.500000 1.000000
v -0.800000 -2.200000 5.000000
v -0.800000 -2.200000 1.000000
v 0.000000 -2.200000 5.000000
v 0.000000 -2.200000 1.000000
v -1.000000 -2.000000 5.000000
v 0.000000 -1.000000 -4.800000
v -0.900000 1.000000 -4.800000
v 0.000000 1.000000 -4.800000
v -0.400000 2.000000 -4.250000
v 0.000000 2.000000 -4.250000
v -0.400000 2.000000 -4.000000
v 0.000000 2.000000 -4.000000
v -0.900000 1.000000 -4.000000
v -0.500000 -4.749136 -4.842091
v -0.500000 -0.885433 -3.806815
v -0.500000 -5.163248 -3.296610
v -0.500000 -1.299543 -2.261334
v 0.000000 -1.351307 -2.068148
v 0.000000 -5.215010 -3.103424
v 0.000000 -0.833670 -4.000000
v 0.000000 -4.697371 -5.035276
v -1.000000 1.500000 2.000000
v -1.000000 1.500000 4.600000
v -1.000000 -1.200000 2.000000
v -1.000000 -1.200000 4.600000
v -1.500000 1.500000 2.000000
v -1.500000 1.500000 4.600000
v -1.500000 -1.200000 2.000000
v -1.500000 -1.200000 4.600000
v -1.700000 1.300000 2.000000
v -1.700000 1.300000 4.600000
v -1.700000 -1.000000 2.000000
v -1.700000 -1.000000 4.600000
v -0.500000 -1.299543 1.000000
v 0.000000 -1.351307 1.000000
v -0.500000 -1.000000 -2.261334
v -0.500000 -1.000000 1.000000
v -0.550000 2.250000 5.000000
v -0.750000 2.050000 5.000000
v 0.000000 2.250000 5.000000
v -0.500000 -1.950000 5.000000
v -0.750000 -1.700000 5.000000
v 0.000000 -1.950000 5.000000
vn 1.000000 0.000000 0.000000
vn 0.000000 1.000000 0.000000
vn 0.707100 0.707100 0.000000
vn 0.000000 -0.000000 1.000000
vn 0.894400 0.447200 0.000000
vn 0.000000 -1.000000 0.000000
vn 0.000000 0.000000 -1.000000
vn 0.000000 0.481900 -0.876200
vn 0.707100 -0.707100 0.000000
vn 0.371400 0.240300 -0.896800
vn -0.000000 -0.965900 -0.258800
vn 0.371400 -0.240300 0.896800
vn 0.103000 -0.994700 0.000000
vn -1.000000 0.000000 0.000000
vn -0.707100 0.707100 0.000000
vn -0.894400 0.447200 0.000000
vn -0.707100 -0.707100 0.000000
vn -0.371400 0.240300 -0.896800
vn -0.371400 -0.240300 0.896800
vn -0.103000 -0.994700 0.000000
usemtl Red
s off
f 13//1 8//1 5//1
f 12//1 2//1 1//1
f 9//2 69//2 68//2
f 8//3 9//3 6//3
f 3//4 15//4 2//4
f 64//2 10//2 11//2
f 3//5 11//5 10//5
f 84//6 85//6 23//6
f 2//6 15//6 14//6
f 57//6 15//6 7//6
f 3//1 4//1 7//1
f 11//4 12//4 5//4
f 68//4 65//4 11//4
f 87//7 89//7 25//7
f 21//2 81//2 80//2
f 20//3 21//3 19//3
f 81//7 21//7 10//7
f 15//6 57//6 61//6
f 61//6 87//6 17//6
f 16//7 23//7 7//7
f 89//8 91//8 26//8
f 91//2 93//2 27//2
f 28//7 13//7 1//7
f 17//1 25//1 28//1
f 28//5 25//5 26//5
f 27//7 93//7 69//7
f 13//7 27//7 8//7
f 56//7 7//7 23//7
f 22//9 23//9 16//9
f 32//1 31//1 29//1
f 30//10 29//10 102//10
f 32//1 30//1 46//1
f 29//11 31//11 100//11
f 32//12 99//12 100//12
f 4//7 20//7 16//7
f 10//7 21//7 20//7
f 18//1 34//1 33//1
f 36//4 40//4 38//4
f 18//1 24//1 36//1
f 20//1 33//1 35//1
f 24//1 16//1 35//1
f 39//7 37//7 41//7
f 35//6 39//6 40//6
f 33//7 37//7 39//7
f 34//2 38//2 37//2
f 42//1 44//1 43//1
f 38//3 42//3 41//3
f 40//4 44//4 42//4
f 39//9 43//9 44//9
f 45//13 116//13 99//13
f 32//1 46//1 47//1
f 22//4 24//4 51//4
f 121//4 124//4 51//4
f 18//4 19//4 48//4
f 18//4 49//4 51//4
f 80//4 121//4 48//4
f 84//4 22//4 50//4
f 58//14 62//14 71//14
f 52//14 53//14 70//14
f 68//2 69//2 63//2
f 59//15 63//15 62//15
f 53//4 73//4 54//4
f 65//2 67//2 66//2
f 54//16 55//16 66//16
f 83//6 85//6 84//6
f 72//6 73//6 53//6
f 60//6 73//6 57//6
f 60//14 55//14 54//14
f 58//4 54//4 67//4
f 67//4 65//4 68//4
f 88//7 89//7 87//7
f 80//2 81//2 79//2
f 77//15 79//15 78//15
f 66//7 79//7 81//7
f 61//6 57//6 73//6
f 75//6 87//6 61//6
f 74//7 60//7 83//7
f 90//8 91//8 89//8
f 92//2 93//2 91//2
f 52//7 71//7 94//7
f 94//14 88//14 75//14
f 90//16 88//16 94//16
f 69//7 93//7 92//7
f 92//7 94//7 62//7
f 56//7 85//7 83//7
f 74//17 83//17 82//17
f 95//14 97//14 98//14
f 102//18 95//18 96//18
f 98//14 117//14 96//14
f 95//11 102//11 100//11
f 98//19 97//19 100//19
f 55//7 60//7 74//7
f 66//7 55//7 78//7
f 103//14 104//14 76//14
f 108//4 110//4 106//4
f 104//14 106//14 86//14
f 105//14 103//14 78//14
f 86//14 106//14 105//14
f 109//7 113//7 111//7
f 110//6 109//6 105//6
f 109//7 107//7 103//7
f 107//2 108//2 104//2
f 113//14 114//14 112//14
f 111//15 112//15 108//15
f 112//4 114//4 110//4
f 114//17 113//17 109//17
f 115//20 98//20 99//20
f 118//14 117//14 98//14
f 82//4 122//4 123//4
f 123//4 121//4 120//4
f 76//4 120//4 119//4
f 123//4 120//4 76//4
f 119//4 121//4 80//4
f 84//4 124//4 122//4
f 12//1 13//1 5//1
f 13//1 12//1 1//1
f 6//2 9//2 68//2
f 5//3 8//3 6//3
f 12//4 3//4 2//4
f 65//2 64//2 11//2
f 4//5 3//5 10//5
f 22//6 84//6 23//6
f 1//6 2//6 14//6
f 56//6 57//6 7//6
f 15//1 3//1 7//1
f 5//4 6//4 11//4
f 11//4 3//4 12//4
f 6//4 68//4 11//4
f 17//7 87//7 25//7
f 19//2 21//2 80//2
f 18//3 20//3 19//3
f 64//7 81//7 10//7
f 14//6 15//6 61//6
f 14//6 61//6 17//6
f 25//8 89//8 26//8
f 26//2 91//2 27//2
f 14//7 28//7 1//7
f 14//1 17//1 28//1
f 27//5 28//5 26//5
f 9//7 27//7 69//7
f 9//7 8//7 27//7
f 13//7 28//7 27//7
f 85//7 56//7 23//7
f 24//9 22//9 16//9
f 30//1 32//1 29//1
f 101//10 30//10 102//10
f 102//11 29//11 100//11
f 31//12 32//12 100//12
f 7//7 4//7 16//7
f 4//7 10//7 20//7
f 20//1 18//1 33//1
f 34//4 36//4 38//4
f 34//1 18//1 36//1
f 16//1 20//1 35//1
f 36//1 24//1 35//1
f 43//7 39//7 41//7
f 36//6 35//6 40//6
f 35//7 33//7 39//7
f 33//2 34//2 37//2
f 41//1 42//1 43//1
f 37//3 38//3 41//3
f 38//4 40//4 42//4
f 40//9 39//9 44//9
f 32//13 45//13 99//13
f 45//1 32//1 47//1
f 50//4 22//4 51//4
f 51//4 49//4 121//4
f 48//4 121//4 49//4
f 124//4 50//4 51//4
f 49//4 18//4 48//4
f 24//4 18//4 51//4
f 19//4 80//4 48//4
f 124//4 84//4 50//4
f 70//14 58//14 71//14
f 71//14 52//14 70//14
f 59//2 68//2 63//2
f 58//15 59//15 62//15
f 70//4 53//4 54//4
f 64//2 65//2 66//2
f 67//16 54//16 66//16
f 82//6 83//6 84//6
f 52//6 72//6 53//6
f 56//6 60//6 57//6
f 73//14 60//14 54//14
f 67//4 59//4 58//4
f 58//4 70//4 54//4
f 59//4 67//4 68//4
f 75//7 88//7 87//7
f 77//2 80//2 79//2
f 76//15 77//15 78//15
f 64//7 66//7 81//7
f 72//6 61//6 73//6
f 72//6 75//6 61//6
f 88//8 90//8 89//8
f 90//2 92//2 91//2
f 72//7 52//7 94//7
f 72//14 94//14 75//14
f 92//16 90//16 94//16
f 63//7 69//7 92//7
f 71//7 62//7 94//7
f 63//7 92//7 62//7
f 60//7 56//7 83//7
f 86//17 74//17 82//17
f 96//14 95//14 98//14
f 101//18 102//18 96//18
f 97//11 95//11 100//11
f 99//19 98//19 100//19
f 78//7 55//7 74//7
f 79//7 66//7 78//7
f 78//14 103//14 76//14
f 104//4 108//4 106//4
f 76//14 104//14 86//14
f 74//14 105//14 78//14
f 74//14 86//14 105//14
f 107//7 109//7 111//7
f 106//6 110//6 105//6
f 105//7 109//7 103//7
f 103//2 107//2 104//2
f 111//14 113//14 112//14
f 107//15 111//15 108//15
f 108//4 112//4 110//4
f 110//17 114//17 109//17
f 116//20 115//20 99//20
f 115//14 118//14 98//14
f 86//4 82//4 123//4
f 119//4 120//4 121//4
f 123//4 122//4 124//4
f 124//4 121//4 123//4
f 77//4 76//4 119//4
f 86//4 123//4 76//4
f 77//4 119//4 80//4
f 82//4 84//4 122//4
