# Blender v2.77 (sub 0) OBJ File: 'Ship_Lightning.blend'
# www.blender.org
mtllib Ship_Lightning.mtl
o Wing_Right.001_Cube.017
v -0.499999 -0.500000 -1.000001
v -0.499999 0.500000 -1.000001
v -0.499999 -0.500000 0.999999
v -0.499999 0.500000 0.999999
v -0.176777 0.676777 0.999999
v -0.353553 0.853553 0.100000
v -0.265165 0.765165 -1.000001
v -0.375000 0.500000 -1.000001
v -0.353553 0.853553 -0.500000
v -0.250000 0.500000 0.999999
v -0.344714 0.844714 0.145000
v -0.487500 0.500000 0.145000
v -0.499999 0.500000 -0.500001
v -0.499999 -0.500000 -0.500001
v -0.499999 -0.500000 0.099999
v -0.499999 0.500000 0.099999
v -0.375000 -0.500000 -1.000001
v -0.250000 -0.500000 0.999999
v -0.375000 -0.500000 -0.500001
v -0.375000 -0.500000 0.099999
v -0.499999 -0.500000 -2.000001
v -0.499999 0.500000 -2.000001
v -0.499999 -0.500000 -1.000001
v -0.499999 0.500000 -1.000001
v -2.050000 1.500000 -4.000002
v -1.950000 1.500000 -4.000002
v -2.050000 0.500000 -4.000002
v -1.950000 0.500000 -4.000002
v -1.950000 0.500000 -2.000002
v -2.050000 0.500000 -2.000002
v -0.250000 0.250000 -2.750001
v -0.500000 0.500000 -2.000001
v -0.250000 -0.000000 -3.000000
v -0.250000 -0.250000 -2.750000
v -0.500000 -0.500000 -2.000000
v -2.500000 -0.500000 -3.000002
v -2.500000 -0.500000 -4.000002
v -1.500000 -0.500000 -4.000002
v -1.500001 -0.500000 -3.000002
v -2.500001 0.500000 -3.000002
v -2.500000 0.500000 -4.000002
v -1.500000 0.500000 -4.000002
v -1.500000 0.500000 -3.000002
v -2.400000 -0.400000 -4.000002
v -1.600000 -0.400000 -4.000002
v -2.400000 0.400000 -4.000002
v -1.600000 0.400000 -4.000002
v -2.320000 -0.320000 -4.500002
v -1.680000 -0.320000 -4.500002
v -2.320000 0.320000 -4.500002
v -1.680000 0.320000 -4.500002
v -2.256000 -0.256000 -4.500002
v -1.744000 -0.256000 -4.500002
v -2.256000 0.256000 -4.500002
v -1.744000 0.256000 -4.500002
v -0.499999 -0.500000 0.999999
v -0.499999 0.500000 0.999999
v -0.499999 -0.500000 1.999999
v -0.499999 0.500000 1.999999
v -1.500000 -0.050000 -0.000001
v -1.500000 -0.050000 -3.000001
v -0.500000 -0.050000 -2.000001
v -0.500001 -0.050000 0.999999
v -1.500001 0.050000 -0.000001
v -1.500000 0.050000 -3.000002
v -0.500000 0.050000 -2.000001
v -0.500000 0.050000 0.999999
v -4.500001 -0.050000 -3.000002
v -4.500001 0.050000 -3.000002
v -2.500001 -0.050000 -4.000002
v -2.500001 0.050000 -4.000002
v -2.500001 0.050000 -1.000002
v -2.500001 -0.050000 -1.000002
v -2.500000 -0.500000 -0.000002
v -2.500000 -0.500000 -3.000002
v -1.500000 -0.500000 -3.000002
v -1.500001 -0.500000 -0.000002
v -2.500001 0.500000 -0.000003
v -2.500000 0.500000 -3.000003
v -1.500000 0.500000 -3.000002
v -1.500000 0.500000 -0.000002
v -0.500000 -0.500000 2.000000
v -0.250000 -0.250000 3.750000
v -0.250000 0.250000 3.749999
v -0.500000 0.500000 1.999999
v -0.250000 -0.500000 2.000000
v -0.250000 -0.000000 4.000000
v -0.250000 -0.000000 2.000000
v -0.250000 -0.500000 2.499999
v -0.250000 -0.500000 1.999999
v -0.250000 -0.000000 2.499999
v -0.250000 -0.000000 1.999999
v -0.250000 -0.166667 3.499999
v -0.250000 -0.333333 2.499999
v -0.250000 -0.166667 2.499999
v -0.250000 -0.333333 1.999999
v -0.250000 -0.166667 1.999999
v -0.250000 -0.333333 3.499999
v -0.083333 -0.500000 2.499999
v -0.083333 -0.500000 1.999999
v -0.083333 -0.000000 2.499999
v -0.083333 -0.000000 1.999999
v -0.083333 -0.000000 3.499999
v -0.083333 -0.500000 3.499999
v -0.083333 -0.333333 1.999999
v -0.083333 -0.166667 1.999999
v -0.083333 -0.166667 3.499999
v -0.083333 -0.333333 3.499999
v -0.250000 -0.333331 4.999999
v -0.250000 -0.166664 4.999999
v -0.083333 -0.333331 4.999999
v -0.083333 -0.166664 4.999999
v -0.250000 -0.166664 4.899999
v -0.083333 -0.166664 4.899999
v -0.250000 -0.333331 4.900000
v -0.083333 -0.333331 4.900000
v -0.083333 -0.333334 3.299999
v -0.083333 -0.166667 3.299999
v -2.250000 -0.250000 1.749998
v -2.500000 -0.000000 -0.000002
v -2.500000 -0.500000 -0.000002
v -2.500000 0.500000 -0.000002
v -2.250000 -0.000000 -0.000002
v -2.250000 -0.500000 -0.000002
v -2.250000 0.500000 -0.000002
v -2.500000 -0.250000 -0.000002
v -2.250000 -0.000000 1.999998
v -2.250000 -0.250000 -0.000002
v -2.250000 0.250000 1.749998
v -2.000000 -0.000000 1.999998
v -1.750000 -0.250000 1.749998
v -1.500000 -0.000000 -0.000002
v -1.500000 -0.500000 -0.000002
v -1.500000 0.500000 -0.000002
v -2.000000 -0.250000 1.749998
v -2.000000 0.500000 -0.000002
v -2.000000 -0.500000 -0.000002
v -1.750000 -0.000000 -0.000002
v -1.750000 -0.500000 -0.000002
v -1.750000 0.500000 -0.000002
v -1.500000 -0.250000 -0.000002
v -1.750000 -0.000000 1.999998
v -1.750000 -0.250000 -0.000002
v -2.000000 0.250000 1.749998
v -1.750000 0.250000 1.749998
v 0.499999 -0.500000 -1.000001
v 0.499999 0.500000 -1.000001
v 0.499999 -0.500000 0.999999
v 0.499999 0.500000 0.999999
v -0.000000 -0.500000 -1.000001
v -0.000000 -0.500000 0.999999
v -0.000000 0.500000 0.999999
v 0.176776 0.676777 0.999999
v -0.000000 1.000000 0.100000
v 0.353553 0.853553 0.100000
v 0.265164 0.765165 -1.000001
v 0.374999 0.500000 -1.000001
v 0.353553 0.853553 -0.500000
v 0.249999 0.500000 0.999999
v -0.000000 1.000000 -0.500000
v 0.344714 0.844714 0.145000
v -0.000000 0.987500 0.145000
v 0.487499 0.500000 0.145000
v -0.000000 0.750000 0.999999
v -0.000000 0.500000 -1.000001
v -0.000000 0.875000 -1.000001
v 0.499999 0.500000 -0.500001
v 0.499999 -0.500000 -0.500001
v -0.000000 -0.500000 -0.500001
v 0.499999 -0.500000 0.099999
v 0.499999 0.500000 0.099999
v -0.000000 -0.500000 0.099999
v 0.374999 -0.500000 -1.000001
v 0.249999 -0.500000 0.999999
v 0.374999 -0.500000 -0.500001
v 0.374999 -0.500000 0.099999
v 0.499999 -0.500000 -2.000001
v 0.499999 0.500000 -2.000001
v 0.499999 -0.500000 -1.000001
v 0.499999 0.500000 -1.000001
v 2.050000 1.500000 -4.000002
v 1.950000 1.500000 -4.000002
v 2.050000 0.500000 -4.000002
v 1.950000 0.500000 -4.000002
v 1.950000 0.500001 -2.000002
v 2.050000 0.500001 -2.000002
v 0.250000 0.250000 -2.750001
v 0.500000 0.500000 -2.000001
v 0.250000 0.000000 -3.000000
v 0.250000 -0.250000 -2.750000
v 0.500000 -0.500000 -2.000000
v -0.000000 0.500000 -2.000000
v -0.000000 0.250000 -2.750001
v -0.000000 -0.500000 -2.000000
v -0.000000 0.000000 -3.000000
v -0.000000 -0.250000 -2.750000
v 2.500000 -0.500000 -3.000002
v 2.500000 -0.500000 -4.000002
v 1.500000 -0.500000 -4.000002
v 1.500000 -0.500000 -3.000002
v 2.500000 0.500000 -3.000002
v 2.500000 0.500000 -4.000002
v 1.500000 0.500000 -4.000002
v 1.500000 0.500000 -3.000002
v 2.400000 -0.400000 -4.000002
v 1.600000 -0.400000 -4.000002
v 2.400000 0.400000 -4.000002
v 1.600000 0.400000 -4.000002
v 2.320000 -0.320000 -4.500002
v 1.680000 -0.320000 -4.500002
v 2.319999 0.320000 -4.500002
v 1.679999 0.320000 -4.500002
v 2.256000 -0.256000 -4.500002
v 1.744000 -0.256000 -4.500002
v 2.256000 0.256000 -4.500002
v 1.744000 0.256000 -4.500002
v -0.000000 -0.000000 0.000000
v 0.499999 -0.500000 0.999999
v 0.499999 0.500000 0.999999
v 0.499999 -0.500000 1.999999
v 0.499999 0.500000 1.999999
v -0.000000 -0.500000 -2.000001
v -0.000000 0.500000 -2.000001
v 1.500000 -0.050000 -0.000001
v 1.500000 -0.050000 -3.000001
v 0.500000 -0.050000 -2.000001
v 0.500000 -0.050000 0.999999
v 1.500000 0.050000 -0.000001
v 1.500000 0.050000 -3.000002
v 0.500000 0.050000 -2.000001
v 0.500000 0.050000 0.999999
v 4.500001 -0.049999 -3.000002
v 4.500001 0.050001 -3.000002
v 2.500000 -0.050000 -4.000002
v 2.500001 0.050000 -4.000002
v 2.500001 0.050000 -1.000002
v 2.500001 -0.050000 -1.000002
v 2.500000 -0.500000 -0.000002
v 2.500000 -0.500000 -3.000002
v 1.500000 -0.500000 -3.000002
v 1.500000 -0.500000 -0.000002
v 2.500000 0.500000 -0.000003
v 2.500000 0.500000 -3.000003
v 1.500000 0.500000 -3.000002
v 1.500000 0.500000 -0.000002
v -0.000000 -0.500000 -1.000001
v -0.000000 0.500000 -1.000001
v -0.000000 -0.500000 0.999999
v -0.000000 0.500000 0.999999
v -0.000000 -0.500000 1.999999
v -0.000000 0.500000 1.999999
v 0.500000 -0.500000 2.000000
v -0.000000 0.500000 2.000000
v 0.250000 -0.250000 3.750000
v 0.250000 0.250000 3.749999
v -0.000000 0.250000 3.749999
v 0.500000 0.500000 1.999999
v 0.249999 -0.500000 2.000000
v -0.000000 0.000000 4.000000
v 0.250000 0.000000 4.000000
v -0.000000 0.000000 2.000000
v 0.250000 0.000000 2.000000
v 0.249999 -0.500000 2.499999
v 0.249999 -0.500000 1.999999
v 0.250000 0.000000 2.499999
v 0.249999 0.000000 1.999999
v 0.250000 -0.166667 3.499999
v 0.249999 -0.333333 2.499999
v 0.249999 -0.166667 2.499999
v 0.249999 -0.333333 1.999999
v 0.249999 -0.166667 1.999999
v 0.249999 -0.333333 3.499999
v 0.083333 -0.500000 2.499999
v 0.083333 -0.500000 1.999999
v 0.083333 0.000000 2.499999
v 0.083333 0.000000 1.999999
v 0.083333 0.000000 3.499999
v 0.083333 -0.500000 3.499999
v 0.083333 -0.333333 1.999999
v 0.083333 -0.166667 1.999999
v -0.000000 -0.500000 2.499999
v -0.000000 -0.500000 1.999999
v -0.000000 0.000000 2.499999
v -0.000000 0.000000 1.999999
v -0.000000 0.000000 3.499999
v -0.000000 -0.500000 3.499999
v -0.000000 -0.333333 1.999999
v -0.000000 -0.166667 1.999999
v 0.083333 -0.166667 3.499999
v 0.083333 -0.333333 3.499999
v 0.249999 -0.333331 4.999999
v 0.250000 -0.166664 4.999999
v 0.083333 -0.333331 4.999999
v 0.083333 -0.166664 4.999999
v 0.250000 -0.166664 4.899999
v 0.083333 -0.166664 4.899999
v 0.249999 -0.333331 4.900000
v 0.083333 -0.333331 4.900000
v -0.000000 -0.333333 3.499999
v -0.000000 -0.166667 3.499999
v 0.083332 -0.333334 3.299999
v 0.083333 -0.166667 3.299999
v -0.000000 -0.333334 3.299999
v -0.000000 -0.166667 3.299999
v 2.250000 -0.250000 1.749998
v 2.500000 0.000000 -0.000002
v 2.500000 -0.500000 -0.000002
v 2.500000 0.500000 -0.000002
v 2.250000 0.000000 -0.000002
v 2.250000 -0.500000 -0.000002
v 2.250000 0.500000 -0.000002
v 2.500000 -0.250000 -0.000002
v 2.250000 0.000000 1.999998
v 2.250000 -0.250000 -0.000002
v 2.250000 0.250000 1.749998
v 2.000000 0.000000 1.999998
v 1.750000 -0.250000 1.749998
v 1.500000 0.000000 -0.000002
v 1.500000 -0.500000 -0.000002
v 1.500000 0.500000 -0.000002
v 2.000000 -0.250000 1.749998
v 2.000000 0.500000 -0.000002
v 2.000000 -0.500000 -0.000002
v 1.750000 0.000000 -0.000002
v 1.750000 -0.500000 -0.000002
v 1.750000 0.500000 -0.000002
v 1.500000 -0.250000 -0.000002
v 1.750000 0.000000 1.999998
v 1.750000 -0.250000 -0.000002
v 2.000000 0.250000 1.749998
v 1.750000 0.250000 1.749998
vn -0.8949 0.3707 0.2486
vn -0.3707 0.8949 0.2486
vn 0.0000 0.8944 0.4472
vn -1.0000 0.0000 0.0000
vn 1.0000 0.0000 0.0000
vn -0.0000 0.0000 -1.0000
vn 0.0000 -1.0000 -0.0000
vn -0.0000 1.0000 0.0000
vn 0.7071 -0.0000 -0.7071
vn -0.7071 0.0000 0.7071
vn -0.4472 0.0000 -0.8944
vn 0.8949 0.3707 0.2486
vn 0.3707 0.8949 0.2486
vn -0.7071 -0.0000 -0.7071
vn 0.7071 0.0000 0.7071
vn 0.4472 -0.0000 -0.8944
vn 0.0000 0.0000 1.0000
vn -0.3729 0.9002 -0.2250
vn -0.9002 0.3729 -0.2250
vn -0.8165 0.4082 -0.4082
vn -0.9701 -0.0000 -0.2425
vn 0.0000 0.9487 -0.3162
vn -0.8165 -0.4082 -0.4082
vn 0.0000 0.7071 -0.7071
vn 0.0000 -0.9487 -0.3162
vn -0.0000 -0.7071 -0.7071
vn -0.9733 0.1622 0.1622
vn 0.0000 -0.9899 0.1414
vn 0.0000 0.7071 0.7071
vn -0.0000 0.9899 0.1414
vn -0.9733 -0.1622 0.1622
vn -0.9923 0.0000 0.1240
vn -0.9899 0.0000 0.1414
vn 0.0000 -0.7071 0.7071
vn -0.9847 0.1231 0.1231
vn 0.9899 0.0000 0.1414
vn 0.3729 0.9002 -0.2250
vn 0.9002 0.3729 -0.2250
vn 0.8165 0.4082 -0.4082
vn 0.9701 -0.0000 -0.2425
vn 0.8165 -0.4082 -0.4082
vn 0.9733 0.1622 0.1622
vn 0.9733 -0.1622 0.1622
vn 0.9923 0.0000 0.1240
vn 0.9847 0.1231 0.1231
vn -0.9239 0.3827 0.0000
vn -0.3827 0.9239 0.0000
vn 0.9239 0.3827 0.0000
vn 0.3827 0.9239 0.0000
vn 0.9874 0.0000 -0.1580
vn 0.0000 -0.9874 -0.1580
vn 0.0000 0.9874 -0.1580
vn -0.9874 0.0000 -0.1580
vn -0.7022 -0.7022 0.1170
vn -0.7022 0.7022 0.1170
vn 0.7022 -0.7022 0.1170
vn 0.7022 0.7022 0.1170
usemtl Secondary
s off
f 16//1 11//1 6//1
f 6//2 162//2 154//2
f 30//3 26//3 25//3
f 25//4 27//4 30//4
f 28//5 26//5 29//5
f 25//6 28//6 27//6
f 60//7 62//7 63//7
f 64//8 66//8 65//8
f 64//4 61//4 60//4
f 65//9 62//9 61//9
f 66//5 63//5 62//5
f 60//10 67//10 64//10
f 73//10 69//10 68//10
f 68//7 70//7 73//7
f 71//8 69//8 72//8
f 68//11 71//11 70//11
f 161//12 171//12 155//12
f 162//13 155//13 154//13
f 182//3 186//3 181//3
f 181//5 186//5 183//5
f 184//4 185//4 182//4
f 181//6 184//6 182//6
f 224//7 226//7 225//7
f 228//8 230//8 231//8
f 225//5 228//5 224//5
f 226//14 229//14 225//14
f 227//4 230//4 226//4
f 231//15 224//15 228//15
f 233//15 237//15 232//15
f 232//7 237//7 234//7
f 235//8 236//8 233//8
f 232//16 235//16 233//16
f 16//1 12//1 11//1
f 6//2 11//2 162//2
f 30//3 29//3 26//3
f 25//6 26//6 28//6
f 60//7 61//7 62//7
f 64//8 67//8 66//8
f 64//4 65//4 61//4
f 65//9 66//9 62//9
f 66//5 67//5 63//5
f 60//10 63//10 67//10
f 73//10 72//10 69//10
f 68//11 69//11 71//11
f 161//12 163//12 171//12
f 162//13 161//13 155//13
f 182//3 185//3 186//3
f 181//6 183//6 184//6
f 224//7 227//7 226//7
f 228//8 229//8 230//8
f 225//5 229//5 228//5
f 226//14 230//14 229//14
f 227//4 231//4 230//4
f 231//15 227//15 224//15
f 233//15 236//15 237//15
f 232//16 234//16 235//16
usemtl Primary
f 4//17 18//17 10//17
f 2//4 14//4 13//4
f 20//7 3//7 15//7
f 165//6 17//6 8//6
f 9//18 166//18 7//18
f 13//19 7//19 8//19
f 7//6 165//6 8//6
f 19//7 1//7 17//7
f 16//4 3//4 4//4
f 20//7 14//7 19//7
f 13//4 15//4 16//4
f 172//7 19//7 169//7
f 169//7 17//7 150//7
f 8//6 1//6 2//6
f 172//7 18//7 20//7
f 152//17 18//17 151//17
f 2//8 13//8 8//8
f 12//8 4//8 10//8
f 24//17 246//17 247//17
f 22//4 23//4 24//4
f 246//7 21//7 222//7
f 31//20 33//20 32//20
f 35//21 32//21 33//21
f 192//22 31//22 32//22
f 34//23 35//23 33//23
f 33//24 193//24 195//24
f 194//25 34//25 196//25
f 196//26 33//26 195//26
f 37//7 39//7 36//7
f 43//8 41//8 40//8
f 40//4 37//4 36//4
f 38//6 44//6 45//6
f 42//5 39//5 38//5
f 36//17 43//17 40//17
f 42//6 46//6 41//6
f 38//6 47//6 42//6
f 37//6 46//6 44//6
f 59//17 250//17 251//17
f 57//4 58//4 59//4
f 250//7 56//7 248//7
f 24//8 223//8 22//8
f 22//6 222//6 21//6
f 74//7 76//7 77//7
f 78//8 80//8 79//8
f 78//4 75//4 74//4
f 79//6 76//6 75//6
f 80//5 77//5 76//5
f 81//17 74//17 77//17
f 57//6 248//6 56//6
f 59//8 249//8 57//8
f 84//27 85//27 87//27
f 82//28 86//28 83//28
f 259//29 84//29 87//29
f 253//30 84//30 256//30
f 83//5 88//5 87//5
f 261//7 87//7 88//7
f 83//31 87//31 82//31
f 82//32 87//32 85//32
f 119//33 126//33 121//33
f 124//28 119//28 121//28
f 127//34 135//34 130//34
f 135//28 124//28 137//28
f 119//4 123//4 128//4
f 119//8 128//8 126//8
f 120//7 123//7 127//7
f 129//29 130//29 144//29
f 129//30 136//30 125//30
f 122//30 129//30 125//30
f 129//35 120//35 127//35
f 131//36 133//36 141//36
f 139//28 133//28 131//28
f 135//34 142//34 130//34
f 139//28 135//28 137//28
f 138//5 131//5 143//5
f 131//8 141//8 143//8
f 132//7 142//7 138//7
f 130//29 145//29 144//29
f 136//30 145//30 140//30
f 134//30 140//30 145//30
f 145//36 132//36 134//36
f 159//17 148//17 149//17
f 168//5 147//5 167//5
f 176//7 148//7 174//7
f 173//6 165//6 157//6
f 158//37 166//37 160//37
f 167//38 156//38 158//38
f 156//6 165//6 166//6
f 146//7 175//7 173//7
f 148//5 171//5 149//5
f 168//7 176//7 175//7
f 170//5 167//5 171//5
f 175//7 172//7 169//7
f 173//7 169//7 150//7
f 146//6 157//6 147//6
f 172//7 174//7 151//7
f 151//17 159//17 152//17
f 147//8 157//8 167//8
f 149//8 163//8 159//8
f 246//17 180//17 247//17
f 179//5 178//5 180//5
f 177//7 246//7 222//7
f 187//39 188//39 189//39
f 191//40 189//40 188//40
f 192//22 187//22 193//22
f 190//41 189//41 191//41
f 193//24 189//24 195//24
f 190//25 194//25 196//25
f 195//26 190//26 196//26
f 200//7 198//7 197//7
f 202//8 204//8 201//8
f 198//5 201//5 197//5
f 199//6 205//6 198//6
f 200//4 203//4 199//4
f 204//17 197//17 201//17
f 207//6 203//6 202//6
f 208//6 199//6 203//6
f 198//6 207//6 202//6
f 250//17 221//17 251//17
f 220//5 219//5 221//5
f 218//7 250//7 248//7
f 223//8 180//8 178//8
f 177//6 223//6 178//6
f 238//7 240//7 239//7
f 242//8 244//8 245//8
f 239//5 242//5 238//5
f 240//6 243//6 239//6
f 241//4 244//4 240//4
f 238//17 245//17 241//17
f 218//6 249//6 219//6
f 249//8 221//8 219//8
f 255//42 260//42 257//42
f 252//28 254//28 258//28
f 260//29 256//29 259//29
f 253//30 255//30 257//30
f 254//4 262//4 258//4
f 260//7 261//7 262//7
f 254//43 252//43 260//43
f 252//44 257//44 260//44
f 305//36 307//36 312//36
f 310//28 307//28 305//28
f 321//34 313//34 316//34
f 310//28 321//28 323//28
f 309//5 305//5 314//5
f 305//8 312//8 314//8
f 306//7 313//7 309//7
f 316//29 315//29 330//29
f 322//30 315//30 311//30
f 308//30 311//30 315//30
f 315//36 306//36 308//36
f 317//33 327//33 319//33
f 325//28 317//28 319//28
f 328//34 321//34 316//34
f 321//28 325//28 323//28
f 317//4 324//4 329//4
f 317//8 329//8 327//8
f 318//7 324//7 328//7
f 331//29 316//29 330//29
f 331//30 322//30 326//30
f 320//30 331//30 326//30
f 331//35 318//35 328//35
f 4//17 3//17 18//17
f 2//4 1//4 14//4
f 20//7 18//7 3//7
f 165//6 150//6 17//6
f 9//18 160//18 166//18
f 13//19 9//19 7//19
f 7//6 166//6 165//6
f 19//7 14//7 1//7
f 16//4 15//4 3//4
f 20//7 15//7 14//7
f 13//4 14//4 15//4
f 172//7 20//7 19//7
f 169//7 19//7 17//7
f 8//6 17//6 1//6
f 172//7 151//7 18//7
f 152//17 10//17 18//17
f 12//8 16//8 4//8
f 24//17 23//17 246//17
f 22//4 21//4 23//4
f 246//7 23//7 21//7
f 192//22 193//22 31//22
f 33//24 31//24 193//24
f 194//25 35//25 34//25
f 196//26 34//26 33//26
f 37//7 38//7 39//7
f 43//8 42//8 41//8
f 40//4 41//4 37//4
f 38//6 37//6 44//6
f 42//5 43//5 39//5
f 36//17 39//17 43//17
f 42//6 47//6 46//6
f 38//6 45//6 47//6
f 37//6 41//6 46//6
f 59//17 58//17 250//17
f 57//4 56//4 58//4
f 250//7 58//7 56//7
f 24//8 247//8 223//8
f 22//6 223//6 222//6
f 74//7 75//7 76//7
f 78//8 81//8 80//8
f 78//4 79//4 75//4
f 79//6 80//6 76//6
f 80//5 81//5 77//5
f 81//17 78//17 74//17
f 57//6 249//6 248//6
f 59//8 251//8 249//8
f 259//29 256//29 84//29
f 253//30 85//30 84//30
f 83//5 86//5 88//5
f 261//7 259//7 87//7
f 127//34 119//34 135//34
f 135//28 119//28 124//28
f 119//4 127//4 123//4
f 129//29 127//29 130//29
f 129//30 144//30 136//30
f 129//33 122//33 120//33
f 135//34 131//34 142//34
f 139//28 131//28 135//28
f 138//5 142//5 131//5
f 130//29 142//29 145//29
f 136//30 144//30 145//30
f 145//45 142//45 132//45
f 159//17 174//17 148//17
f 168//5 146//5 147//5
f 176//7 170//7 148//7
f 173//6 150//6 165//6
f 158//37 156//37 166//37
f 167//38 157//38 156//38
f 156//6 157//6 165//6
f 146//7 168//7 175//7
f 148//5 170//5 171//5
f 168//7 170//7 176//7
f 170//5 168//5 167//5
f 175//7 176//7 172//7
f 173//7 175//7 169//7
f 146//6 173//6 157//6
f 172//7 176//7 174//7
f 151//17 174//17 159//17
f 149//8 171//8 163//8
f 246//17 179//17 180//17
f 179//5 177//5 178//5
f 177//7 179//7 246//7
f 192//22 188//22 187//22
f 193//24 187//24 189//24
f 190//25 191//25 194//25
f 195//26 189//26 190//26
f 200//7 199//7 198//7
f 202//8 203//8 204//8
f 198//5 202//5 201//5
f 199//6 206//6 205//6
f 200//4 204//4 203//4
f 204//17 200//17 197//17
f 207//6 208//6 203//6
f 208//6 206//6 199//6
f 198//6 205//6 207//6
f 250//17 220//17 221//17
f 220//5 218//5 219//5
f 218//7 220//7 250//7
f 223//8 247//8 180//8
f 177//6 222//6 223//6
f 238//7 241//7 240//7
f 242//8 243//8 244//8
f 239//5 243//5 242//5
f 240//6 244//6 243//6
f 241//4 245//4 244//4
f 238//17 242//17 245//17
f 218//6 248//6 249//6
f 249//8 251//8 221//8
f 260//29 255//29 256//29
f 253//30 256//30 255//30
f 254//4 260//4 262//4
f 260//7 259//7 261//7
f 321//34 305//34 313//34
f 310//28 305//28 321//28
f 309//5 313//5 305//5
f 316//29 313//29 315//29
f 322//30 330//30 315//30
f 315//45 313//45 306//45
f 328//34 317//34 321//34
f 321//28 317//28 325//28
f 317//4 328//4 324//4
f 331//29 328//29 316//29
f 331//30 330//30 322//30
f 331//33 320//33 318//33
usemtl Glass
f 11//2 164//2 162//2
f 12//1 5//1 11//1
f 16//46 9//46 13//46
f 154//47 9//47 6//47
f 5//17 152//17 164//17
f 164//13 161//13 162//13
f 153//12 163//12 161//12
f 171//48 158//48 155//48
f 158//49 154//49 155//49
f 153//17 152//17 159//17
f 11//2 5//2 164//2
f 12//1 10//1 5//1
f 16//46 6//46 9//46
f 154//47 160//47 9//47
f 5//17 10//17 152//17
f 164//13 153//13 161//13
f 153//12 159//12 163//12
f 171//48 167//48 158//48
f 158//49 160//49 154//49
f 153//17 164//17 152//17
usemtl Engine1
f 45//50 51//50 47//50
f 44//51 49//51 45//51
f 47//52 50//52 46//52
f 44//53 50//53 48//53
f 48//6 53//6 49//6
f 50//6 55//6 54//6
f 50//6 52//6 48//6
f 51//6 53//6 55//6
f 212//53 206//53 208//53
f 210//51 205//51 206//51
f 211//52 208//52 207//52
f 209//50 207//50 205//50
f 214//6 209//6 210//6
f 211//6 216//6 212//6
f 213//6 211//6 209//6
f 212//6 214//6 210//6
f 45//50 49//50 51//50
f 44//51 48//51 49//51
f 47//52 51//52 50//52
f 44//53 46//53 50//53
f 48//6 52//6 53//6
f 50//6 51//6 55//6
f 50//6 54//6 52//6
f 51//6 49//6 53//6
f 212//53 210//53 206//53
f 210//51 209//51 205//51
f 211//52 212//52 208//52
f 209//50 211//50 207//50
f 214//6 213//6 209//6
f 211//6 215//6 216//6
f 213//6 215//6 211//6
f 212//6 216//6 214//6
usemtl Engine2
f 54//6 53//6 52//6
f 214//6 215//6 213//6
f 54//6 55//6 53//6
f 214//6 216//6 215//6
usemtl Primary.002
f 91//4 97//4 95//4
f 94//4 90//4 89//4
f 95//4 96//4 94//4
f 97//6 105//6 96//6
f 96//6 100//6 90//6
f 101//8 285//8 283//8
f 92//6 106//6 97//6
f 101//8 92//8 91//8
f 90//7 99//7 89//7
f 104//54 98//54 89//54
f 104//7 89//7 99//7
f 98//4 94//4 89//4
f 93//55 103//55 91//55
f 101//8 91//8 103//8
f 91//4 95//4 93//4
f 100//7 281//7 99//7
f 283//8 102//8 101//8
f 102//6 288//6 106//6
f 281//7 104//7 99//7
f 105//6 282//6 100//6
f 106//6 287//6 105//6
f 93//17 107//17 103//17
f 98//17 104//17 108//17
f 286//17 108//17 104//17
f 107//7 304//7 300//7
f 300//17 103//17 107//17
f 299//8 117//8 108//8
f 271//5 265//5 269//5
f 264//5 268//5 263//5
f 270//5 269//5 268//5
f 279//6 271//6 270//6
f 274//6 270//6 264//6
f 285//8 275//8 283//8
f 280//6 266//6 271//6
f 266//8 275//8 265//8
f 273//7 264//7 263//7
f 278//56 263//56 272//56
f 278//7 273//7 263//7
f 272//5 263//5 268//5
f 267//57 265//57 277//57
f 275//8 277//8 265//8
f 265//5 267//5 269//5
f 281//7 274//7 273//7
f 276//8 283//8 275//8
f 288//6 276//6 280//6
f 278//7 281//7 273//7
f 282//6 279//6 274//6
f 287//6 280//6 279//6
f 267//17 277//17 289//17
f 272//17 290//17 278//17
f 290//17 286//17 278//17
f 304//7 289//7 300//7
f 277//17 300//17 289//17
f 301//8 299//8 290//8
f 91//4 92//4 97//4
f 94//4 96//4 90//4
f 95//4 97//4 96//4
f 97//6 106//6 105//6
f 96//6 105//6 100//6
f 101//8 103//8 285//8
f 92//6 102//6 106//6
f 101//8 102//8 92//8
f 90//7 100//7 99//7
f 100//7 282//7 281//7
f 283//8 284//8 102//8
f 102//6 284//6 288//6
f 281//7 286//7 104//7
f 105//6 287//6 282//6
f 106//6 288//6 287//6
f 286//17 299//17 108//17
f 107//7 118//7 304//7
f 300//17 285//17 103//17
f 299//8 303//8 117//8
f 271//5 266//5 265//5
f 264//5 270//5 268//5
f 270//5 271//5 269//5
f 279//6 280//6 271//6
f 274//6 279//6 270//6
f 285//8 277//8 275//8
f 280//6 276//6 266//6
f 266//8 276//8 275//8
f 273//7 274//7 264//7
f 281//7 282//7 274//7
f 276//8 284//8 283//8
f 288//6 284//6 276//6
f 278//7 286//7 281//7
f 282//6 287//6 279//6
f 287//6 288//6 280//6
f 290//17 299//17 286//17
f 304//7 302//7 289//7
f 277//17 285//17 300//17
f 301//8 303//8 299//8
usemtl Detail2.001
f 94//4 93//4 95//4
f 113//8 112//8 114//8
f 109//17 112//17 110//17
f 115//4 110//4 113//4
f 116//7 109//7 115//7
f 116//5 112//5 111//5
f 108//5 114//5 116//5
f 108//7 115//7 98//7
f 98//4 113//4 93//4
f 93//8 114//8 107//8
f 117//17 304//17 118//17
f 108//5 118//5 107//5
f 267//5 268//5 269//5
f 294//8 295//8 296//8
f 294//17 291//17 292//17
f 292//5 297//5 295//5
f 291//7 298//7 297//7
f 298//4 294//4 296//4
f 290//4 296//4 289//4
f 297//7 290//7 272//7
f 295//5 272//5 267//5
f 296//8 267//8 289//8
f 302//17 303//17 301//17
f 302//4 290//4 289//4
f 94//4 98//4 93//4
f 113//8 110//8 112//8
f 109//17 111//17 112//17
f 115//4 109//4 110//4
f 116//7 111//7 109//7
f 116//5 114//5 112//5
f 108//5 107//5 114//5
f 108//7 116//7 115//7
f 98//4 115//4 113//4
f 93//8 113//8 114//8
f 117//17 303//17 304//17
f 108//5 117//5 118//5
f 267//5 272//5 268//5
f 294//8 292//8 295//8
f 294//17 293//17 291//17
f 292//5 291//5 297//5
f 291//7 293//7 298//7
f 298//4 293//4 294//4
f 290//4 298//4 296//4
f 297//7 298//7 290//7
f 295//5 297//5 272//5
f 296//8 295//8 267//8
f 302//17 304//17 303//17
f 302//4 301//4 290//4
l 172 217
