# Blender v2.76 (sub 0) OBJ File: 'Basic_Engine.blend'
# www.blender.org
mtllib Basic_Engine.mtl
o Engine_Cube.006
v -1.000000 -1.000000 1.000000
v -1.000000 -1.000000 -1.000000
v 1.000000 -1.000000 -1.000000
v 1.000000 -1.000000 1.000000
v -1.000000 1.000000 0.999999
v -0.999999 1.000000 -1.000001
v 1.000000 1.000000 -1.000000
v 1.000000 1.000000 1.000000
v -0.800000 -0.800000 -1.000000
v 0.800000 -0.800000 -1.000000
v -0.799999 0.800000 -1.000000
v 0.800000 0.800000 -1.000000
v -0.640000 -0.640000 -2.000000
v 0.640000 -0.640000 -2.000000
v -0.639999 0.640000 -2.000000
v 0.640001 0.640000 -2.000000
v -0.511999 -0.512000 -2.000000
v 0.512001 -0.512000 -2.000000
v 0.512001 0.512000 -2.000000
v -0.511999 0.512000 -2.000000
vn 0.987400 -0.000000 -0.158000
vn 0.000000 -0.000000 -1.000000
vn 0.000000 -0.987400 -0.158000
vn 0.000000 0.987400 -0.158000
vn -0.987400 0.000000 -0.158000
vn 0.000000 -1.000000 -0.000000
vn 0.000000 1.000000 0.000000
vn -1.000000 0.000000 -0.000000
vn 1.000000 -0.000000 0.000000
vn -0.000000 0.000000 1.000000
usemtl Engine_Primary
s off
f 10//1 14//1 16//1
f 14//2 13//2 17//2
f 10//3 9//3 13//3
f 11//4 12//4 16//4
f 11//5 15//5 13//5
f 14//2 18//2 19//2
f 15//2 16//2 19//2
f 15//2 20//2 17//2
f 12//1 10//1 16//1
f 18//2 14//2 17//2
f 14//3 10//3 13//3
f 15//4 11//4 16//4
f 9//5 11//5 13//5
f 16//2 14//2 19//2
f 20//2 15//2 19//2
f 13//2 15//2 17//2
usemtl Primary
f 2//6 3//6 4//6
f 8//7 7//7 6//7
f 5//8 6//8 2//8
f 3//2 2//2 9//2
f 3//9 7//9 8//9
f 1//10 4//10 8//10
f 7//2 12//2 11//2
f 3//2 10//2 12//2
f 6//2 11//2 9//2
f 1//6 2//6 4//6
f 5//7 8//7 6//7
f 1//8 5//8 2//8
f 10//2 3//2 9//2
f 4//9 3//9 8//9
f 5//10 1//10 8//10
f 6//2 7//2 11//2
f 7//2 3//2 12//2
f 2//2 6//2 9//2
usemtl Engine_Glow
f 20//2 19//2 18//2
f 17//2 20//2 18//2
