# Blender v2.76 (sub 0) OBJ File: 'Laser_Cannon.blend'
# www.blender.org
mtllib Laser_Cannon.mtl
o Laser_Cannon_Cube.010
v 0.500000 -0.500000 0.000000
v 0.500000 0.500000 0.000000
v 0.500000 -0.500000 1.000000
v 0.500000 0.500000 1.000000
v -0.500000 -0.500000 0.000000
v -0.500000 0.500000 0.000000
v -0.500000 -0.500000 1.000000
v -0.500000 0.500000 1.000000
v 0.400000 0.400000 1.000000
v 0.400000 -0.400000 1.000000
v -0.400000 0.400000 1.000000
v -0.400000 -0.400000 1.000000
v -0.400000 -0.400000 1.200001
v 0.400000 -0.400000 1.200001
v -0.400000 0.400000 1.200001
v 0.400000 0.400000 1.200001
v -0.500000 -0.500000 1.200001
v 0.500000 -0.500000 1.200001
v -0.500000 0.500000 1.200001
v 0.500000 0.500000 1.200001
v -0.500000 -0.500000 1.400001
v 0.500000 -0.500000 1.400001
v -0.500000 0.500000 1.400001
v 0.500000 0.500000 1.400001
v -0.400000 -0.400000 1.400001
v 0.400000 -0.400000 1.400001
v -0.400000 0.400000 1.400001
v 0.400000 0.400000 1.400001
v -0.400000 -0.400000 1.600001
v 0.400000 -0.400000 1.600001
v -0.400000 0.400000 1.600001
v 0.400000 0.400000 1.600001
v -0.500000 -0.500000 1.600001
v 0.500000 -0.500000 1.600001
v -0.500000 0.500000 1.600001
v 0.500000 0.500000 1.600001
v -0.500000 -0.500000 1.800001
v 0.500000 -0.500000 1.800001
v -0.500000 0.500000 1.800001
v 0.500000 0.500000 1.800001
v -0.400000 -0.400000 1.800001
v 0.400000 -0.400000 1.800001
v -0.400000 0.400000 1.800001
v 0.400000 0.400000 1.800001
v -0.400000 -0.400000 2.000001
v 0.400000 -0.400000 2.000001
v -0.400000 0.400000 2.000001
v 0.400000 0.400000 2.000001
v -0.500000 -0.500000 2.000001
v 0.500000 -0.500000 2.000001
v -0.500000 0.500000 2.000001
v 0.500000 0.500000 2.000001
v -0.500000 -0.500000 2.200001
v 0.500000 -0.500000 2.200001
v -0.500000 0.500000 2.200001
v 0.500000 0.500000 2.200001
v -0.400000 -0.400000 2.200001
v 0.400000 -0.400000 2.200001
v -0.400000 0.400000 2.200001
v 0.400000 0.400000 2.200001
v -0.400000 -0.400000 2.400000
v 0.400000 -0.400000 2.400000
v -0.400000 0.400000 2.400000
v 0.400000 0.400000 2.400000
v -0.500000 -0.500000 2.400000
v 0.500000 -0.500000 2.400000
v -0.500000 0.500000 2.400000
v 0.500000 0.500000 2.400000
v -0.500000 -0.500000 2.600000
v 0.500000 -0.500000 2.600000
v -0.500000 0.500000 2.600000
v 0.500000 0.500000 2.600000
v -0.400000 -0.400000 2.600000
v 0.400000 -0.400000 2.600000
v -0.400000 0.400000 2.600000
v 0.400000 0.400000 2.600000
v -0.400000 -0.400000 2.800000
v 0.400000 -0.400000 2.800000
v -0.400000 0.400000 2.800000
v 0.400000 0.400000 2.800000
v -0.500000 -0.500000 2.800000
v 0.500000 -0.500000 2.800000
v -0.500000 0.500000 2.800000
v 0.500000 0.500000 2.800000
v -0.500000 -0.500000 3.000000
v 0.500000 0.500000 3.000000
v 0.500000 -0.500000 3.000000
v -0.500000 0.500000 3.000000
v -0.400000 0.400000 3.000000
v -0.400000 -0.400000 3.000000
v 0.400000 -0.400000 3.000000
v 0.400000 0.400000 3.000000
v -0.400000 0.400000 3.200001
v -0.400000 -0.400000 3.200001
v 0.400000 -0.400000 3.200001
v 0.400000 0.400000 3.200001
v -0.500000 0.500000 3.200001
v -0.500000 -0.500000 3.200001
v 0.500000 -0.500000 3.200001
v 0.500000 0.500000 3.200001
v -0.500000 0.500000 3.400001
v -0.500000 -0.500000 3.400001
v 0.500000 -0.500000 3.400001
v 0.500000 0.500000 3.400001
v -0.400000 0.400000 3.400001
v -0.400000 -0.400000 3.400001
v 0.400000 -0.400000 3.400001
v 0.400000 0.400000 3.400001
v -0.400000 0.400000 3.600001
v -0.400000 -0.400000 3.600001
v 0.400000 -0.400000 3.600001
v 0.400000 0.400000 3.600001
v -0.500000 0.500000 3.600001
v -0.500000 -0.500000 3.600001
v 0.500000 -0.500000 3.600001
v 0.500000 0.500000 3.600001
v -0.500000 0.500000 3.800001
v -0.500000 -0.500000 3.800001
v 0.500000 -0.500000 3.800001
v 0.500000 0.500000 3.800001
v -0.400000 0.400000 3.800001
v -0.400000 -0.400000 3.800001
v 0.400000 -0.400000 3.800001
v 0.400000 0.400000 3.800001
v -0.400000 0.400000 5.000001
v -0.400000 -0.400000 5.000001
v 0.400000 -0.400000 5.000001
v 0.400000 0.400000 5.000001
v -0.320000 0.320000 5.000001
v -0.320000 -0.320000 5.000001
v 0.320000 -0.320000 5.000001
v 0.320000 0.320000 5.000001
vn 1.000000 0.000000 0.000000
vn 0.000000 0.000000 1.000000
vn -1.000000 0.000000 0.000000
vn 0.000000 -1.000000 0.000000
vn 0.000000 1.000000 0.000000
vn 0.000000 0.000000 -1.000000
usemtl Primary
s off
f 4//1 3//1 1//1
f 4//2 8//2 11//2
f 6//3 5//3 7//3
f 3//4 7//4 5//4
f 8//5 4//5 2//5
f 7//2 3//2 10//2
f 10//4 14//4 13//4
f 8//2 7//2 12//2
f 3//2 4//2 9//2
f 9//1 16//1 14//1
f 12//3 13//3 15//3
f 11//5 15//5 16//5
f 26//4 30//4 29//4
f 28//1 32//1 30//1
f 25//3 29//3 31//3
f 27//5 31//5 32//5
f 41//3 45//3 47//3
f 43//5 47//5 48//5
f 42//4 46//4 45//4
f 44//1 48//1 46//1
f 59//5 63//5 64//5
f 58//4 62//4 61//4
f 60//1 64//1 62//1
f 57//3 61//3 63//3
f 76//1 80//1 78//1
f 73//3 77//3 79//3
f 75//5 79//5 80//5
f 74//4 78//4 77//4
f 92//1 96//1 95//1
f 91//4 95//4 94//4
f 89//5 93//5 96//5
f 90//3 94//3 93//3
f 105//5 109//5 112//5
f 106//3 110//3 109//3
f 108//1 112//1 111//1
f 107//4 111//4 110//4
f 122//3 126//3 125//3
f 124//1 128//1 127//1
f 123//4 127//4 126//4
f 121//5 125//5 128//5
f 126//2 130//2 129//2
f 128//2 132//2 131//2
f 127//2 131//2 130//2
f 125//2 129//2 132//2
f 2//1 4//1 1//1
f 9//2 4//2 11//2
f 8//3 6//3 7//3
f 1//4 3//4 5//4
f 6//5 8//5 2//5
f 12//2 7//2 10//2
f 12//4 10//4 13//4
f 11//2 8//2 12//2
f 10//2 3//2 9//2
f 10//1 9//1 14//1
f 11//3 12//3 15//3
f 9//5 11//5 16//5
f 25//4 26//4 29//4
f 26//1 28//1 30//1
f 27//3 25//3 31//3
f 28//5 27//5 32//5
f 43//3 41//3 47//3
f 44//5 43//5 48//5
f 41//4 42//4 45//4
f 42//1 44//1 46//1
f 60//5 59//5 64//5
f 57//4 58//4 61//4
f 58//1 60//1 62//1
f 59//3 57//3 63//3
f 74//1 76//1 78//1
f 75//3 73//3 79//3
f 76//5 75//5 80//5
f 73//4 74//4 77//4
f 91//1 92//1 95//1
f 90//4 91//4 94//4
f 92//5 89//5 96//5
f 89//3 90//3 93//3
f 108//5 105//5 112//5
f 105//3 106//3 109//3
f 107//1 108//1 111//1
f 106//4 107//4 110//4
f 121//3 122//3 125//3
f 123//1 124//1 127//1
f 122//4 123//4 126//4
f 124//5 121//5 128//5
f 125//2 126//2 129//2
f 127//2 128//2 131//2
f 126//2 127//2 130//2
f 128//2 125//2 132//2
usemtl Secondary
f 2//6 1//6 5//6
f 14//6 16//6 20//6
f 19//5 23//5 24//5
f 15//6 13//6 17//6
f 16//6 15//6 19//6
f 13//6 14//6 18//6
f 24//2 23//2 27//2
f 18//4 22//4 21//4
f 20//1 24//1 22//1
f 17//3 21//3 23//3
f 21//2 22//2 26//2
f 22//2 24//2 28//2
f 23//2 21//2 25//2
f 30//6 32//6 36//6
f 35//5 39//5 40//5
f 31//6 29//6 33//6
f 32//6 31//6 35//6
f 29//6 30//6 34//6
f 38//2 40//2 44//2
f 34//4 38//4 37//4
f 36//1 40//1 38//1
f 33//3 37//3 39//3
f 39//2 37//2 41//2
f 40//2 39//2 43//2
f 37//2 38//2 42//2
f 48//6 47//6 51//6
f 52//1 56//1 54//1
f 45//6 46//6 50//6
f 46//6 48//6 52//6
f 47//6 45//6 49//6
f 56//2 55//2 59//2
f 49//3 53//3 55//3
f 51//5 55//5 56//5
f 50//4 54//4 53//4
f 53//2 54//2 58//2
f 54//2 56//2 60//2
f 55//2 53//2 57//2
f 62//6 64//6 68//6
f 67//5 71//5 72//5
f 63//6 61//6 65//6
f 64//6 63//6 67//6
f 61//6 62//6 66//6
f 69//2 70//2 74//2
f 66//4 70//4 69//4
f 68//1 72//1 70//1
f 65//3 69//3 71//3
f 70//2 72//2 76//2
f 71//2 69//2 73//2
f 72//2 71//2 75//2
f 80//6 79//6 83//6
f 77//6 78//6 82//6
f 78//6 80//6 84//6
f 79//6 77//6 81//6
f 88//2 89//2 92//2
f 82//4 87//4 85//4
f 83//5 88//5 86//5
f 81//3 85//3 88//3
f 84//1 86//1 87//1
f 88//2 85//2 90//2
f 86//2 92//2 91//2
f 87//2 91//2 90//2
f 94//6 95//6 99//6
f 97//5 101//5 104//5
f 93//6 97//6 100//6
f 94//6 98//6 97//6
f 96//6 100//6 99//6
f 104//2 108//2 107//2
f 98//3 102//3 101//3
f 100//1 104//1 103//1
f 99//4 103//4 102//4
f 103//2 107//2 106//2
f 101//2 105//2 108//2
f 101//2 102//2 106//2
f 109//6 113//6 116//6
f 116//1 120//1 119//1
f 110//6 114//6 113//6
f 112//6 116//6 115//6
f 110//6 111//6 115//6
f 117//2 121//2 124//2
f 115//4 119//4 118//4
f 113//5 117//5 120//5
f 114//3 118//3 117//3
f 117//2 118//2 122//2
f 120//2 124//2 123//2
f 119//2 123//2 122//2
f 6//6 2//6 5//6
f 18//6 14//6 20//6
f 20//5 19//5 24//5
f 19//6 15//6 17//6
f 20//6 16//6 19//6
f 17//6 13//6 18//6
f 28//2 24//2 27//2
f 17//4 18//4 21//4
f 18//1 20//1 22//1
f 19//3 17//3 23//3
f 25//2 21//2 26//2
f 26//2 22//2 28//2
f 27//2 23//2 25//2
f 34//6 30//6 36//6
f 36//5 35//5 40//5
f 35//6 31//6 33//6
f 36//6 32//6 35//6
f 33//6 29//6 34//6
f 42//2 38//2 44//2
f 33//4 34//4 37//4
f 34//1 36//1 38//1
f 35//3 33//3 39//3
f 43//2 39//2 41//2
f 44//2 40//2 43//2
f 41//2 37//2 42//2
f 52//6 48//6 51//6
f 50//1 52//1 54//1
f 49//6 45//6 50//6
f 50//6 46//6 52//6
f 51//6 47//6 49//6
f 60//2 56//2 59//2
f 51//3 49//3 55//3
f 52//5 51//5 56//5
f 49//4 50//4 53//4
f 57//2 53//2 58//2
f 58//2 54//2 60//2
f 59//2 55//2 57//2
f 66//6 62//6 68//6
f 68//5 67//5 72//5
f 67//6 63//6 65//6
f 68//6 64//6 67//6
f 65//6 61//6 66//6
f 73//2 69//2 74//2
f 65//4 66//4 69//4
f 66//1 68//1 70//1
f 67//3 65//3 71//3
f 74//2 70//2 76//2
f 75//2 71//2 73//2
f 76//2 72//2 75//2
f 84//6 80//6 83//6
f 81//6 77//6 82//6
f 82//6 78//6 84//6
f 83//6 79//6 81//6
f 86//2 88//2 92//2
f 81//4 82//4 85//4
f 84//5 83//5 86//5
f 83//3 81//3 88//3
f 82//1 84//1 87//1
f 89//2 88//2 90//2
f 87//2 86//2 91//2
f 85//2 87//2 90//2
f 98//6 94//6 99//6
f 100//5 97//5 104//5
f 96//6 93//6 100//6
f 93//6 94//6 97//6
f 95//6 96//6 99//6
f 103//2 104//2 107//2
f 97//3 98//3 101//3
f 99//1 100//1 103//1
f 98//4 99//4 102//4
f 102//2 103//2 106//2
f 104//2 101//2 108//2
f 105//2 101//2 106//2
f 112//6 109//6 116//6
f 115//1 116//1 119//1
f 109//6 110//6 113//6
f 111//6 112//6 115//6
f 114//6 110//6 115//6
f 120//2 117//2 124//2
f 114//4 115//4 118//4
f 116//5 113//5 120//5
f 113//3 114//3 117//3
f 121//2 117//2 122//2
f 119//2 120//2 123//2
f 118//2 119//2 122//2
usemtl Cannon_Glow
f 132//2 129//2 130//2
f 131//2 132//2 130//2
