# Blender v2.76 (sub 0) OBJ File: ''
# www.blender.org
mtllib Nose_Mount.mtl
o NoseGun_Cube.007
v -1.000000 -1.000000 -0.000000
v -0.500000 -0.500000 3.500000
v -0.500000 0.500000 3.499999
v -1.000000 1.000000 -0.000001
v -0.500000 -1.000000 -0.000000
v -0.500000 0.000000 4.000000
v -0.500000 0.000000 -0.000000
v 1.000000 -1.000000 -0.000000
v 0.000000 1.000000 0.000000
v 0.500000 -0.500000 3.500000
v 0.500000 0.500000 3.499999
v 0.000000 0.500000 3.499999
v 1.000000 1.000000 -0.000001
v 0.500000 -1.000000 -0.000000
v 0.000000 0.000000 4.000000
v 0.500000 0.000000 4.000000
v 0.000000 0.000000 -0.000000
v 0.500000 0.000000 -0.000000
vn -0.973300 0.162200 0.162200
vn 0.000000 -0.989900 0.141400
vn 0.000000 0.707100 0.707100
vn -0.000000 0.989900 0.141400
vn 1.000000 0.000000 0.000000
vn 0.000000 -1.000000 0.000000
vn -0.973300 -0.162200 0.162200
vn -0.992300 -0.000000 0.124000
vn 0.000000 0.000000 -1.000000
vn 0.973300 0.162200 0.162200
vn -1.000000 0.000000 0.000000
vn 0.973300 -0.162200 0.162200
vn 0.992300 -0.000000 0.124000
usemtl Primary
s off
f 3//1 4//1 6//1
f 1//2 5//2 2//2
f 12//3 3//3 6//3
f 9//4 4//4 3//4
f 2//5 5//5 7//5
f 17//6 15//6 6//6
f 2//7 6//7 1//7
f 1//8 6//8 4//8
f 9//9 17//9 7//9
f 1//9 4//9 7//9
f 11//10 16//10 13//10
f 8//2 10//2 14//2
f 16//3 11//3 12//3
f 9//4 12//4 11//4
f 10//11 16//11 18//11
f 16//6 15//6 17//6
f 10//12 8//12 16//12
f 8//13 13//13 16//13
f 18//9 17//9 9//9
f 18//9 13//9 8//9
f 15//3 12//3 6//3
f 12//4 9//4 3//4
f 6//5 2//5 7//5
f 7//6 17//6 6//6
f 4//9 9//9 7//9
f 5//9 1//9 7//9
f 15//3 16//3 12//3
f 13//4 9//4 11//4
f 14//11 10//11 18//11
f 18//6 16//6 17//6
f 13//9 18//9 9//9
f 14//9 18//9 8//9
