# Blender v2.77 (sub 0) OBJ File: ''
# www.blender.org
mtllib Ship_Outside.mtl
o Ship_Outside_Cube
v -1.500000 -1.500000 1.500000
v -1.500000 -1.500000 -7.500000
v 1.500000 -1.500000 -7.500000
v 1.499999 -1.500000 1.500000
v -1.499999 1.500000 -7.500001
v 1.500000 1.500000 1.500000
v 1.500000 1.500000 4.500000
v -1.500000 -1.000000 1.500000
v -1.500000 1.000000 1.500000
v -1.500000 -1.000000 -7.500000
v -1.499999 1.000000 -7.500001
v 1.500000 -1.000000 1.500000
v 1.500000 1.000000 1.500000
v -1.500000 1.000000 4.499999
v 1.500000 1.000000 4.500000
v 1.499999 -1.500000 3.000000
v -1.500000 -1.500000 3.000000
v 1.500000 1.500000 3.000000
v 1.500000 -1.000000 3.000000
v 1.500000 1.000000 3.000000
v -1.500000 1.000000 2.999999
v -1.500000 -1.000000 3.000000
v -1.433334 -1.000000 4.400000
v 1.399999 -1.000000 3.000000
v -1.400000 -1.000000 3.000000
v -1.433334 1.000000 4.400000
v 1.399999 1.000000 3.000000
v -1.400000 1.000000 3.000000
v -1.500000 1.500000 1.500000
v 1.500000 1.500000 -7.500000
v -1.500000 -1.500000 4.500000
v 1.499999 -1.500000 4.500000
v -1.500000 1.500000 4.500000
v -1.500000 -1.000000 4.500000
v 1.499999 -1.000000 4.500000
v -1.500000 1.500000 2.999999
v 1.433332 -1.000000 4.400000
v 1.433332 1.000000 4.400000
v 1.500000 -1.000000 -7.500000
v -1.000000 -1.000000 -7.500000
v 1.000000 -1.000000 -7.500000
v 0.800000 0.800000 -7.400000
v 1.500000 1.000000 -7.500000
v -1.000000 1.000000 -7.500000
v 1.000000 1.000000 -7.500000
v -0.800000 0.800000 -7.400000
v 0.800000 -0.800000 -7.400000
v -0.800000 -0.800000 -7.400000
vn -1.0000 0.0000 -0.0000
vn 1.0000 0.0000 0.0000
vn 0.0000 1.0000 0.0000
vn 0.0000 -1.0000 0.0000
vn 0.0000 0.0000 1.0000
vn 0.0000 -0.0000 -1.0000
vn 0.0000 0.4472 -0.8944
vn 0.4472 0.0000 -0.8944
vn 0.0000 -0.4472 -0.8944
vn -0.4472 0.0000 -0.8944
vn 0.9997 0.0000 -0.0238
vn -0.9997 0.0000 -0.0238
usemtl Material
s off
f 29//1 11//1 9//1
f 30//2 13//2 43//2
f 17//1 34//1 22//1
f 18//2 15//2 20//2
f 19//2 32//2 16//2
f 19//3 37//3 35//3
f 36//1 14//1 33//1
f 22//3 23//3 25//3
f 39//2 4//2 3//2
f 43//2 12//2 39//2
f 8//1 2//1 1//1
f 9//1 10//1 8//1
f 8//1 21//1 9//1
f 9//1 36//1 29//1
f 13//2 19//2 12//2
f 4//2 19//2 16//2
f 13//2 18//2 20//2
f 1//1 22//1 8//1
f 21//4 26//4 14//4
f 38//4 20//4 15//4
f 27//5 19//5 20//5
f 25//5 21//5 22//5
f 14//4 38//4 15//4
f 4//4 17//4 1//4
f 6//3 36//3 18//3
f 35//3 23//3 34//3
f 33//5 15//5 7//5
f 18//3 33//3 7//3
f 31//5 35//5 34//5
f 17//4 32//4 31//4
f 6//3 5//3 29//3
f 1//4 3//4 4//4
f 3//6 40//6 41//6
f 2//6 10//6 40//6
f 3//6 41//6 39//6
f 41//7 48//7 47//7
f 10//6 44//6 40//6
f 41//6 43//6 39//6
f 45//6 5//6 30//6
f 44//6 11//6 5//6
f 43//6 45//6 30//6
f 40//8 46//8 48//8
f 44//9 42//9 46//9
f 41//10 42//10 45//10
f 29//1 5//1 11//1
f 30//2 6//2 13//2
f 17//1 31//1 34//1
f 18//2 7//2 15//2
f 19//2 35//2 32//2
f 19//3 24//3 37//3
f 36//1 21//1 14//1
f 22//3 34//3 23//3
f 39//2 12//2 4//2
f 43//2 13//2 12//2
f 8//1 10//1 2//1
f 9//1 11//1 10//1
f 8//1 22//1 21//1
f 9//1 21//1 36//1
f 13//2 20//2 19//2
f 4//2 12//2 19//2
f 13//2 6//2 18//2
f 1//1 17//1 22//1
f 21//4 28//4 26//4
f 38//4 27//4 20//4
f 27//5 24//5 19//5
f 25//5 28//5 21//5
f 14//4 26//4 38//4
f 4//4 16//4 17//4
f 6//3 29//3 36//3
f 35//3 37//3 23//3
f 33//5 14//5 15//5
f 18//3 36//3 33//3
f 31//5 32//5 35//5
f 17//4 16//4 32//4
f 6//3 30//3 5//3
f 1//4 2//4 3//4
f 3//6 2//6 40//6
f 41//7 40//7 48//7
f 10//6 11//6 44//6
f 41//6 45//6 43//6
f 45//6 44//6 5//6
f 40//8 44//8 46//8
f 44//9 45//9 42//9
f 41//10 47//10 42//10
usemtl Material.001
f 24//11 38//11 37//11
f 23//12 28//12 25//12
f 37//5 26//5 23//5
f 48//6 42//6 47//6
f 24//11 27//11 38//11
f 23//12 26//12 28//12
f 37//5 38//5 26//5
f 48//6 46//6 42//6
l 2 5
l 3 30
