# Blender v2.76 (sub 0) OBJ File: 'Ship_Cobra.blend'
# www.blender.org
mtllib Ship_Cobra.mtl
o Cube_Cube.011
v -0.250000 -0.250000 3.250000
v -0.500000 0.000000 1.500000
v -0.500000 -0.500000 1.500000
v -0.500000 0.500000 1.500000
v -0.250000 0.000000 1.500000
v -0.250000 -0.500000 1.500000
v -0.250000 0.500000 1.500000
v -0.500000 -0.250000 1.500000
v -0.250000 0.000000 3.500000
v -0.250000 -0.250000 1.500000
v -0.250000 0.250000 3.250000
v 0.000000 0.000000 3.500000
v 0.250000 -0.250000 3.250000
v 0.500000 0.000000 1.500000
v 0.500000 -0.500000 1.500000
v 0.500000 0.500000 1.500000
v 0.000000 -0.250000 3.250000
v 0.000000 0.500000 1.500000
v 0.000000 -0.500000 1.500000
v 0.250000 0.000000 1.500000
v 0.250000 -0.500000 1.500000
v 0.250000 0.500000 1.500000
v 0.500000 -0.250000 1.500000
v 0.250000 0.000000 3.500000
v 0.250000 -0.250000 1.500000
v 0.000000 0.250000 3.250000
v 0.250000 0.250000 3.250000
vn -0.989900 0.000000 0.141400
vn 0.000000 -0.989900 0.141400
vn 0.000000 -0.707100 0.707100
vn -1.000000 0.000000 0.000000
vn 0.000000 1.000000 0.000000
vn 0.000000 -1.000000 0.000000
vn 0.000000 0.707100 0.707100
vn 0.000000 0.989900 0.141400
vn 0.989900 0.000000 0.141400
vn 1.000000 0.000000 0.000000
vn 0.984700 0.123100 0.123100
vn -0.984700 0.123100 0.123100
usemtl Primary
s off
f 1//1 8//1 3//1
f 6//2 1//2 3//2
f 9//3 1//3 17//3
f 17//2 1//2 6//2
f 1//4 9//4 5//4
f 1//5 10//5 8//5
f 2//6 5//6 9//6
f 11//7 9//7 12//7
f 11//8 26//8 18//8
f 4//8 11//8 7//8
f 11//1 4//1 2//1
f 13//9 15//9 23//9
f 21//2 15//2 13//2
f 17//3 13//3 24//3
f 21//2 13//2 17//2
f 20//10 24//10 13//10
f 13//5 23//5 25//5
f 14//6 24//6 20//6
f 12//7 24//7 27//7
f 18//8 26//8 27//8
f 16//8 22//8 27//8
f 27//11 24//11 14//11
f 12//3 9//3 17//3
f 19//2 17//2 6//2
f 10//4 1//4 5//4
f 26//7 11//7 12//7
f 7//8 11//8 18//8
f 9//12 11//12 2//12
f 12//3 17//3 24//3
f 19//2 21//2 17//2
f 25//10 20//10 13//10
f 26//7 12//7 27//7
f 22//8 18//8 27//8
f 16//9 27//9 14//9
o Cockpit_Inside_Cube.010
v -0.400000 0.500000 1.400000
v -0.400000 0.500000 -0.400000
v -0.400000 -0.450000 1.400000
v -0.400000 -0.450000 -0.400000
v -0.163470 0.196167 0.909767
v -0.163470 0.403133 0.965223
v -0.163470 0.199883 0.895898
v -0.163470 0.406849 0.951354
v -0.178470 0.185394 0.892016
v -0.178470 0.421338 0.955237
v -0.178470 0.161664 0.980577
v -0.178470 0.397608 1.043798
v -0.385418 0.050000 0.969216
v -0.385418 0.350000 0.969216
v -0.385418 0.050000 1.369216
v -0.385418 0.350000 1.369216
v -0.192709 0.450000 1.369216
v -0.192709 0.050000 1.369216
v -0.192709 0.450000 0.969216
v -0.192709 0.050000 0.969216
v 0.400000 0.500000 1.400000
v 0.400000 0.500000 -0.400000
v 0.000000 0.500000 -0.400000
v 0.400000 -0.450000 1.400000
v 0.000000 -0.450000 -0.400000
v 0.400000 -0.450000 -0.400000
v 0.163470 0.196167 0.909767
v 0.000000 0.196167 0.909767
v 0.163470 0.403133 0.965223
v 0.000000 0.403133 0.965223
v 0.163470 0.199883 0.895898
v 0.000000 0.199883 0.895898
v 0.163470 0.406849 0.951354
v 0.000000 0.406849 0.951354
v 0.178470 0.185394 0.892016
v 0.178470 0.421338 0.955237
v 0.178470 0.161664 0.980577
v 0.178470 0.397608 1.043798
v 0.000000 0.185394 0.892016
v 0.000000 0.421338 0.955237
v 0.000000 0.161664 0.980577
v 0.000000 0.397608 1.043798
v 0.000000 0.050000 0.969216
v 0.000000 0.450000 0.969216
v 0.000000 0.050000 1.369216
v 0.000000 0.450000 1.369216
v 0.385418 0.050000 0.969216
v 0.385418 0.350000 0.969216
v 0.385418 0.050000 1.369216
v 0.385418 0.350000 1.369216
v 0.192709 0.450000 1.369216
v 0.192709 0.050000 1.369216
v 0.192709 0.450000 0.969216
v 0.192709 0.050000 0.969216
v 0.000000 0.500000 1.400000
v 0.000000 -0.450000 1.400000
vn 1.000000 0.000000 0.000000
vn 0.000000 -0.965900 -0.258800
vn 0.000000 0.258800 -0.965900
vn -1.000000 -0.000000 0.000000
vn 0.000000 0.965900 0.258800
vn 0.000000 0.000000 1.000000
vn 0.000000 0.000000 -1.000000
vn 0.000000 -1.000000 0.000000
vn 0.000000 1.000000 0.000000
vn -0.460600 0.887600 0.000000
vn 0.460600 0.887600 0.000000
usemtl Material.001
s off
f 28//13 30//13 31//13
f 35//13 33//13 32//13
f 57//14 33//14 35//14
f 67//15 61//15 35//15
f 34//15 59//15 66//15
f 36//16 38//16 39//16
f 66//14 68//14 38//14
f 35//15 34//15 36//15
f 32//17 55//17 59//17
f 37//17 39//17 69//17
f 43//18 42//18 45//18
f 71//19 70//19 47//19
f 45//20 42//20 40//20
f 44//21 73//21 71//21
f 43//22 44//22 46//22
f 72//20 45//20 47//20
f 41//19 46//19 47//19
f 44//18 45//18 72//18
f 82//19 83//19 30//19
f 29//18 31//18 52//18
f 83//21 52//21 31//21
f 53//16 51//16 48//16
f 60//16 58//16 54//16
f 60//14 56//14 57//14
f 67//15 63//15 60//15
f 66//15 59//15 58//15
f 65//13 64//13 62//13
f 64//14 68//14 66//14
f 62//15 58//15 60//15
f 59//17 55//17 54//17
f 69//17 65//17 63//17
f 79//18 76//18 77//18
f 81//19 70//19 71//19
f 74//20 76//20 79//20
f 71//21 73//21 78//21
f 80//23 78//23 77//23
f 81//20 79//20 72//20
f 75//19 74//19 81//19
f 72//18 79//18 78//18
f 51//19 83//19 82//19
f 52//18 53//18 49//18
f 53//21 52//21 83//21
f 29//13 28//13 31//13
f 34//13 35//13 32//13
f 61//14 57//14 35//14
f 37//15 67//15 35//15
f 36//15 34//15 66//15
f 37//16 36//16 39//16
f 36//14 66//14 38//14
f 37//15 35//15 36//15
f 34//17 32//17 59//17
f 67//17 37//17 69//17
f 44//18 43//18 45//18
f 46//19 71//19 47//19
f 47//20 45//20 40//20
f 46//21 44//21 71//21
f 41//22 43//22 46//22
f 70//20 72//20 47//20
f 40//19 41//19 47//19
f 73//18 44//18 72//18
f 28//19 82//19 30//19
f 50//18 29//18 52//18
f 30//21 83//21 31//21
f 49//16 53//16 48//16
f 56//16 60//16 54//16
f 61//14 60//14 57//14
f 61//15 67//15 60//15
f 62//15 66//15 58//15
f 63//13 65//13 62//13
f 62//14 64//14 66//14
f 63//15 62//15 60//15
f 58//17 59//17 54//17
f 67//17 69//17 63//17
f 78//18 79//18 77//18
f 80//19 81//19 71//19
f 81//20 74//20 79//20
f 80//21 71//21 78//21
f 75//23 80//23 77//23
f 70//20 81//20 72//20
f 80//19 75//19 81//19
f 73//18 72//18 78//18
f 48//19 51//19 82//19
f 50//18 52//18 49//18
f 51//21 53//21 83//21
usemtl Material.002
f 55//15 32//15 33//15
f 56//15 54//15 55//15
f 57//15 55//15 33//15
f 57//15 56//15 55//15
o TailFin_Cube.009
v -0.050000 1.500000 -2.500000
v -0.050000 0.500000 -2.500000
v -0.050000 0.500000 -1.500000
v 0.050000 1.500000 -2.500000
v 0.050000 0.500000 -2.500000
v 0.050000 0.500000 -1.500000
vn -1.000000 0.000000 -0.000000
vn 0.000000 0.707100 0.707100
vn 0.000000 -0.000000 -1.000000
vn 1.000000 0.000000 -0.000000
usemtl Secondary
s off
f 84//24 85//24 86//24
f 84//25 86//25 89//25
f 84//26 87//26 88//26
f 87//27 89//27 88//27
f 87//25 84//25 89//25
f 85//26 84//26 88//26
o Wing1_Cube.008
v -2.500000 -0.050000 -2.000000
v -2.500000 0.050000 -2.000000
v -0.500000 -0.050000 -2.500001
v -0.500000 0.050000 -2.500001
v -0.500000 0.050000 0.500000
v -0.500000 -0.050000 0.500000
v 2.500000 -0.050000 -2.000000
v 2.500000 0.050000 -2.000000
v 0.500000 -0.050000 -2.500001
v 0.500000 0.050000 -2.500001
v 0.500000 0.050000 0.500000
v 0.500000 -0.050000 0.500000
vn -0.780900 -0.000000 0.624700
vn 0.000000 -1.000000 -0.000000
vn 0.000000 1.000000 0.000000
vn -0.242500 -0.000000 -0.970100
vn 0.780900 -0.000000 0.624700
vn 0.242500 -0.000000 -0.970100
usemtl Secondary
s off
f 90//28 95//28 94//28
f 90//29 92//29 95//29
f 93//30 91//30 94//30
f 90//31 91//31 93//31
f 96//32 97//32 100//32
f 96//29 101//29 98//29
f 99//30 100//30 97//30
f 96//33 98//33 99//33
f 91//28 90//28 94//28
f 92//31 90//31 93//31
f 101//32 96//32 100//32
f 97//33 96//33 99//33
o ReactorCube_Cube.005
v -0.500000 -0.500000 -1.500000
v -0.500000 0.500000 -1.500000
v -0.500000 -0.500000 -0.500000
v -0.500000 0.500000 -0.500000
v 0.500000 -0.500000 -1.500000
v 0.500000 0.500000 -1.500000
v 0.000000 -0.500000 -1.500000
v 0.000000 0.500000 -1.500000
v 0.500000 -0.500000 -0.500000
v 0.500000 0.500000 -0.500000
v 0.000000 0.500000 -0.500000
v 0.000000 -0.500000 -0.500000
vn 0.000000 1.000000 0.000000
vn -0.000000 0.000000 1.000000
vn -1.000000 -0.000000 -0.000000
vn 0.000000 -1.000000 0.000000
vn 0.000000 -0.000000 -1.000000
vn 1.000000 -0.000000 -0.000000
usemtl Primary
s off
f 109//34 103//34 105//34
f 112//35 105//35 104//35
f 102//36 104//36 105//36
f 108//37 113//37 104//37
f 102//38 103//38 109//38
f 109//34 112//34 111//34
f 110//35 111//35 112//35
f 111//39 110//39 106//39
f 110//37 113//37 108//37
f 106//38 108//38 109//38
f 112//34 109//34 105//34
f 113//35 112//35 104//35
f 103//36 102//36 105//36
f 102//37 108//37 104//37
f 108//38 102//38 109//38
f 107//34 109//34 111//34
f 113//35 110//35 112//35
f 107//39 111//39 106//39
f 106//37 110//37 108//37
f 107//38 106//38 109//38
o Canopy__Outside_Cube.001
v -0.464582 0.500000 -0.480784
v -0.268764 0.875000 -0.122947
v -0.318764 0.875000 -0.172947
v -0.268764 0.875000 -0.172947
v -0.318764 0.875000 -0.122947
v -0.464582 0.500000 -0.430784
v -0.414582 0.500000 -0.480784
v -0.333346 0.837500 -0.203730
v -0.450000 0.537500 -0.450000
v -0.333346 0.837500 -0.153730
v -0.450000 0.537500 -0.400000
v -0.283346 0.837500 -0.203730
v -0.400000 0.537500 -0.450000
v -0.283346 0.837500 -0.178730
v -0.400000 0.537500 -0.425000
v -0.308346 0.837500 -0.153730
v -0.464582 0.500000 1.480783
v -0.268764 0.875000 1.122947
v -0.318764 0.875000 1.172947
v -0.268764 0.875000 1.172947
v -0.318764 0.875000 1.122947
v -0.464582 0.500000 1.430784
v -0.414582 0.500000 1.480783
v -0.333346 0.837500 1.203730
v -0.450000 0.537500 1.450000
v -0.333346 0.837500 1.153730
v -0.450000 0.537500 1.400000
v -0.283346 0.837500 1.203730
v -0.400000 0.537500 1.450000
v -0.283346 0.837500 1.178730
v -0.400000 0.537500 1.425000
v -0.425000 0.537500 -0.400000
v -0.425000 0.537500 1.400000
v -0.308346 0.837500 1.153730
v 0.464582 0.500000 -0.480784
v 0.268764 0.875000 -0.122947
v 0.318764 0.875000 -0.172947
v 0.268764 0.875000 -0.172947
v 0.318764 0.875000 -0.122947
v 0.464582 0.500000 -0.430784
v 0.414582 0.500000 -0.480784
v 0.333346 0.837500 -0.203730
v 0.450000 0.537500 -0.450000
v 0.333346 0.837500 -0.153730
v 0.450000 0.537500 -0.400000
v 0.283346 0.837500 -0.203730
v 0.000000 0.837500 -0.203730
v 0.000000 0.875000 -0.172947
v 0.000000 0.537500 -0.450000
v 0.000000 0.500000 -0.480784
v 0.400000 0.537500 -0.450000
v 0.283346 0.837500 -0.178730
v 0.000000 0.837500 -0.178730
v 0.000000 0.537500 -0.425000
v 0.400000 0.537500 -0.425000
v 0.308346 0.837500 -0.153730
v 0.000000 0.875000 1.122947
v 0.464582 0.500000 1.480783
v 0.268764 0.875000 1.122947
v 0.318764 0.875000 1.172947
v 0.268764 0.875000 1.172947
v 0.318764 0.875000 1.122947
v 0.464582 0.500000 1.430784
v 0.414582 0.500000 1.480783
v 0.333346 0.837500 1.203730
v 0.450000 0.537500 1.450000
v 0.333346 0.837500 1.153730
v 0.450000 0.537500 1.400000
v 0.283346 0.837500 1.203730
v 0.000000 0.837500 1.203730
v 0.000000 0.875000 1.172947
v 0.000000 0.537500 1.450000
v 0.000000 0.500000 1.480783
v 0.400000 0.537500 1.450000
v 0.283346 0.837500 1.178730
v 0.000000 0.837500 1.178730
v 0.000000 0.537500 1.425000
v 0.400000 0.537500 1.425000
v 0.000000 0.875000 -0.122947
v 0.425000 0.537500 -0.400000
v 0.425000 0.537500 1.400000
v 0.308346 0.837500 1.153730
vn 0.000000 0.634500 -0.772900
vn -0.932000 0.362400 0.000000
vn 0.000000 1.000000 0.000000
vn 0.932000 -0.362400 0.000000
vn 0.000000 -1.000000 0.000000
vn 0.000000 0.634500 0.772900
vn 0.000000 -0.634500 -0.772900
vn 0.000000 -0.634500 0.772900
vn 0.932000 0.362400 0.000000
vn -0.932000 -0.362400 0.000000
usemtl Secondary
s off
f 116//40 117//40 125//40
f 122//41 114//41 119//41
f 116//42 118//42 115//42
f 116//41 121//41 123//41
f 122//40 126//40 120//40
f 135//41 140//41 124//41
f 117//40 161//40 160//40
f 126//40 162//40 163//40
f 121//41 122//41 124//41
f 126//40 122//40 121//40
f 125//43 127//43 128//43
f 126//42 128//42 167//42
f 160//44 166//44 127//44
f 134//42 131//42 115//42
f 141//45 133//45 132//45
f 138//41 140//41 135//41
f 131//42 134//42 132//42
f 132//41 134//41 139//41
f 136//45 142//45 138//45
f 183//45 184//45 133//45
f 186//45 185//45 142//45
f 140//41 138//41 137//41
f 142//45 141//45 137//45
f 144//43 143//43 141//43
f 190//42 144//42 142//42
f 143//44 189//44 183//44
f 139//41 134//41 118//41
f 139//46 147//46 146//46
f 146//42 145//42 124//42
f 123//47 124//47 145//47
f 129//44 147//44 139//44
f 115//42 192//42 161//42
f 184//42 170//42 131//42
f 131//42 170//42 192//42
f 159//40 151//40 150//40
f 156//48 158//48 153//48
f 149//42 152//42 150//42
f 150//48 152//48 157//48
f 154//40 164//40 156//40
f 158//48 181//48 176//48
f 160//40 161//40 151//40
f 163//40 162//40 164//40
f 158//48 156//48 155//48
f 164//40 159//40 155//40
f 168//49 165//49 159//49
f 167//42 168//42 164//42
f 165//44 166//44 160//44
f 149//42 172//42 175//42
f 173//45 174//45 182//45
f 179//48 171//48 176//48
f 173//42 175//42 172//42
f 173//48 178//48 180//48
f 179//45 187//45 177//45
f 174//45 184//45 183//45
f 187//45 185//45 186//45
f 178//48 179//48 181//48
f 187//45 179//45 178//45
f 182//49 188//49 191//49
f 187//42 191//42 190//42
f 183//44 189//44 188//44
f 152//48 175//48 180//48
f 180//46 181//46 194//46
f 158//42 193//42 194//42
f 157//47 169//47 193//47
f 180//44 195//44 169//44
f 161//42 192//42 149//42
f 172//42 170//42 184//42
f 192//42 170//42 172//42
f 121//40 116//40 125//40
f 124//41 122//41 119//41
f 117//42 116//42 115//42
f 118//41 116//41 123//41
f 114//40 122//40 120//40
f 119//41 135//41 124//41
f 125//40 117//40 160//40
f 120//40 126//40 163//40
f 123//41 121//41 124//41
f 125//40 126//40 121//40
f 126//43 125//43 128//43
f 162//42 126//42 167//42
f 125//44 160//44 127//44
f 118//42 134//42 115//42
f 137//45 141//45 132//45
f 130//41 138//41 135//41
f 133//42 131//42 132//42
f 137//41 132//41 139//41
f 130//45 136//45 138//45
f 141//45 183//45 133//45
f 136//45 186//45 142//45
f 139//41 140//41 137//41
f 138//45 142//45 137//45
f 142//43 144//43 141//43
f 185//42 190//42 142//42
f 141//44 143//44 183//44
f 123//41 139//41 118//41
f 140//46 139//46 146//46
f 140//42 146//42 124//42
f 129//47 123//47 145//47
f 123//44 129//44 139//44
f 117//42 115//42 161//42
f 133//42 184//42 131//42
f 115//42 131//42 192//42
f 155//40 159//40 150//40
f 148//48 156//48 153//48
f 151//42 149//42 150//42
f 155//48 150//48 157//48
f 148//40 154//40 156//40
f 153//48 158//48 176//48
f 159//40 160//40 151//40
f 154//40 163//40 164//40
f 157//48 158//48 155//48
f 156//40 164//40 155//40
f 164//49 168//49 159//49
f 162//42 167//42 164//42
f 159//44 165//44 160//44
f 152//42 149//42 175//42
f 178//45 173//45 182//45
f 181//48 179//48 176//48
f 174//42 173//42 172//42
f 175//48 173//48 180//48
f 171//45 179//45 177//45
f 182//45 174//45 183//45
f 177//45 187//45 186//45
f 180//48 178//48 181//48
f 182//45 187//45 178//45
f 187//49 182//49 191//49
f 185//42 187//42 190//42
f 182//44 183//44 188//44
f 157//48 152//48 180//48
f 195//46 180//46 194//46
f 181//42 158//42 194//42
f 158//47 157//47 193//47
f 157//44 180//44 169//44
f 151//42 161//42 149//42
f 174//42 172//42 184//42
f 149//42 192//42 172//42
usemtl Glass
f 167//40 128//40 127//40
f 143//45 144//45 190//45
f 147//41 129//41 145//41
f 165//40 168//40 167//40
f 190//45 191//45 188//45
f 194//48 193//48 169//48
f 166//40 167//40 127//40
f 189//45 143//45 190//45
f 146//41 147//41 145//41
f 166//40 165//40 167//40
f 189//45 190//45 188//45
f 195//48 194//48 169//48
o Cockpit_Outside_Cube
v -0.500000 -0.500000 1.500000
v -0.500000 0.500000 1.500000
v -0.400000 0.500000 1.400000
v -0.500000 -0.500000 -0.500000
v -0.500000 0.500000 -0.500000
v -0.400000 0.500000 -0.400000
v 0.500000 -0.500000 1.500000
v 0.500000 0.500000 1.500000
v 0.000000 -0.500000 1.500000
v 0.000000 0.500000 1.500000
v 0.400000 0.500000 1.400000
v 0.000000 0.500000 1.400000
v 0.500000 -0.500000 -0.500000
v 0.500000 0.500000 -0.500000
v 0.000000 -0.500000 -0.500000
v 0.000000 0.500000 -0.500000
v 0.400000 0.500000 -0.400000
v 0.000000 0.500000 -0.400000
vn 0.000000 1.000000 0.000000
vn -1.000000 -0.000000 0.000000
vn 0.000000 0.000000 1.000000
vn 0.000000 -1.000000 0.000000
vn -0.000000 0.000000 -1.000000
vn 1.000000 -0.000000 0.000000
usemtl Primary
s off
f 205//50 207//50 198//50
f 200//51 199//51 196//51
f 196//52 204//52 205//52
f 211//50 200//50 201//50
f 198//50 201//50 200//50
f 196//53 199//53 210//53
f 199//54 200//54 211//54
f 205//50 203//50 206//50
f 202//55 208//55 209//55
f 202//52 203//52 205//52
f 211//50 213//50 212//50
f 209//50 212//50 206//50
f 202//53 204//53 210//53
f 208//54 210//54 211//54
f 197//50 205//50 198//50
f 197//51 200//51 196//51
f 197//52 196//52 205//52
f 213//50 211//50 201//50
f 197//50 198//50 200//50
f 204//53 196//53 210//53
f 210//54 199//54 211//54
f 207//50 205//50 206//50
f 203//55 202//55 209//55
f 204//52 202//52 205//52
f 209//50 211//50 212//50
f 203//50 209//50 206//50
f 208//53 202//53 210//53
f 209//54 208//54 211//54
o Engine_Cube.006
v -0.500000 -0.500000 -1.500000
v -0.500000 -0.500000 -2.500000
v 0.500000 -0.500000 -2.500000
v 0.500000 -0.500000 -1.500000
v -0.500000 0.500000 -1.500000
v -0.500000 0.500000 -2.500000
v 0.500000 0.500000 -2.500000
v 0.500000 0.500000 -1.500000
v -0.400000 -0.400000 -2.500000
v 0.400000 -0.400000 -2.500000
v -0.400000 0.400000 -2.500000
v 0.400000 0.400000 -2.500000
v -0.320000 -0.320000 -3.000000
v 0.320000 -0.320000 -3.000000
v -0.319999 0.320000 -3.000000
v 0.320000 0.320000 -3.000000
v -0.256000 -0.256000 -3.000000
v 0.256000 -0.256000 -3.000000
v -0.255999 0.256000 -3.000000
v 0.256000 0.256000 -3.000000
vn 0.000000 -0.000000 -1.000000
vn 0.000000 -1.000000 -0.000000
vn 0.000000 1.000000 0.000000
vn -1.000000 0.000000 -0.000000
vn 1.000000 -0.000000 0.000000
vn -0.000000 0.000000 1.000000
vn 0.987400 -0.000000 -0.158000
vn 0.000000 -0.987400 -0.158000
vn 0.000000 0.987400 -0.158000
vn -0.987400 0.000000 -0.158000
usemtl EngineGlow
s off
f 232//56 233//56 231//56
f 230//56 232//56 231//56
usemtl Primary
f 215//57 216//57 217//57
f 221//58 220//58 219//58
f 218//59 219//59 215//59
f 216//56 215//56 222//56
f 220//60 221//60 217//60
f 214//61 217//61 221//61
f 223//62 227//62 229//62
f 220//56 225//56 224//56
f 216//56 223//56 225//56
f 219//56 224//56 222//56
f 223//63 222//63 226//63
f 225//64 229//64 228//64
f 224//65 228//65 226//65
f 227//56 226//56 230//56
f 228//56 229//56 233//56
f 228//56 232//56 230//56
f 227//56 231//56 233//56
f 214//57 215//57 217//57
f 218//58 221//58 219//58
f 214//59 218//59 215//59
f 223//56 216//56 222//56
f 216//60 220//60 217//60
f 218//61 214//61 221//61
f 225//62 223//62 229//62
f 219//56 220//56 224//56
f 220//56 216//56 225//56
f 215//56 219//56 222//56
f 227//63 223//63 226//63
f 224//64 225//64 228//64
f 222//65 224//65 226//65
f 231//56 227//56 230//56
f 232//56 228//56 233//56
f 226//56 228//56 230//56
f 229//56 227//56 233//56
