# Blender v2.77 (sub 0) OBJ File: ''
# www.blender.org
mtllib Ship_Inside.mtl
o Ship_Inside_Cube.002
v -1.400000 -1.000000 4.400000
v 1.399999 -1.000000 3.000000
v -1.400000 -1.000000 3.000000
v -1.400000 1.000000 4.400000
v 1.399999 1.000000 3.000000
v -1.400000 1.000000 3.000000
v 1.399999 -1.000000 4.400000
v 1.399999 1.000000 4.400000
v 0.800000 0.800000 -7.400000
v -0.800000 0.800000 -7.400000
v 0.800000 -0.800000 -7.400000
v -0.800000 -0.800000 -7.400000
v -1.300000 -1.000000 4.300000
v 1.299999 -1.000000 3.000000
v -1.300000 -1.000000 3.000000
v 1.299999 -1.000000 4.300000
v -1.300000 1.000000 4.300000
v 1.299999 1.000000 3.000000
v -1.300000 1.000000 3.000000
v 1.299999 1.000000 4.300000
v -1.300000 -1.300000 4.300000
v 1.299999 -1.300000 3.000000
v -1.300000 -1.300000 3.000000
v 1.299999 -1.300000 4.300000
v -1.300000 1.300000 4.300000
v 1.299999 1.300000 3.000000
v -1.300000 1.300000 3.000000
v 1.299999 1.300000 4.300000
v 1.299999 -1.000000 -7.300001
v 1.299999 -1.300000 -7.300001
v -1.300000 -1.300000 -7.300001
v -1.300000 -1.000000 -7.300001
v 1.299999 1.300000 -7.300001
v 1.299999 1.000000 -7.300001
v -1.300000 1.000000 -7.300001
v -1.300000 1.300000 -7.300001
v -1.000000 -1.000000 -7.300001
v 1.000000 1.000000 -7.300001
v 1.000000 -1.000000 -7.300001
v -1.000000 1.000000 -7.300001
vn 0.0000 1.0000 -0.0000
vn 0.0000 -1.0000 0.0000
vn 0.0000 0.0000 -1.0000
vn -1.0000 0.0000 0.0000
vn 1.0000 0.0000 0.0000
vn 0.0000 0.0000 1.0000
vn 0.0000 0.4472 0.8944
vn -0.4472 0.0000 0.8944
vn 0.4472 0.0000 0.8944
vn 0.0000 -0.4472 0.8944
usemtl Material.001
s off
f 7//1 13//1 1//1
f 2//1 16//1 7//1
f 3//1 13//1 15//1
f 20//2 5//2 8//2
f 4//2 20//2 8//2
f 17//2 6//2 19//2
f 16//3 21//3 13//3
f 14//4 24//4 16//4
f 13//5 23//5 15//5
f 17//3 28//3 20//3
f 20//4 26//4 18//4
f 19//5 25//5 17//5
f 27//2 28//2 25//2
f 24//1 23//1 21//1
f 18//6 2//6 5//6
f 3//6 19//6 6//6
f 19//5 36//5 27//5
f 30//6 37//6 31//6
f 18//4 29//4 14//4
f 14//4 30//4 22//4
f 27//2 33//2 26//2
f 26//4 34//4 18//4
f 15//5 35//5 19//5
f 23//5 32//5 15//5
f 23//1 30//1 31//1
f 12//7 39//7 11//7
f 11//8 38//8 9//8
f 40//9 12//9 10//9
f 9//10 40//10 10//10
f 34//6 38//6 39//6
f 40//6 36//6 35//6
f 40//6 33//6 36//6
f 7//1 16//1 13//1
f 2//1 14//1 16//1
f 3//1 1//1 13//1
f 20//2 18//2 5//2
f 4//2 17//2 20//2
f 17//2 4//2 6//2
f 16//3 24//3 21//3
f 14//4 22//4 24//4
f 13//5 21//5 23//5
f 17//3 25//3 28//3
f 20//4 28//4 26//4
f 19//5 27//5 25//5
f 27//2 26//2 28//2
f 24//1 22//1 23//1
f 18//6 14//6 2//6
f 3//6 15//6 19//6
f 19//5 35//5 36//5
f 30//6 39//6 37//6
f 18//4 34//4 29//4
f 14//4 29//4 30//4
f 27//2 36//2 33//2
f 26//4 33//4 34//4
f 15//5 32//5 35//5
f 23//5 31//5 32//5
f 23//1 22//1 30//1
f 12//7 37//7 39//7
f 11//8 39//8 38//8
f 40//9 37//9 12//9
f 9//10 38//10 40//10
f 39//6 30//6 29//6
f 29//6 34//6 39//6
f 33//6 38//6 34//6
f 32//6 31//6 37//6
f 37//6 40//6 35//6
f 35//6 32//6 37//6
f 40//6 38//6 33//6
usemtl Material.002
f 8//4 2//4 7//4
f 6//5 1//5 3//5
f 4//3 7//3 1//3
f 9//6 12//6 11//6
f 8//4 5//4 2//4
f 6//5 4//5 1//5
f 4//3 8//3 7//3
f 9//6 10//6 12//6
