# Blender v2.77 (sub 0) OBJ File: 'ArrowHead.blend'
# www.blender.org
mtllib Arrowhead_Outside_Mesh.mtl
o Outside_Cube
v -4.499998 0.000000 -4.880334
v -2.249999 1.125000 -4.880334
v -2.249999 0.825000 -5.030334
v -3.899998 0.000000 -5.030334
v -2.250000 -1.125000 -4.880333
v -2.250000 -0.825000 -5.030334
v -4.500001 1.125000 -2.630334
v -6.750000 0.000000 -2.630333
v 0.000000 1.125000 -4.880333
v 0.000000 0.825000 -5.030334
v -2.249999 0.825000 -4.730334
v -3.899998 0.000000 -4.730334
v 0.000000 -1.125000 -4.880333
v 0.000000 -0.825000 -5.030334
v -4.500000 -1.125000 -2.630333
v -2.250000 -0.825000 -4.730333
v -1.875001 0.937500 3.369666
v -3.000001 0.562500 2.619666
v -2.850001 1.125000 0.669665
v 0.000000 1.125000 -2.830139
v -0.199805 1.125000 -2.630334
v 2.249999 1.125000 -4.880334
v 2.249999 0.825000 -5.030334
v 0.000000 0.825000 -4.730333
v 2.250000 -0.825000 -5.030334
v 2.250000 -1.125000 -4.880333
v 0.000000 -1.125000 -2.630334
v 0.000000 -0.825000 -4.730333
v 0.000000 -1.125000 6.369666
v -2.250001 1.125000 -1.130334
v -1.500001 1.125000 1.119666
v 0.000000 1.125000 -0.930528
v -0.232274 1.125000 -1.162802
v -0.232274 1.125000 -2.597865
v 1.606387 1.125001 3.156896
v -2.625001 1.350000 3.369666
v -1.875001 1.350000 3.369666
v -1.500001 1.125000 2.619666
v -3.000001 1.350000 1.119666
v -0.059047 1.500000 -2.526112
v 0.854222 1.500000 -3.439380
v 0.782469 1.125000 -3.612608
v 4.500002 1.125000 -2.630334
v 2.217532 1.125000 -3.612607
v 3.199805 1.125000 -2.630334
v 4.499999 0.000000 -4.880334
v 3.899998 0.000000 -5.030334
v 2.249999 0.825000 -4.730334
v 4.500000 -1.125000 -2.630333
v 2.250000 -0.825000 -4.730333
v -2.250001 1.350000 -1.130334
v 2.500567 1.125001 1.368537
v 3.232275 1.125000 -2.597865
v 3.232275 1.125000 -1.162802
v 2.217531 1.125000 -0.148059
v 0.782468 1.125000 -0.148059
v 0.854221 1.500000 -0.321287
v -0.059047 1.500000 -1.234555
v 2.145778 1.500000 -0.321287
v 3.059047 1.500000 -1.234555
v 3.059047 1.500000 -2.526112
v 2.145779 1.500000 -3.439380
v 6.750000 0.000000 -2.630333
v 3.899998 0.000000 -4.730334
v 2.500001 -1.124999 1.369666
v 1.604483 -1.125000 3.157975
v -2.250001 1.725000 -0.380334
v 2.500001 1.125000 1.369666
v -2.625001 0.562500 3.369666
v -1.500001 1.350000 1.119666
v -1.875001 1.725000 1.119666
v -3.000001 1.350000 2.619666
v -3.000001 0.937500 1.119666
v -1.500001 1.350000 2.619666
v -1.875001 1.725000 2.619666
v -2.625001 1.725000 2.619666
v -2.625001 1.725000 1.119666
v -2.625001 0.937500 3.369666
v -2.575001 1.350000 3.369666
v -2.575001 1.725000 2.619666
v -2.575001 1.725000 1.119666
v -1.925001 1.350000 3.369666
v -1.925001 1.725000 2.619666
v -1.925001 1.725000 1.119666
v -1.925001 1.675000 1.119666
v -2.575001 1.675000 1.119666
v -1.925001 0.937500 3.369666
v -1.925001 0.937500 3.319666
v -1.925001 1.675000 2.607863
v -2.575001 1.319098 3.319666
v -2.575001 1.675000 2.607863
v -2.575001 0.937500 3.369666
v -2.575001 0.937500 3.319666
v 1.606386 -1.124999 3.156896
v 3.405838 0.000001 4.057994
v 4.300265 0.000001 2.269139
v -1.925001 1.319098 3.319666
v 0.000000 1.125000 6.369666
v -1.687501 1.125000 2.994665
v 0.000000 0.000000 10.869666
v -5.100000 0.000000 0.669666
v -1.687501 0.000000 7.494664
vn -0.4082 0.8165 -0.4082
vn -0.4082 -0.8165 -0.4082
vn -0.4364 0.8729 0.2182
vn 0.0000 1.0000 0.0000
vn 0.0000 -1.0000 0.0000
vn 0.4364 0.8729 0.2182
vn 0.4364 -0.8729 0.2182
vn 0.9487 0.0000 -0.3162
vn 0.4082 0.8165 -0.4082
vn 0.4082 -0.8165 -0.4082
vn -0.9487 -0.0000 -0.3162
vn 0.6963 0.6963 -0.1741
vn -0.6963 0.6963 -0.1741
vn 0.8944 0.0000 0.4472
vn 0.0000 0.0000 1.0000
vn -1.0000 0.0000 0.0000
vn 1.0000 0.0000 0.0000
vn 0.6667 0.6667 0.3333
vn 0.0000 0.8944 0.4472
vn -0.6667 0.6667 0.3333
vn -0.7071 0.7071 0.0000
vn 0.7071 0.7071 0.0000
vn -0.8944 0.0000 0.4472
vn -0.4364 -0.8729 0.2182
vn 0.4360 0.8729 0.2190
vn 0.8018 0.5345 -0.2673
vn -0.8018 0.5345 -0.2673
vn 0.0005 -1.0000 0.0003
vn -0.2182 0.4364 -0.8729
vn -0.2182 -0.4364 -0.8729
vn 0.0000 0.4472 -0.8944
vn 0.4472 -0.8944 0.0000
vn 0.0000 -0.4472 -0.8944
vn 0.4472 0.8944 0.0000
vn -0.6419 0.4194 -0.6419
vn 0.2182 0.4364 -0.8729
vn 0.2182 -0.4364 -0.8729
vn -0.6419 0.4194 0.6419
vn -0.9078 0.4194 -0.0000
vn 0.0000 0.4194 -0.9078
vn -0.4472 -0.8944 0.0000
vn -0.4472 0.8944 0.0000
vn 0.9078 0.4194 0.0000
vn 0.6419 0.4194 0.6419
vn 0.0000 0.4194 0.9078
vn 0.6419 0.4194 -0.6419
vn -0.0004 1.0000 0.0004
vn 0.0000 -0.0000 -1.0000
usemtl Material
s off
f 7//1 1//1 8//1
f 15//2 1//2 5//2
f 101//3 102//3 18//3
f 2//4 7//4 21//4
f 5//5 27//5 15//5
f 18//3 102//3 69//3
f 38//4 32//4 31//4
f 98//6 95//6 35//6
f 27//5 26//5 49//5
f 15//5 27//5 29//5
f 95//7 29//7 94//7
f 77//4 71//4 67//4
f 51//8 31//8 30//8
f 43//9 46//9 22//9
f 46//10 49//10 26//10
f 52//6 96//6 43//6
f 19//11 39//11 51//11
f 96//7 49//7 63//7
f 70//12 67//12 71//12
f 67//13 39//13 77//13
f 66//5 29//5 27//5
f 37//14 17//14 99//14
f 36//15 92//15 79//15
f 69//15 87//15 92//15
f 72//16 73//16 18//16
f 70//17 38//17 31//17
f 75//18 37//18 74//18
f 80//19 36//19 79//19
f 72//20 36//20 76//20
f 72//21 77//21 39//21
f 70//22 75//22 74//22
f 83//4 71//4 84//4
f 76//4 81//4 77//4
f 84//16 89//16 83//16
f 37//15 87//15 17//15
f 75//19 82//19 37//19
f 81//15 85//15 84//15
f 81//17 91//17 86//17
f 92//17 90//17 79//17
f 83//16 97//16 82//16
f 88//4 92//4 87//4
f 90//17 80//17 79//17
f 87//16 97//16 88//16
f 69//23 78//23 18//23
f 35//6 96//6 68//6
f 98//3 102//3 100//3
f 17//3 102//3 99//3
f 7//3 101//3 19//3
f 19//3 101//3 73//3
f 18//3 73//3 101//3
f 102//3 17//3 69//3
f 29//24 100//24 102//24
f 43//4 54//4 52//4
f 72//23 78//23 36//23
f 7//1 2//1 1//1
f 15//2 8//2 1//2
f 21//4 20//4 2//4
f 9//4 2//4 20//4
f 5//5 13//5 27//5
f 34//4 21//4 7//4
f 7//4 19//4 30//4
f 34//4 7//4 30//4
f 98//4 32//4 38//4
f 33//4 34//4 30//4
f 33//4 30//4 31//4
f 38//4 99//4 98//4
f 33//4 31//4 32//4
f 98//6 100//6 95//6
f 27//5 13//5 26//5
f 95//7 100//7 29//7
f 51//8 70//8 31//8
f 43//9 63//9 46//9
f 46//10 63//10 49//10
f 63//6 43//6 96//6
f 52//25 68//25 96//25
f 51//11 30//11 19//11
f 19//11 73//11 39//11
f 96//7 65//7 49//7
f 70//26 51//26 67//26
f 67//27 51//27 39//27
f 49//5 65//5 27//5
f 66//28 94//28 29//28
f 27//5 65//5 66//5
f 99//14 38//14 74//14
f 74//14 37//14 99//14
f 36//15 78//15 92//15
f 92//15 78//15 69//15
f 69//15 17//15 87//15
f 72//16 39//16 73//16
f 70//17 74//17 38//17
f 80//19 76//19 36//19
f 72//21 76//21 77//21
f 70//22 71//22 75//22
f 83//4 75//4 71//4
f 76//4 80//4 81//4
f 84//16 85//16 89//16
f 37//15 82//15 87//15
f 75//19 83//19 82//19
f 81//15 86//15 85//15
f 81//17 80//17 91//17
f 92//17 93//17 90//17
f 83//16 89//16 97//16
f 88//4 93//4 92//4
f 90//17 91//17 80//17
f 87//16 82//16 97//16
f 35//6 95//6 96//6
f 98//3 99//3 102//3
f 7//3 8//3 101//3
f 101//24 8//24 15//24
f 15//24 29//24 101//24
f 102//24 101//24 29//24
f 43//4 45//4 53//4
f 54//4 55//4 52//4
f 43//4 53//4 54//4
f 72//23 18//23 78//23
usemtl Material.004
f 2//29 4//29 1//29
f 5//30 4//30 6//30
f 9//31 3//31 2//31
f 3//32 12//32 4//32
f 5//33 14//33 13//33
f 4//34 16//34 6//34
f 23//31 9//31 22//31
f 10//5 11//5 3//5
f 14//33 26//33 13//33
f 6//4 28//4 14//4
f 40//35 20//35 21//35
f 47//36 22//36 46//36
f 48//5 10//5 23//5
f 28//4 25//4 14//4
f 26//37 47//37 46//37
f 58//38 33//38 32//38
f 33//39 40//39 34//39
f 62//4 41//4 58//4
f 41//40 44//40 42//40
f 64//41 23//41 47//41
f 50//42 47//42 25//42
f 61//43 54//43 53//43
f 60//44 55//44 54//44
f 59//45 56//45 55//45
f 45//46 62//46 61//46
f 44//4 22//4 42//4
f 96//7 94//7 65//7
f 35//4 68//4 56//4
f 2//29 3//29 4//29
f 5//30 1//30 4//30
f 9//31 10//31 3//31
f 3//32 11//32 12//32
f 5//33 6//33 14//33
f 4//34 12//34 16//34
f 23//31 10//31 9//31
f 10//5 24//5 11//5
f 14//33 25//33 26//33
f 6//4 16//4 28//4
f 21//35 34//35 40//35
f 40//35 41//35 20//35
f 42//35 20//35 41//35
f 47//36 23//36 22//36
f 48//5 24//5 10//5
f 28//4 50//4 25//4
f 26//37 25//37 47//37
f 32//38 56//38 57//38
f 57//38 58//38 32//38
f 33//39 58//39 40//39
f 58//4 57//4 59//4
f 59//4 60//4 61//4
f 61//4 62//4 58//4
f 41//4 40//4 58//4
f 58//4 59//4 61//4
f 41//40 62//40 44//40
f 64//41 48//41 23//41
f 50//42 64//42 47//42
f 61//43 60//43 54//43
f 60//44 59//44 55//44
f 59//45 57//45 56//45
f 61//46 53//46 45//46
f 45//46 44//46 62//46
f 9//4 20//4 42//4
f 44//4 45//4 22//4
f 9//4 42//4 22//4
f 43//4 22//4 45//4
f 96//7 95//7 94//7
f 56//4 32//4 35//4
f 98//4 35//4 32//4
f 68//47 52//47 56//47
f 55//4 56//4 52//4
usemtl Glow
f 16//48 12//48 11//48
f 11//48 28//48 16//48
f 28//48 48//48 50//48
f 50//48 48//48 64//48
f 11//48 24//48 28//48
f 28//48 24//48 48//48
usemtl Glass
f 91//4 85//4 86//4
f 90//19 89//19 91//19
f 88//15 90//15 93//15
f 91//4 89//4 85//4
f 90//19 97//19 89//19
f 88//15 97//15 90//15
