# Blender v2.77 (sub 0) OBJ File: 'ArrowHead_S.blend'
# www.blender.org
mtllib Collision_Canopy.mtl
o Collision_Canopy_Cube.004
v -0.750000 0.500000 0.780963
v -0.750000 0.750000 0.780963
v -0.750000 0.750000 -0.219038
v -0.375000 1.125000 -0.219038
v -0.375000 1.125000 0.780963
v -0.375000 0.500000 1.480963
v -0.750000 0.550000 -1.294037
v -0.750000 0.500000 -1.294037
v -0.375000 0.925000 -1.294037
v -0.750000 0.500000 -0.219038
v -0.375000 0.550000 -1.669037
v -0.375000 0.500000 -1.669037
v -0.375000 0.775000 1.480963
v 0.750000 0.500000 0.780963
v 0.000000 1.125000 0.780963
v 0.750000 0.750000 0.780963
v 0.000000 1.125000 -0.219038
v 0.750000 0.750000 -0.219038
v 0.375000 1.125000 -0.219038
v 0.375000 1.125000 0.780963
v 0.375000 0.500000 1.480963
v 0.000000 0.925000 -1.294037
v 0.750000 0.550000 -1.294037
v 0.750000 0.500000 -1.294037
v 0.000000 0.500000 1.480963
v 0.375000 0.925000 -1.294037
v 0.750000 0.500000 -0.219038
v 0.375000 0.550000 -1.669037
v 0.375000 0.500000 -1.669037
v 0.000000 0.775000 1.480963
v 0.000000 0.500000 -1.669037
v 0.375000 0.775000 1.480963
v 0.000000 0.550000 -1.669037
vn 0.0000 -1.0000 0.0000
vn 1.0000 0.0000 0.0000
vn 0.7071 -0.7071 0.0000
vn 0.0000 -0.9831 0.1829
vn 0.7011 -0.7011 0.1304
vn 0.6667 -0.6667 -0.3333
vn 0.0000 0.0000 1.0000
vn 0.8815 0.0000 -0.4722
vn 0.0000 0.0000 -1.0000
vn 0.5774 -0.5774 0.5774
vn 0.0000 -0.7071 0.7071
vn 0.7071 0.0000 0.7071
vn 0.0000 -0.8944 -0.4472
vn -1.0000 0.0000 0.0000
vn -0.7071 -0.7071 0.0000
vn -0.7011 -0.7011 0.1304
vn -0.6667 -0.6667 -0.3333
vn -0.8815 0.0000 -0.4722
vn -0.5774 -0.5774 0.5774
vn -0.7071 0.0000 0.7071
usemtl Material.002
s off
f 17//1 5//1 4//1
f 2//2 10//2 3//2
f 5//3 3//3 4//3
f 4//4 22//4 17//4
f 10//2 7//2 3//2
f 3//5 9//5 4//5
f 2//6 5//6 13//6
f 11//7 31//7 33//7
f 6//8 2//8 13//8
f 30//9 6//9 13//9
f 9//10 7//10 11//10
f 9//11 33//11 22//11
f 8//12 11//12 7//12
f 15//13 13//13 5//13
f 20//1 17//1 19//1
f 27//14 16//14 18//14
f 18//15 20//15 19//15
f 22//4 19//4 17//4
f 23//14 27//14 18//14
f 26//16 18//16 19//16
f 16//17 32//17 20//17
f 31//7 28//7 33//7
f 21//18 16//18 14//18
f 21//9 30//9 32//9
f 26//19 28//19 23//19
f 33//11 26//11 22//11
f 28//20 24//20 23//20
f 32//13 15//13 20//13
f 17//1 15//1 5//1
f 2//2 1//2 10//2
f 5//3 2//3 3//3
f 4//4 9//4 22//4
f 10//2 8//2 7//2
f 3//5 7//5 9//5
f 11//7 12//7 31//7
f 6//8 1//8 2//8
f 30//9 25//9 6//9
f 9//11 11//11 33//11
f 8//12 12//12 11//12
f 15//13 30//13 13//13
f 20//1 15//1 17//1
f 27//14 14//14 16//14
f 18//15 16//15 20//15
f 22//4 26//4 19//4
f 23//14 24//14 27//14
f 26//16 23//16 18//16
f 31//7 29//7 28//7
f 21//18 32//18 16//18
f 21//9 25//9 30//9
f 33//11 28//11 26//11
f 28//20 29//20 24//20
f 32//13 30//13 15//13
