# Blender v2.77 (sub 0) OBJ File: 'ArrowHead_S.blend'
# www.blender.org
mtllib Outside_Body_Canopy.mtl
o Arrow_Outside_Cube.002
v -0.700000 0.500000 0.780963
v 0.375000 0.500000 1.430964
v -0.700000 0.500000 -1.294037
v 0.700000 0.500000 -1.294037
v -0.375000 0.500000 1.430964
v 0.700000 0.500000 0.780963
v -0.999999 0.500000 -2.169037
v -0.999999 0.366667 -2.235704
v -2.000000 0.000000 -2.169037
v -1.733333 0.000000 -2.235704
v -2.000001 0.500000 -1.169037
v -0.999999 0.366667 -2.102371
v -1.000000 -0.500000 -2.169037
v -1.000000 -0.366667 -2.235704
v -3.000000 0.000000 -1.169037
v -1.733333 0.000000 -2.102371
v -1.000000 -0.366667 -2.102371
v -2.000000 -0.500000 -1.169037
v -1.625000 0.375000 0.080964
v -1.875000 0.375000 -0.419036
v -1.875000 0.125000 0.580963
v -2.125000 0.125000 0.080963
v -2.125000 0.375000 -0.919036
v -1.375000 0.125000 1.580963
v -1.625000 0.125000 1.080963
v -1.375000 0.375000 0.580964
v -1.375000 -0.375000 0.580963
v -1.625000 -0.375000 0.080963
v -1.875000 -0.375000 -0.419037
v -2.125000 -0.375000 -0.919037
v -0.625000 -0.375000 2.080963
v -0.625000 -0.125000 3.080963
v -1.625000 -0.125000 1.080963
v -1.375000 -0.125000 1.580963
v -0.375000 -0.125000 3.580963
v -2.125000 -0.125000 0.080963
v -1.875000 -0.125000 0.580963
v -0.375000 -0.375000 2.580963
v -0.625000 -0.375000 1.750000
v -0.625000 -0.125000 1.750000
v -0.375000 -0.125000 1.750000
v -0.375000 -0.375000 1.750000
v -1.875000 -0.125000 -0.250000
v -1.875000 -0.375000 -0.500000
v -2.125000 -0.375000 -1.000000
v -2.125000 -0.125000 -0.750000
v -1.375000 -0.125000 0.750000
v -1.375000 -0.375000 0.500000
v -1.625000 -0.375000 0.000000
v -1.625000 -0.125000 0.250000
v -1.875000 0.375000 -0.500000
v -1.875000 0.125000 -0.250000
v -2.125000 0.125000 -0.750000
v -2.125000 0.375000 -1.000000
v -1.375000 0.375000 0.500000
v -1.375000 0.125000 0.750000
v -1.625000 0.125000 0.250000
v -1.625000 0.375000 0.000000
v 0.999999 0.500000 -2.169037
v 0.000000 0.500000 -2.169037
v 0.000000 0.366667 -2.235704
v 0.999999 0.366667 -2.235704
v 2.000000 0.000000 -2.169037
v 1.733333 0.000000 -2.235704
v 2.000001 0.500000 -1.169037
v 0.000000 0.366667 -2.102371
v 0.999999 0.366667 -2.102371
v 1.000000 -0.500000 -2.169037
v 1.000000 -0.366667 -2.235704
v 3.000000 0.000000 -1.169037
v 1.733333 0.000000 -2.102371
v 0.000000 0.500000 2.830963
v 1.000000 -0.366667 -2.102371
v 0.000000 -0.366667 -2.102371
v 0.000000 -0.500000 -2.169037
v 0.000000 -0.366667 -2.235704
v 2.000000 -0.500000 -1.169037
v 1.625000 0.375000 0.080964
v 1.875000 0.375000 -0.419036
v 1.875000 0.125000 0.580963
v 2.125000 0.125000 0.080963
v 2.125000 0.375000 -0.919036
v 0.000000 0.000000 4.830963
v 1.375000 0.125000 1.580963
v 1.625000 0.125000 1.080963
v 1.375000 0.375000 0.580964
v 0.000000 -0.500000 -1.169037
v 1.375000 -0.375000 0.580963
v 1.625000 -0.375000 0.080963
v 1.875000 -0.375000 -0.419037
v 2.125000 -0.375000 -0.919037
v 0.625000 -0.375000 2.080963
v 0.625000 -0.125000 3.080963
v 1.625000 -0.125000 1.080963
v 1.375000 -0.125000 1.580963
v 0.375000 -0.125000 3.580963
v 2.125000 -0.125000 0.080963
v 1.875000 -0.125000 0.580963
v 0.000000 -0.500000 2.830963
v 0.375000 -0.375000 2.580963
v 0.625000 -0.375000 1.750000
v 0.625000 -0.125000 1.750000
v 0.375000 -0.125000 1.750000
v 0.375000 -0.375000 1.750000
v 1.875000 -0.125000 -0.250000
v 1.875000 -0.375000 -0.500000
v 2.125000 -0.375000 -1.000000
v 2.125000 -0.125000 -0.750000
v 1.375000 -0.125000 0.750000
v 1.375000 -0.375000 0.500000
v 1.625000 -0.375000 0.000000
v 1.625000 -0.125000 0.250000
v 1.875000 0.375000 -0.500000
v 1.875000 0.125000 -0.250000
v 2.125000 0.125000 -0.750000
v 2.125000 0.375000 -1.000000
v 1.375000 0.375000 0.500000
v 1.375000 0.125000 0.750000
v 1.625000 0.125000 0.250000
v 1.625000 0.375000 0.000000
vn -0.4082 0.8165 -0.4082
vn -0.4082 -0.8165 -0.4082
vn -0.4364 0.8729 0.2182
vn 0.0000 -1.0000 0.0000
vn -0.4364 -0.8729 0.2182
vn 1.0000 0.0000 0.0000
vn -1.0000 0.0000 0.0000
vn 0.0000 1.0000 0.0000
vn 0.0000 0.0000 1.0000
vn 0.4082 0.8165 -0.4082
vn 0.4082 -0.8165 -0.4082
vn 0.4364 0.8729 0.2182
vn -0.4364 0.8729 -0.2182
vn 0.4364 -0.8729 0.2182
vn 0.0000 0.4472 -0.8944
vn -0.2182 0.4364 -0.8729
vn -0.2182 -0.4364 -0.8729
vn 0.4472 -0.8944 0.0000
vn 0.0000 -0.4472 -0.8944
vn 0.4472 0.8944 0.0000
vn -0.8165 -0.4082 0.4082
vn -0.8165 0.4082 0.4082
vn 0.2182 0.4364 -0.8729
vn 0.2182 -0.4364 -0.8729
vn -0.4472 -0.8944 0.0000
vn -0.4472 0.8944 0.0000
vn 0.8165 -0.4082 0.4082
vn 0.8165 0.4082 0.4082
vn 0.0000 -0.0000 -1.0000
usemtl Material.001
s off
f 11//1 9//1 15//1
f 18//2 9//2 13//2
f 21//3 15//3 25//3
f 26//3 11//3 19//3
f 13//4 87//4 18//4
f 27//5 31//5 34//5
f 33//5 15//5 37//5
f 99//4 18//4 87//4
f 38//5 99//5 35//5
f 31//6 40//6 32//6
f 32//4 41//4 35//4
f 38//7 41//7 42//7
f 31//8 42//8 39//8
f 39//9 41//9 40//9
f 30//8 44//8 45//8
f 28//8 48//8 49//8
f 23//4 51//4 20//4
f 19//4 55//4 26//4
f 65//10 63//10 59//10
f 63//11 77//11 68//11
f 85//12 70//12 80//12
f 65//12 72//12 86//12
f 87//4 68//4 77//4
f 88//13 95//13 94//13
f 97//14 91//14 70//14
f 99//4 87//4 77//4
f 100//14 99//14 92//14
f 102//7 92//7 93//7
f 103//4 93//4 96//4
f 100//6 103//6 96//6
f 92//8 104//8 100//8
f 103//9 101//9 102//9
f 91//8 106//8 90//8
f 89//8 110//8 88//8
f 113//4 82//4 79//4
f 117//4 78//4 86//4
f 3//8 7//8 11//8
f 4//8 65//8 59//8
f 2//8 5//8 72//8
f 11//1 7//1 9//1
f 18//2 15//2 9//2
f 25//3 19//3 21//3
f 19//3 20//3 21//3
f 83//3 24//3 15//3
f 23//3 11//3 15//3
f 22//3 23//3 15//3
f 15//3 24//3 25//3
f 21//3 22//3 15//3
f 20//3 19//3 11//3
f 26//3 24//3 72//3
f 72//3 11//3 26//3
f 11//3 23//3 20//3
f 24//3 83//3 72//3
f 13//4 75//4 87//4
f 27//5 28//5 18//5
f 29//5 30//5 18//5
f 32//8 33//8 34//8
f 28//5 29//5 18//5
f 32//5 34//5 31//5
f 27//5 18//5 31//5
f 29//5 28//5 37//5
f 33//5 32//5 83//5
f 35//5 83//5 32//5
f 15//5 18//5 30//5
f 15//5 30//5 36//5
f 33//5 83//5 15//5
f 37//5 28//5 33//5
f 15//5 36//5 37//5
f 38//5 31//5 99//5
f 99//5 83//5 35//5
f 31//5 18//5 99//5
f 31//6 39//6 40//6
f 32//4 40//4 41//4
f 38//7 35//7 41//7
f 31//8 38//8 42//8
f 39//9 42//9 41//9
f 30//8 29//8 44//8
f 28//8 27//8 48//8
f 23//4 54//4 51//4
f 19//4 58//4 55//4
f 65//10 70//10 63//10
f 63//11 70//11 77//11
f 79//12 78//12 80//12
f 85//12 84//12 70//12
f 70//12 65//12 82//12
f 70//12 82//12 81//12
f 84//12 83//12 70//12
f 80//12 78//12 85//12
f 70//12 81//12 80//12
f 78//12 79//12 65//12
f 82//12 65//12 79//12
f 72//12 83//12 84//12
f 72//12 84//12 86//12
f 78//12 65//12 86//12
f 87//4 75//4 68//4
f 94//14 93//14 92//14
f 77//14 91//14 90//14
f 77//14 90//14 89//14
f 77//14 89//14 88//14
f 92//14 77//14 88//14
f 94//14 92//14 88//14
f 94//14 89//14 98//14
f 89//14 90//14 98//14
f 83//14 96//14 93//14
f 93//14 94//14 83//14
f 94//14 98//14 70//14
f 70//14 83//14 94//14
f 91//14 77//14 70//14
f 70//14 98//14 97//14
f 100//14 96//14 99//14
f 99//14 77//14 92//14
f 96//14 83//14 99//14
f 102//7 101//7 92//7
f 103//4 102//4 93//4
f 100//6 104//6 103//6
f 92//8 101//8 104//8
f 103//9 104//9 101//9
f 91//8 107//8 106//8
f 89//8 111//8 110//8
f 113//4 116//4 82//4
f 117//4 120//4 78//4
f 1//8 3//8 11//8
f 65//8 4//8 6//8
f 65//8 6//8 72//8
f 1//8 11//8 72//8
f 5//8 1//8 72//8
f 72//8 6//8 2//8
usemtl Material.004
f 60//15 8//15 7//15
f 7//16 10//16 9//16
f 61//4 12//4 8//4
f 13//17 10//17 14//17
f 8//18 16//18 10//18
f 13//19 76//19 75//19
f 14//20 16//20 17//20
f 14//8 74//8 76//8
f 29//7 43//7 44//7
f 46//21 44//21 43//21
f 36//4 43//4 37//4
f 30//6 46//6 36//6
f 27//7 47//7 48//7
f 50//21 48//21 47//21
f 33//4 47//4 34//4
f 28//6 50//6 33//6
f 20//7 52//7 21//7
f 22//8 52//8 53//8
f 53//22 51//22 54//22
f 23//6 53//6 54//6
f 26//7 56//7 24//7
f 25//8 56//8 57//8
f 57//22 55//22 58//22
f 19//6 57//6 58//6
f 62//15 60//15 59//15
f 64//23 59//23 63//23
f 67//4 61//4 62//4
f 68//24 64//24 63//24
f 71//25 62//25 64//25
f 76//19 68//19 75//19
f 69//26 71//26 64//26
f 74//8 69//8 76//8
f 90//6 105//6 98//6
f 108//27 106//27 107//27
f 105//4 97//4 98//4
f 108//7 91//7 97//7
f 88//6 109//6 95//6
f 112//27 110//27 111//27
f 109//4 94//4 95//4
f 112//7 89//7 94//7
f 114//6 79//6 80//6
f 81//8 114//8 80//8
f 115//28 113//28 114//28
f 82//7 115//7 81//7
f 118//6 86//6 84//6
f 85//8 118//8 84//8
f 119//28 117//28 118//28
f 78//7 119//7 85//7
f 59//8 60//8 4//8
f 60//15 61//15 8//15
f 7//16 8//16 10//16
f 61//4 66//4 12//4
f 13//17 9//17 10//17
f 8//18 12//18 16//18
f 13//19 14//19 76//19
f 14//20 10//20 16//20
f 14//8 17//8 74//8
f 29//7 37//7 43//7
f 46//21 45//21 44//21
f 36//4 46//4 43//4
f 30//6 45//6 46//6
f 27//7 34//7 47//7
f 50//21 49//21 48//21
f 33//4 50//4 47//4
f 28//6 49//6 50//6
f 20//7 51//7 52//7
f 22//8 21//8 52//8
f 53//22 52//22 51//22
f 23//6 22//6 53//6
f 26//7 55//7 56//7
f 25//8 24//8 56//8
f 57//22 56//22 55//22
f 19//6 25//6 57//6
f 62//15 61//15 60//15
f 64//23 62//23 59//23
f 67//4 66//4 61//4
f 68//24 69//24 64//24
f 71//25 67//25 62//25
f 76//19 69//19 68//19
f 69//26 73//26 71//26
f 74//8 73//8 69//8
f 90//6 106//6 105//6
f 108//27 105//27 106//27
f 105//4 108//4 97//4
f 108//7 107//7 91//7
f 88//6 110//6 109//6
f 112//27 109//27 110//27
f 109//4 112//4 94//4
f 112//7 111//7 89//7
f 114//6 113//6 79//6
f 81//8 115//8 114//8
f 115//28 116//28 113//28
f 82//7 116//7 115//7
f 118//6 117//6 86//6
f 85//8 119//8 118//8
f 119//28 120//28 117//28
f 78//7 120//7 119//7
f 3//8 4//8 60//8
f 60//8 7//8 3//8
usemtl Glow
f 12//29 74//29 17//29
f 17//29 16//29 12//29
f 74//29 67//29 73//29
f 73//29 67//29 71//29
f 12//29 66//29 74//29
f 74//29 66//29 67//29
o Outside_Canopy_Cube.005
v -0.325000 1.075000 -0.219038
v -0.325000 0.750000 1.430964
v -0.325000 1.075000 0.780963
v -0.325000 0.500000 1.430964
v -0.700000 0.750000 0.780963
v -0.375000 0.750000 1.430964
v -0.375000 1.075000 0.780963
v -0.700000 0.750000 -0.219038
v -0.375000 0.500000 1.430964
v -0.325000 0.500000 1.480963
v -0.375000 1.075000 -0.219038
v -0.700000 0.500000 -0.219038
v -0.750000 0.750000 -0.219038
v -0.325000 1.125000 -0.219038
v -0.325000 1.125000 0.780963
v -0.375000 1.125000 0.780963
v -0.375000 1.125000 -0.219038
v -0.750000 0.550000 -1.294037
v -0.750000 0.500000 -1.294037
v -0.325000 0.925000 -1.294037
v -0.375000 0.925000 -1.294037
v -0.325000 0.775000 1.480963
v -0.375000 0.775000 1.480963
v -0.700000 0.500000 0.780963
v -0.375000 0.500000 1.480963
v -0.750000 0.500000 -0.219038
v -0.375000 0.550000 -1.669037
v -0.375000 0.500000 -1.669037
v -0.325000 0.550000 -1.669037
v -0.325000 0.500000 -1.669037
v 0.325000 1.075000 -0.219038
v 0.325000 0.750000 1.430964
v 0.325000 1.075000 0.780963
v 0.325000 0.500000 1.430964
v 0.700000 0.750000 0.780963
v 0.375000 0.750000 1.430964
v 0.375000 1.075000 0.780963
v 0.700000 0.750000 -0.219038
v 0.375000 0.500000 1.430964
v 0.000000 1.075000 -0.219038
v 0.000000 1.075000 0.780963
v 0.325000 0.500000 1.480963
v 0.000000 0.750000 1.430964
v 0.375000 1.075000 -0.219038
v 0.700000 0.500000 -0.219038
v 0.000000 1.125000 -0.219038
v 0.750000 0.750000 -0.219038
v 0.325000 1.125000 -0.219038
v 0.325000 1.125000 0.780963
v 0.375000 1.125000 0.780963
v 0.375000 1.125000 -0.219038
v 0.000000 0.925000 -1.294037
v 0.750000 0.550000 -1.294037
v 0.750000 0.500000 -1.294037
v 0.325000 0.925000 -1.294037
v 0.375000 0.925000 -1.294037
v 0.325000 0.775000 1.480963
v 0.375000 0.775000 1.480963
v 0.700000 0.500000 0.780963
v 0.000000 0.500000 1.430964
v 0.375000 0.500000 1.480963
v 0.750000 0.500000 -0.219038
v 0.375000 0.550000 -1.669037
v 0.375000 0.500000 -1.669037
v 0.325000 0.550000 -1.669037
v 0.000000 0.500000 -1.669037
v 0.325000 0.500000 -1.669037
v 0.000000 0.550000 -1.669037
vn 0.0000 0.0000 1.0000
vn 0.0000 0.9831 -0.1829
vn -1.0000 0.0000 0.0000
vn -0.7011 0.7011 -0.1304
vn 0.0000 0.0000 -1.0000
vn -0.5774 0.5774 -0.5774
vn 0.0000 0.7071 -0.7071
vn -0.7071 0.0000 -0.7071
vn 1.0000 0.0000 0.0000
vn 0.7011 0.7011 -0.1304
vn 0.5774 0.5774 -0.5774
vn 0.7071 0.0000 -0.7071
vn 0.0000 1.0000 0.0000
vn 0.0000 0.8944 0.4472
vn -0.7071 0.7071 0.0000
vn -0.6667 0.6667 0.3333
vn -0.8944 0.0000 0.4472
vn 0.7071 0.7071 0.0000
vn 0.6667 0.6667 0.3333
vn 0.8944 0.0000 0.4472
usemtl Material.002
s off
f 166//30 121//30 160//30
f 133//30 132//30 128//30
f 131//30 133//30 128//30
f 140//31 137//31 134//31
f 172//31 134//31 166//31
f 138//32 146//32 133//32
f 141//33 133//33 137//33
f 186//34 149//34 188//34
f 150//34 147//34 149//34
f 141//35 147//35 138//35
f 188//36 140//36 172//36
f 147//37 139//37 138//37
f 149//36 141//36 140//36
f 151//30 166//30 160//30
f 165//30 167//30 158//30
f 158//30 171//30 164//30
f 171//31 175//31 168//31
f 168//31 172//31 166//31
f 182//38 173//38 167//38
f 167//39 176//39 171//39
f 185//34 186//34 188//34
f 183//34 187//34 185//34
f 176//40 173//40 183//40
f 175//36 188//36 172//36
f 174//41 183//41 173//41
f 176//36 185//36 175//36
f 166//30 134//30 121//30
f 133//30 146//30 132//30
f 131//30 137//30 133//30
f 140//31 141//31 137//31
f 172//31 140//31 134//31
f 138//32 139//32 146//32
f 141//33 138//33 133//33
f 186//34 150//34 149//34
f 150//34 148//34 147//34
f 188//36 149//36 140//36
f 147//37 148//37 139//37
f 149//36 147//36 141//36
f 151//30 168//30 166//30
f 165//30 182//30 167//30
f 158//30 167//30 171//30
f 171//31 176//31 175//31
f 168//31 175//31 172//31
f 182//38 174//38 173//38
f 167//39 173//39 176//39
f 185//34 187//34 186//34
f 183//34 184//34 187//34
f 175//36 185//36 188//36
f 174//41 184//41 183//41
f 176//36 183//36 185//36
usemtl Material.003
f 134//38 123//38 121//38
f 136//32 131//32 127//32
f 134//42 136//42 135//42
f 122//38 130//38 124//38
f 143//30 130//30 142//30
f 145//32 126//32 129//32
f 136//43 142//43 135//43
f 122//38 135//38 142//38
f 126//32 136//32 127//32
f 153//32 168//32 151//32
f 164//38 170//38 157//38
f 170//42 168//42 169//42
f 152//32 162//32 177//32
f 162//30 178//30 177//30
f 156//38 181//38 159//38
f 177//43 170//43 169//43
f 152//32 169//32 153//32
f 156//38 170//38 178//38
f 134//38 135//38 123//38
f 136//32 137//32 131//32
f 134//42 137//42 136//42
f 122//38 142//38 130//38
f 143//30 145//30 130//30
f 145//32 143//32 126//32
f 136//43 143//43 142//43
f 122//38 123//38 135//38
f 126//32 143//32 136//32
f 153//32 169//32 168//32
f 164//38 171//38 170//38
f 170//42 171//42 168//42
f 152//32 154//32 162//32
f 162//30 181//30 178//30
f 156//38 178//38 181//38
f 177//43 178//43 170//43
f 152//32 177//32 169//32
f 156//38 157//38 170//38
usemtl Glass.002
f 125//44 131//44 128//44
f 127//45 125//45 126//45
f 128//32 144//32 125//32
f 126//46 144//46 129//46
f 180//30 122//30 124//30
f 122//43 161//43 123//43
f 123//42 160//42 121//42
f 164//47 155//47 158//47
f 157//48 156//48 155//48
f 179//38 158//38 155//38
f 156//49 179//49 155//49
f 152//30 180//30 154//30
f 152//43 161//43 163//43
f 160//42 153//42 151//42
f 125//44 127//44 131//44
f 128//32 132//32 144//32
f 126//46 125//46 144//46
f 180//30 163//30 122//30
f 122//43 163//43 161//43
f 123//42 161//42 160//42
f 164//47 157//47 155//47
f 179//38 165//38 158//38
f 156//49 159//49 179//49
f 152//30 163//30 180//30
f 152//43 153//43 161//43
f 160//42 161//42 153//42
