# Blender v2.77 (sub 0) OBJ File: ''
# www.blender.org
mtllib Cockpit2_Cursor.mtl
o Canopy__Outside_Cube.001
v -0.254183 0.875000 -0.092163
v -0.304183 0.875000 -0.142164
v -0.254183 0.875000 -0.142164
v -0.304183 0.875000 -0.092163
v -0.450000 0.500000 -0.400000
v -0.400000 0.500000 -0.450000
v -0.318764 0.837500 -0.172947
v -0.435418 0.537500 -0.419217
v -0.318764 0.837500 -0.122947
v -0.435418 0.537500 -0.369217
v -0.268764 0.837500 -0.172947
v -0.385418 0.537500 -0.419217
v -0.268764 0.837500 -0.147947
v -0.385418 0.537500 -0.394217
v -0.293764 0.837500 -0.122947
v -0.254183 0.875000 2.092163
v -0.304183 0.875000 2.142163
v -0.254183 0.875000 2.142163
v -0.304183 0.875000 2.092163
v -0.450000 0.500000 2.399999
v -0.400000 0.500000 2.449999
v -0.318764 0.837500 2.172946
v -0.435418 0.537500 2.419216
v -0.318764 0.837500 2.122946
v -0.435418 0.537500 2.369215
v -0.268764 0.837500 2.172946
v -0.385418 0.537500 2.419216
v -0.268764 0.837500 2.147946
v -0.385418 0.537500 2.394216
v -0.410418 0.537500 -0.369217
v -0.410418 0.537500 2.369215
v -0.293764 0.837500 2.122946
v -0.254183 0.875000 0.850000
v -0.318764 0.837500 0.850000
v -0.450000 0.500000 0.850000
v -0.304183 0.875000 0.850000
v -0.410418 0.537500 0.850000
v -0.293764 0.837500 0.850000
v -0.254183 0.875000 0.800000
v -0.318764 0.837500 0.800000
v -0.450000 0.500000 0.800000
v -0.304183 0.875000 0.800000
v -0.410418 0.537500 0.800000
v -0.293764 0.837500 0.800000
v -0.435418 0.537500 0.800000
v -0.435418 0.537500 0.850000
v -0.500000 -0.500000 2.500000
v -0.500000 0.500000 2.499999
v -0.450000 0.500000 2.449999
v -0.500000 -0.500000 -0.500000
v -0.500000 0.500000 -0.500000
v -0.450000 0.500000 -0.450000
v 0.254183 0.875000 -0.092163
v 0.304183 0.875000 -0.142164
v 0.254183 0.875000 -0.142164
v 0.304183 0.875000 -0.092163
v 0.450000 0.500000 -0.400000
v 0.400000 0.500000 -0.450000
v 0.318764 0.837500 -0.172947
v 0.435418 0.537500 -0.419217
v 0.318764 0.837500 -0.122947
v 0.435418 0.537500 -0.369217
v 0.268764 0.837500 -0.172947
v 0.000000 0.837500 -0.172947
v 0.000000 0.875000 -0.142164
v 0.000000 0.537500 -0.419217
v 0.000000 0.500000 -0.450000
v 0.385418 0.537500 -0.419217
v 0.268764 0.837500 -0.147947
v 0.000000 0.837500 -0.147947
v 0.000000 0.537500 -0.394217
v 0.385418 0.537500 -0.394217
v 0.293764 0.837500 -0.122947
v 0.000000 0.875000 2.092163
v 0.254183 0.875000 2.092163
v 0.304183 0.875000 2.142163
v 0.254183 0.875000 2.142163
v 0.304183 0.875000 2.092163
v 0.450000 0.500000 2.399999
v 0.400000 0.500000 2.449999
v 0.318764 0.837500 2.172946
v 0.435418 0.537500 2.419216
v 0.318764 0.837500 2.122946
v 0.435418 0.537500 2.369215
v 0.268764 0.837500 2.172946
v 0.000000 0.837500 2.172946
v 0.000000 0.875000 2.142163
v 0.000000 0.537500 2.419216
v 0.000000 0.500000 2.449999
v 0.385418 0.537500 2.419216
v 0.268764 0.837500 2.147946
v 0.000000 0.837500 2.147946
v 0.000000 0.537500 2.394216
v 0.385418 0.537500 2.394216
v 0.000000 0.875000 -0.092163
v 0.410418 0.537500 -0.369217
v 0.410418 0.537500 2.369215
v 0.293764 0.837500 2.122946
v 0.254183 0.875000 0.850000
v 0.318764 0.837500 0.850000
v 0.450000 0.500000 0.850000
v 0.304183 0.875000 0.850000
v 0.000000 0.875000 0.850000
v 0.410418 0.537500 0.850000
v 0.293764 0.837500 0.850000
v 0.254183 0.875000 0.800000
v 0.318764 0.837500 0.800000
v 0.450000 0.500000 0.800000
v 0.304183 0.875000 0.800000
v 0.000000 0.875000 0.800000
v 0.410418 0.537500 0.800000
v 0.293764 0.837500 0.800000
v 0.435418 0.537500 0.800000
v 0.435418 0.537500 0.850000
v 0.500000 -0.500000 2.500000
v 0.500000 0.500000 2.499999
v 0.000000 -0.500000 2.500000
v 0.000000 0.500000 2.500000
v 0.450000 0.500000 2.449999
v 0.500000 -0.500000 -0.500000
v 0.500000 0.500000 -0.500000
v 0.000000 -0.500000 -0.500000
v 0.000000 0.500000 -0.500000
v 0.450000 0.500000 -0.450000
vn 0.0000 0.6345 -0.7729
vn -0.9320 0.3624 0.0000
vn 0.0000 1.0000 0.0000
vn 0.9320 -0.3624 0.0000
vn 0.0000 -1.0000 0.0000
vn 0.0000 0.6345 0.7729
vn 0.0000 -0.6345 -0.7729
vn 0.0000 -0.6345 0.7729
vn 0.0000 0.0000 1.0000
vn 0.0000 0.0000 -1.0000
vn 0.9320 0.3624 0.0000
vn -0.9320 -0.3624 0.0000
vn -1.0000 0.0000 0.0000
vn 1.0000 -0.0000 0.0000
usemtl Secondary.001
s off
f 2//1 11//1 7//1
f 8//2 5//2 10//2
f 2//3 1//3 3//3
f 2//2 9//2 4//2
f 8//1 6//1 52//1
f 3//1 64//1 11//1
f 12//1 67//1 6//1
f 7//2 10//2 9//2
f 12//1 7//1 11//1
f 11//4 14//4 12//4
f 12//3 71//3 66//3
f 64//5 13//5 11//5
f 19//3 33//3 36//3
f 26//6 17//6 22//6
f 23//2 20//2 49//2
f 16//3 17//3 18//3
f 17//2 24//2 22//2
f 21//6 23//6 49//6
f 86//6 18//6 26//6
f 89//6 27//6 21//6
f 25//2 22//2 24//2
f 27//6 22//6 23//6
f 29//4 26//4 27//4
f 93//3 27//3 88//3
f 28//5 86//5 26//5
f 34//2 19//2 36//2
f 24//7 31//7 25//7
f 9//8 30//8 15//8
f 38//5 24//5 34//5
f 1//3 65//3 3//3
f 87//3 16//3 18//3
f 16//3 103//3 33//3
f 33//3 110//3 39//3
f 43//3 10//3 45//3
f 34//2 42//2 40//2
f 36//3 39//3 42//3
f 42//3 1//3 4//3
f 40//2 4//2 9//2
f 15//5 40//5 9//5
f 39//3 95//3 1//3
f 35//2 25//2 46//2
f 31//3 46//3 25//3
f 35//2 45//2 41//2
f 41//2 10//2 5//2
f 40//2 46//2 34//2
f 34//9 37//9 38//9
f 43//10 40//10 44//10
f 63//1 54//1 59//1
f 60//11 57//11 124//11
f 53//3 54//3 55//3
f 54//11 61//11 59//11
f 58//1 60//1 124//1
f 64//1 55//1 63//1
f 67//1 68//1 58//1
f 62//11 59//11 61//11
f 68//1 59//1 60//1
f 72//12 63//12 68//12
f 71//3 68//3 66//3
f 69//5 64//5 63//5
f 99//3 78//3 102//3
f 76//6 85//6 81//6
f 82//11 79//11 84//11
f 76//3 75//3 77//3
f 76//11 83//11 78//11
f 82//6 80//6 119//6
f 77//6 86//6 85//6
f 90//6 89//6 80//6
f 81//11 84//11 83//11
f 90//6 81//6 85//6
f 85//12 94//12 90//12
f 90//3 93//3 88//3
f 86//5 91//5 85//5
f 100//11 78//11 83//11
f 83//7 97//7 98//7
f 61//8 96//8 62//8
f 83//5 105//5 100//5
f 65//3 53//3 55//3
f 75//3 87//3 77//3
f 103//3 75//3 99//3
f 110//3 99//3 106//3
f 62//3 111//3 113//3
f 109//11 100//11 107//11
f 106//3 102//3 109//3
f 53//3 109//3 56//3
f 56//11 107//11 61//11
f 107//5 73//5 61//5
f 95//3 106//3 53//3
f 101//11 84//11 79//11
f 114//3 97//3 84//3
f 113//11 101//11 108//11
f 62//11 108//11 57//11
f 114//11 107//11 100//11
f 104//9 100//9 105//9
f 111//10 107//10 113//10
f 2//1 3//1 11//1
f 8//2 52//2 5//2
f 2//3 4//3 1//3
f 2//2 7//2 9//2
f 8//1 12//1 6//1
f 3//1 65//1 64//1
f 12//1 66//1 67//1
f 7//2 8//2 10//2
f 12//1 8//1 7//1
f 11//4 13//4 14//4
f 12//3 14//3 71//3
f 64//5 70//5 13//5
f 19//3 16//3 33//3
f 26//6 18//6 17//6
f 23//2 25//2 20//2
f 16//3 19//3 17//3
f 17//2 19//2 24//2
f 21//6 27//6 23//6
f 86//6 87//6 18//6
f 89//6 88//6 27//6
f 25//2 23//2 22//2
f 27//6 26//6 22//6
f 29//4 28//4 26//4
f 93//3 29//3 27//3
f 28//5 92//5 86//5
f 34//2 24//2 19//2
f 24//7 32//7 31//7
f 9//8 10//8 30//8
f 38//5 32//5 24//5
f 1//3 95//3 65//3
f 87//3 74//3 16//3
f 16//3 74//3 103//3
f 33//3 103//3 110//3
f 43//3 30//3 10//3
f 34//2 36//2 42//2
f 36//3 33//3 39//3
f 42//3 39//3 1//3
f 40//2 42//2 4//2
f 15//5 44//5 40//5
f 39//3 110//3 95//3
f 35//2 20//2 25//2
f 31//3 37//3 46//3
f 35//2 46//2 45//2
f 41//2 45//2 10//2
f 40//2 45//2 46//2
f 34//9 46//9 37//9
f 43//10 45//10 40//10
f 63//1 55//1 54//1
f 60//11 62//11 57//11
f 53//3 56//3 54//3
f 54//11 56//11 61//11
f 58//1 68//1 60//1
f 64//1 65//1 55//1
f 67//1 66//1 68//1
f 62//11 60//11 59//11
f 68//1 63//1 59//1
f 72//12 69//12 63//12
f 71//3 72//3 68//3
f 69//5 70//5 64//5
f 99//3 75//3 78//3
f 76//6 77//6 85//6
f 82//11 119//11 79//11
f 76//3 78//3 75//3
f 76//11 81//11 83//11
f 82//6 90//6 80//6
f 77//6 87//6 86//6
f 90//6 88//6 89//6
f 81//11 82//11 84//11
f 90//6 82//6 81//6
f 85//12 91//12 94//12
f 90//3 94//3 93//3
f 86//5 92//5 91//5
f 100//11 102//11 78//11
f 83//7 84//7 97//7
f 61//8 73//8 96//8
f 83//5 98//5 105//5
f 65//3 95//3 53//3
f 75//3 74//3 87//3
f 103//3 74//3 75//3
f 110//3 103//3 99//3
f 62//3 96//3 111//3
f 109//11 102//11 100//11
f 106//3 99//3 102//3
f 53//3 106//3 109//3
f 56//11 109//11 107//11
f 107//5 112//5 73//5
f 95//3 110//3 106//3
f 101//11 114//11 84//11
f 114//3 104//3 97//3
f 113//11 114//11 101//11
f 62//11 113//11 108//11
f 114//11 113//11 107//11
f 104//9 114//9 100//9
f 111//10 112//10 107//10
usemtl Glass.001
f 71//1 13//1 70//1
f 28//6 93//6 92//6
f 15//2 43//2 44//2
f 32//2 37//2 31//2
f 69//1 71//1 70//1
f 93//6 91//6 92//6
f 111//11 73//11 112//11
f 98//11 104//11 105//11
f 71//1 14//1 13//1
f 28//6 29//6 93//6
f 15//2 30//2 43//2
f 32//2 38//2 37//2
f 69//1 72//1 71//1
f 93//6 94//6 91//6
f 111//11 96//11 73//11
f 98//11 97//11 104//11
usemtl Primary.001
f 118//3 49//3 48//3
f 48//13 50//13 47//13
f 47//9 118//9 48//9
f 123//3 52//3 67//3
f 49//3 51//3 48//3
f 50//5 117//5 47//5
f 50//10 123//10 122//10
f 118//3 119//3 89//3
f 115//14 121//14 116//14
f 115//9 118//9 117//9
f 123//3 124//3 121//3
f 121//3 119//3 116//3
f 117//5 120//5 115//5
f 120//10 123//10 121//10
f 118//3 89//3 49//3
f 48//13 51//13 50//13
f 47//9 117//9 118//9
f 123//3 51//3 52//3
f 49//3 52//3 51//3
f 50//5 122//5 117//5
f 50//10 51//10 123//10
f 118//3 116//3 119//3
f 115//14 120//14 121//14
f 115//9 116//9 118//9
f 123//3 67//3 124//3
f 121//3 124//3 119//3
f 117//5 122//5 120//5
f 120//10 122//10 123//10
