# Blender v2.77 (sub 0) OBJ File: ''
# www.blender.org
mtllib Engine_Cursor.mtl
o Engine.000_Cube.023
v -0.500000 -0.500000 0.500000
v -0.500000 -0.500000 -0.500000
v 0.500000 -0.500000 -0.500000
v 0.500000 -0.500000 0.500000
v -0.500000 0.500000 0.500000
v -0.500000 0.500000 -0.500000
v 0.500000 0.500000 -0.500000
v 0.500000 0.500000 0.500000
v -0.400000 -0.400000 -0.500000
v 0.400000 -0.400000 -0.500000
v -0.400000 0.400000 -0.500000
v 0.400000 0.400000 -0.500000
v -0.320000 -0.320000 -1.000000
v 0.320000 -0.320000 -1.000000
v -0.320000 0.320000 -1.000000
v 0.320000 0.320000 -1.000000
v -0.256000 -0.256000 -1.000000
v 0.256000 -0.256000 -1.000000
v -0.256000 0.256000 -1.000000
v 0.256000 0.256000 -1.000000
vn 0.0000 -1.0000 0.0000
vn 0.0000 1.0000 -0.0000
vn -1.0000 -0.0000 0.0000
vn 0.0000 -0.0000 -1.0000
vn 1.0000 -0.0000 0.0000
vn -0.0000 0.0000 1.0000
vn 0.9874 -0.0000 -0.1580
vn 0.0000 -0.9874 -0.1580
vn 0.0000 0.9874 -0.1580
vn -0.9874 0.0000 -0.1580
usemtl Primary.002
s off
f 2//1 4//1 1//1
f 8//2 6//2 5//2
f 5//3 2//3 1//3
f 3//4 9//4 10//4
f 3//5 8//5 4//5
f 1//6 8//6 5//6
f 7//4 11//4 6//4
f 3//4 12//4 7//4
f 6//4 9//4 2//4
f 2//1 3//1 4//1
f 8//2 7//2 6//2
f 5//3 6//3 2//3
f 3//4 2//4 9//4
f 3//5 7//5 8//5
f 1//6 4//6 8//6
f 7//4 12//4 11//4
f 3//4 10//4 12//4
f 6//4 11//4 9//4
usemtl Engine1
f 10//7 16//7 12//7
f 10//8 13//8 14//8
f 11//9 16//9 15//9
f 11//10 13//10 9//10
f 13//4 18//4 14//4
f 16//4 19//4 15//4
f 15//4 17//4 13//4
f 14//4 20//4 16//4
f 10//7 14//7 16//7
f 10//8 9//8 13//8
f 11//9 12//9 16//9
f 11//10 15//10 13//10
f 13//4 17//4 18//4
f 16//4 20//4 19//4
f 15//4 19//4 17//4
f 14//4 18//4 20//4
usemtl Engine2
f 19//4 18//4 17//4
f 19//4 20//4 18//4
