# Blender v2.77 (sub 0) OBJ File: ''
# www.blender.org
mtllib Engine.mtl
o Engine.000_Cube.023
v -0.500000 -0.500000 -0.500000
v 0.500000 -0.500000 -0.500000
v -0.500000 0.500000 -0.500000
v 0.500000 0.500000 -0.500000
v -0.400000 -0.400000 -0.500000
v 0.400000 -0.400000 -0.500000
v -0.400000 0.400000 -0.500000
v 0.400000 0.400000 -0.500000
v -0.320000 -0.320000 -1.000000
v 0.320000 -0.320000 -1.000000
v -0.320000 0.320000 -1.000000
v 0.320000 0.320000 -1.000000
v -0.256000 -0.256000 -1.000000
v 0.256000 -0.256000 -1.000000
v -0.256000 0.256000 -1.000000
v 0.256000 0.256000 -1.000000
vn 0.0000 -0.0000 -1.0000
vn 0.9874 -0.0000 -0.1580
vn 0.0000 -0.9874 -0.1580
vn 0.0000 0.9874 -0.1580
vn -0.9874 0.0000 -0.1580
usemtl Primary.003
s off
f 2//1 5//1 6//1
f 4//1 7//1 3//1
f 2//1 8//1 4//1
f 3//1 5//1 1//1
f 2//1 1//1 5//1
f 4//1 8//1 7//1
f 2//1 6//1 8//1
f 3//1 7//1 5//1
usemtl Engine1
f 6//2 12//2 8//2
f 6//3 9//3 10//3
f 7//4 12//4 11//4
f 7//5 9//5 5//5
f 9//1 14//1 10//1
f 12//1 15//1 11//1
f 11//1 13//1 9//1
f 10//1 16//1 12//1
f 6//2 10//2 12//2
f 6//3 5//3 9//3
f 7//4 8//4 12//4
f 7//5 11//5 9//5
f 9//1 13//1 14//1
f 12//1 16//1 15//1
f 11//1 15//1 13//1
f 10//1 14//1 16//1
usemtl Engine2
f 15//1 14//1 13//1
f 15//1 16//1 14//1
