# Blender v2.77 (sub 0) OBJ File: ''
# www.blender.org
mtllib Nose_Hardpoint.mtl
o NoseGun_Cube.007
v -0.500000 -0.500000 -0.000000
v -0.250000 -0.250000 1.750000
v -0.250000 0.250000 1.750000
v -0.500000 0.500000 -0.000001
v -0.250000 -0.500000 -0.000000
v -0.250000 0.000000 2.000000
v -0.250000 0.000000 -0.000000
v 0.500000 -0.500000 -0.000000
v 0.000000 0.500000 0.000000
v 0.250000 -0.250000 1.750000
v 0.250000 0.250000 1.750000
v 0.000000 0.250000 1.750000
v 0.500000 0.500000 -0.000001
v 0.250000 -0.500000 -0.000000
v 0.000000 0.000000 2.000000
v 0.250000 0.000000 2.000000
v 0.000000 0.000000 -0.000000
v 0.250000 0.000000 -0.000000
vn -0.9733 0.1622 0.1622
vn 0.0000 -0.9899 0.1414
vn 0.0000 0.7071 0.7071
vn 0.0000 0.9899 0.1414
vn 1.0000 0.0000 0.0000
vn 0.0000 -1.0000 0.0000
vn -0.9733 -0.1622 0.1622
vn -0.9923 -0.0000 0.1240
vn 0.9733 0.1622 0.1622
vn -1.0000 0.0000 0.0000
vn 0.9733 -0.1622 0.1622
vn 0.9923 -0.0000 0.1240
usemtl Primary.001
s off
f 3//1 4//1 6//1
f 1//2 5//2 2//2
f 12//3 6//3 15//3
f 9//4 3//4 12//4
f 2//5 7//5 6//5
f 17//6 6//6 7//6
f 2//7 6//7 1//7
f 1//8 6//8 4//8
f 11//9 16//9 13//9
f 8//2 10//2 14//2
f 16//3 12//3 15//3
f 9//4 11//4 13//4
f 10//10 18//10 14//10
f 16//6 17//6 18//6
f 10//11 8//11 16//11
f 8//12 13//12 16//12
f 12//3 3//3 6//3
f 9//4 4//4 3//4
f 2//5 5//5 7//5
f 17//6 15//6 6//6
f 16//3 11//3 12//3
f 9//4 12//4 11//4
f 10//10 16//10 18//10
f 16//6 15//6 17//6
