# Blender v2.77 (sub 0) OBJ File: ''
# www.blender.org
mtllib Wing_Right.mtl
o Wing_Right_Cube.009
v -1.500000 -0.050000 0.500000
v -1.500000 0.050000 0.500000
v 0.500001 -0.050000 -0.500000
v 0.500000 0.050000 -0.500000
v 0.500000 0.050000 2.500000
v 0.500000 -0.050000 2.500000
vn -0.7071 0.0000 0.7071
vn 0.0000 -1.0000 -0.0000
vn 0.0000 1.0000 -0.0000
vn -0.4472 -0.0000 -0.8944
usemtl Secondary.001
s off
f 1//1 5//1 2//1
f 1//2 3//2 6//2
f 4//3 2//3 5//3
f 1//4 4//4 3//4
f 1//1 6//1 5//1
f 1//4 2//4 4//4
