# Blender v2.76 (sub 0) OBJ File: ''
# www.blender.org
mtllib Bridge.mtl
o Bridge_Out_Cube
v -4.500000 -1.500000 1.500000
v -4.500000 -1.500000 -1.500000
v -4.500001 1.500000 1.499999
v -4.499999 1.500000 -1.500001
v -1.500001 4.500000 1.499999
v -1.499999 4.500000 -1.500001
v -1.500000 -4.500000 1.500000
v -1.500000 -1.500000 -7.500000
v -1.499999 1.500000 -7.500000
v -1.500000 -4.500000 -1.500000
v -1.650000 -4.350000 1.500000
v -1.500000 -4.500000 1.500000
v -1.500000 1.500000 4.500000
v -1.500000 -1.500000 4.500000
v -4.400000 1.500000 1.600000
v -1.600000 -4.300000 1.600000
v -1.400000 4.299999 1.600000
v -1.400000 4.500000 1.500000
v -1.400000 1.500000 4.500000
v -1.400000 -4.500000 1.500000
v -1.400000 -1.500000 4.500000
v -1.600000 1.500000 4.400000
v -1.600000 -1.500000 4.400000
v -4.500000 -1.500000 1.499999
v -1.600000 4.300000 1.600000
v -1.400000 4.400000 1.600000
v -1.500000 4.400000 1.600000
v -1.500000 -4.400000 1.600000
v -1.400000 -4.400000 1.600000
v -1.650000 4.350000 1.499999
v -4.400000 -1.500000 1.600000
v -1.400000 1.500000 4.400002
v -1.400000 -1.500000 4.400002
v -1.400000 -4.299999 1.600000
v -1.500000 4.500000 1.500000
v -4.500000 1.500000 1.500000
v -4.300000 1.500000 1.600000
v -4.300000 -1.500000 1.600000
v -1.600000 1.500000 4.299999
v -1.600000 -1.500000 4.299999
v -1.600000 -4.200000 1.600000
v -1.600000 4.200000 1.600000
v 4.500000 -1.500000 1.500000
v 4.500000 -1.500000 -1.500000
v 4.500001 1.500000 1.499999
v 4.499999 1.500000 -1.500001
v 1.500001 4.500000 1.499999
v 1.499999 4.500000 -1.500001
v 1.500000 -4.500000 1.500000
v 0.000000 4.500000 -1.500001
v 0.000000 1.500000 -7.500000
v 1.500000 -1.500000 -7.500000
v 0.000000 -1.500000 -7.500000
v 1.499999 1.500000 -7.500000
v 1.500000 -4.500000 -1.500000
v 0.000000 -4.500000 -1.500000
v 1.650000 -4.350000 1.500000
v 1.500000 -4.500000 1.500000
v 1.500000 1.500000 4.500000
v 1.500000 -1.500000 4.500000
v 4.400000 1.500000 1.600000
v 1.600000 -4.300000 1.600000
v 0.000000 4.500000 1.500000
v 1.400000 4.299999 1.600000
v 0.000000 4.299999 1.600000
v 1.400000 4.500000 1.500000
v 1.400000 1.500000 4.500000
v 1.400000 -4.500000 1.500000
v 1.400000 -1.500000 4.500000
v 1.600000 1.500000 4.400000
v 1.600000 -1.500000 4.400000
v 4.500000 -1.500000 1.499999
v 1.600000 4.300000 1.600000
v 0.000000 4.400000 1.600000
v 1.400000 4.400000 1.600000
v 1.500000 4.400000 1.600000
v 1.500000 -4.400000 1.600000
v 0.000000 -4.400000 1.600000
v 1.400000 -4.400000 1.600000
v 1.650000 4.350000 1.499999
v 4.400000 -1.500000 1.600000
v 1.400000 1.500000 4.400002
v 0.000000 1.500000 4.400002
v 1.400000 -1.500000 4.400002
v 0.000000 -1.500000 4.400002
v 1.400000 -4.299999 1.600000
v 0.000000 -4.299999 1.600000
v 1.500000 4.500000 1.500000
v 4.500000 1.500000 1.500000
v 0.000000 -4.500000 1.500000
v 4.300000 1.500000 1.600000
v 4.300000 -1.500000 1.600000
v 1.600000 1.500000 4.299999
v 1.600000 -1.500000 4.299999
v 1.600000 -4.200000 1.600000
v 1.600000 4.200000 1.600000
vn -0.707100 0.707100 -0.000000
vn -0.894400 0.000000 -0.447200
vn -0.707100 -0.707100 -0.000000
vn -0.666700 0.666700 -0.333300
vn 0.000000 -0.894400 -0.447200
vn -0.666700 -0.666700 -0.333300
vn 0.000000 0.894400 -0.447200
vn 0.000000 0.000000 1.000000
vn 0.000000 0.707100 0.707100
vn -0.577300 -0.577400 0.577400
vn -0.707100 0.000000 0.707100
vn 0.000000 -0.707100 0.707100
vn -0.577300 0.577400 0.577400
vn -0.577400 -0.577400 0.577300
vn 1.000000 0.000000 0.000000
vn -0.577400 0.577400 0.577300
vn -1.000000 0.000000 0.000000
vn 0.707100 0.707100 -0.000000
vn 0.894400 0.000000 -0.447200
vn 0.707100 -0.707100 0.000000
vn 0.666700 0.666700 -0.333300
vn 0.666700 -0.666700 -0.333300
vn 0.577400 -0.577300 0.577300
vn 0.707100 0.000000 0.707100
vn 0.577300 -0.577400 0.577300
vn 0.577400 0.577400 0.577300
vn 0.577400 -0.577400 0.577300
vn 0.577400 0.577300 0.577400
vn -0.577400 0.577300 0.577400
vn 0.577300 -0.577400 0.577400
vn 0.577300 0.577400 0.577400
vn -0.577400 -0.577400 0.577400
vn -0.577400 0.577400 0.577400
vn 0.577400 -0.577400 0.577400
vn 0.577400 0.577400 0.577400
usemtl Primary
s off
f 4//1 3//1 5//1
f 4//2 9//2 8//2
f 2//3 10//3 7//3
f 9//4 4//4 6//4
f 53//5 56//5 10//5
f 2//6 8//6 10//6
f 9//7 6//7 50//7
f 87//8 34//8 29//8
f 18//9 26//9 74//9
f 13//8 14//8 21//8
f 16//10 28//10 14//10
f 23//11 14//11 13//11
f 29//12 21//12 14//12
f 28//10 16//10 11//10
f 13//13 27//13 25//13
f 20//12 29//12 28//12
f 27//9 13//9 19//9
f 26//8 17//8 65//8
f 11//14 16//14 31//14
f 33//15 32//15 19//15
f 17//15 26//15 19//15
f 29//15 34//15 33//15
f 30//16 25//16 27//16
f 90//12 78//12 29//12
f 15//16 25//16 30//16
f 15//11 36//11 24//11
f 35//9 27//9 26//9
f 31//8 38//8 37//8
f 22//17 39//17 40//17
f 41//8 38//8 31//8
f 23//17 40//17 41//17
f 15//8 37//8 42//8
f 22//17 25//17 42//17
f 46//18 48//18 47//18
f 52//19 54//19 46//19
f 49//20 55//20 44//20
f 54//21 48//21 46//21
f 55//5 56//5 53//5
f 44//22 55//22 52//22
f 50//7 48//7 54//7
f 79//8 86//8 87//8
f 74//9 75//9 66//9
f 69//8 60//8 59//8
f 71//23 60//23 77//23
f 59//24 60//24 71//24
f 60//12 69//12 79//12
f 57//25 62//25 77//25
f 59//26 70//26 73//26
f 77//12 79//12 68//12
f 67//9 59//9 76//9
f 65//8 64//8 75//8
f 57//27 72//27 81//27
f 67//17 82//17 84//17
f 67//17 75//17 64//17
f 79//17 69//17 84//17
f 80//28 88//28 76//28
f 79//12 78//12 90//12
f 80//26 73//26 61//26
f 72//24 89//24 61//24
f 75//9 76//9 88//9
f 91//8 92//8 81//8
f 94//15 93//15 70//15
f 62//8 81//8 92//8
f 95//15 94//15 71//15
f 96//8 91//8 61//8
f 93//15 96//15 73//15
f 6//1 4//1 5//1
f 2//2 4//2 8//2
f 1//3 2//3 7//3
f 8//5 53//5 10//5
f 51//7 9//7 50//7
f 78//8 87//8 29//8
f 63//9 18//9 74//9
f 19//8 13//8 21//8
f 23//14 16//14 14//14
f 22//11 23//11 13//11
f 28//12 29//12 14//12
f 12//10 28//10 11//10
f 22//16 13//16 25//16
f 12//12 20//12 28//12
f 26//9 27//9 19//9
f 74//8 26//8 65//8
f 24//14 11//14 31//14
f 21//15 33//15 19//15
f 32//15 17//15 19//15
f 21//15 29//15 33//15
f 35//29 30//29 27//29
f 20//12 90//12 29//12
f 36//13 15//13 30//13
f 31//11 15//11 24//11
f 18//9 35//9 26//9
f 15//8 31//8 37//8
f 23//17 22//17 40//17
f 16//8 41//8 31//8
f 16//17 23//17 41//17
f 25//8 15//8 42//8
f 39//17 22//17 42//17
f 45//18 46//18 47//18
f 44//19 52//19 46//19
f 43//20 49//20 44//20
f 52//5 55//5 53//5
f 51//7 50//7 54//7
f 78//8 79//8 87//8
f 63//9 74//9 66//9
f 67//8 69//8 59//8
f 62//30 71//30 77//30
f 70//24 59//24 71//24
f 77//12 60//12 79//12
f 58//30 57//30 77//30
f 76//31 59//31 73//31
f 58//12 77//12 68//12
f 75//9 67//9 76//9
f 74//8 65//8 75//8
f 62//27 57//27 81//27
f 69//17 67//17 84//17
f 82//17 67//17 64//17
f 86//17 79//17 84//17
f 73//26 80//26 76//26
f 68//12 79//12 90//12
f 89//31 80//31 61//31
f 81//24 72//24 61//24
f 66//9 75//9 88//9
f 61//8 91//8 81//8
f 71//15 94//15 70//15
f 95//8 62//8 92//8
f 62//15 95//15 71//15
f 73//8 96//8 61//8
f 70//15 93//15 73//15
usemtl Glass
f 33//12 34//12 87//12
f 32//8 33//8 85//8
f 17//9 32//9 83//9
f 38//11 40//11 39//11
f 40//32 38//32 41//32
f 37//33 39//33 42//33
f 87//12 86//12 84//12
f 85//8 84//8 82//8
f 83//9 82//9 64//9
f 93//24 94//24 92//24
f 94//34 95//34 92//34
f 91//35 96//35 93//35
f 85//12 33//12 87//12
f 83//8 32//8 85//8
f 65//9 17//9 83//9
f 37//11 38//11 39//11
f 85//12 87//12 84//12
f 83//8 85//8 82//8
f 65//9 83//9 64//9
f 91//24 93//24 92//24
l 35 36
l 63 35
l 24 12
l 12 90
l 88 89
l 63 88
l 72 58
l 58 90
