# Blender v2.77 (sub 0) OBJ File: 'Bridge5.blend'
# www.blender.org
mtllib Bridge_Interior.mtl
o Cube.001_Cube.002
v -0.675000 -0.500000 4.400000
v -1.400000 -0.500000 1.500000
v -0.675000 0.500000 4.400000
v -1.400000 -0.500000 -0.000000
v -1.400000 0.500000 -0.000000
v -1.300000 -0.500000 1.500000
v -1.300000 -0.500000 -0.000000
v -0.600000 -0.500000 4.300000
v -0.600000 -1.300000 4.300000
v -1.400000 0.500000 1.500000
v -1.300000 -1.300000 -0.000000
v -1.300000 -1.300000 1.500000
v -1.300000 0.500000 1.500000
v -1.300000 0.500000 -0.000000
v -0.600000 0.500000 4.300000
v -1.300000 -0.500000 -1.300000
v -1.300000 -1.300000 -1.300000
v -1.300000 0.500000 -1.300000
v -0.700000 1.300000 1.500000
v -0.700000 1.300000 -0.000000
v -1.300000 1.300000 -1.300000
v -0.600000 1.300000 3.700000
v -0.700000 1.300000 -1.300000
v 0.675000 -0.500000 4.400000
v 1.400000 -0.500000 1.500000
v 0.675000 0.500000 4.400000
v 0.000000 -1.300000 4.300000
v 0.000000 -0.500000 4.400000
v 0.000000 0.500000 4.400000
v 1.400000 -0.500000 -0.000000
v 1.400000 0.500000 -0.000000
v 1.300000 -0.500000 1.500000
v 1.300000 -0.500000 -0.000000
v 0.600000 -0.500000 4.300000
v 0.000000 -0.500000 4.300000
v 0.600000 -1.300000 4.300000
v 1.400000 0.500000 1.500000
v 1.300000 -1.300000 -0.000000
v 1.300000 -1.300000 1.500000
v 1.300000 0.500000 1.500000
v 1.300000 0.500000 -0.000000
v 0.600000 0.500000 4.300000
v 0.000000 0.500000 4.300000
v 0.000000 -1.300000 -0.000000
v 0.000000 -1.300000 1.500000
v 1.300000 -0.500000 -1.300000
v 1.300000 -1.300000 -1.300000
v 0.000000 -1.300000 -1.300000
v 1.300000 0.500000 -1.300000
v 0.700000 1.300000 1.500000
v 0.700000 1.300000 -0.000000
v 1.300000 1.300000 -1.300000
v 0.600000 1.300000 3.700000
v 0.700000 1.300000 -1.300000
v 0.000000 1.300000 -0.000000
v 0.000000 1.300000 -1.300000
v 0.000000 1.300000 1.500000
v 0.000000 1.300000 3.700000
vn 0.0000 1.0000 0.0000
vn 0.0000 -1.0000 0.0000
vn 0.9701 0.0000 -0.2425
vn 0.0000 0.0000 -1.0000
vn 1.0000 0.0000 0.0000
vn 0.0000 0.0000 1.0000
vn 0.8000 -0.6000 0.0000
vn 0.0000 -0.6000 -0.8000
vn 0.9545 -0.1790 -0.2386
vn 0.7995 -0.5996 -0.0363
vn 0.7505 -0.5629 -0.3464
vn -0.9701 0.0000 -0.2425
vn -1.0000 0.0000 0.0000
vn -0.8000 -0.6000 0.0000
vn -0.9545 -0.1790 -0.2386
vn -0.7995 -0.5996 -0.0363
vn -0.7505 -0.5629 -0.3464
usemtl Primary
s off
f 6//1 4//1 2//1
f 28//1 8//1 1//1
f 8//1 2//1 1//1
f 5//2 13//2 10//2
f 29//2 15//2 43//2
f 10//2 15//2 3//2
f 9//3 6//3 8//3
f 27//4 8//4 35//4
f 12//5 7//5 6//5
f 45//1 11//1 12//1
f 45//1 9//1 27//1
f 48//1 11//1 44//1
f 17//5 7//5 11//5
f 7//6 5//6 4//6
f 16//5 14//5 7//5
f 14//7 19//7 13//7
f 15//8 58//8 43//8
f 15//9 13//9 22//9
f 13//10 19//10 22//10
f 18//5 21//5 14//5
f 14//11 21//11 20//11
f 21//2 23//2 20//2
f 23//2 55//2 20//2
f 20//2 57//2 19//2
f 22//2 57//2 58//2
f 30//1 32//1 25//1
f 28//1 34//1 35//1
f 25//1 34//1 24//1
f 40//2 31//2 37//2
f 29//2 42//2 26//2
f 42//2 37//2 26//2
f 32//12 36//12 34//12
f 34//4 27//4 35//4
f 33//13 39//13 32//13
f 38//1 45//1 39//1
f 45//1 36//1 39//1
f 38//1 48//1 44//1
f 33//13 47//13 38//13
f 31//6 33//6 30//6
f 41//13 46//13 33//13
f 50//14 41//14 40//14
f 58//8 42//8 43//8
f 42//15 53//15 40//15
f 40//16 53//16 50//16
f 49//13 41//13 52//13
f 41//17 51//17 52//17
f 52//2 51//2 54//2
f 55//2 54//2 51//2
f 57//2 51//2 50//2
f 53//2 57//2 50//2
f 6//1 7//1 4//1
f 28//1 35//1 8//1
f 8//1 6//1 2//1
f 5//2 14//2 13//2
f 29//2 3//2 15//2
f 10//2 13//2 15//2
f 9//3 12//3 6//3
f 27//4 9//4 8//4
f 12//5 11//5 7//5
f 45//1 44//1 11//1
f 45//1 12//1 9//1
f 48//1 17//1 11//1
f 17//5 16//5 7//5
f 7//6 14//6 5//6
f 16//5 18//5 14//5
f 14//7 20//7 19//7
f 15//8 22//8 58//8
f 23//2 56//2 55//2
f 20//2 55//2 57//2
f 22//2 19//2 57//2
f 30//1 33//1 32//1
f 28//1 24//1 34//1
f 25//1 32//1 34//1
f 40//2 41//2 31//2
f 29//2 43//2 42//2
f 42//2 40//2 37//2
f 32//12 39//12 36//12
f 34//4 36//4 27//4
f 33//13 38//13 39//13
f 38//1 44//1 45//1
f 45//1 27//1 36//1
f 38//1 47//1 48//1
f 33//13 46//13 47//13
f 31//6 41//6 33//6
f 41//13 49//13 46//13
f 50//14 51//14 41//14
f 58//8 53//8 42//8
f 55//2 56//2 54//2
f 57//2 55//2 51//2
f 53//2 58//2 57//2
usemtl Glass
f 10//3 1//3 2//3
f 4//5 10//5 2//5
f 3//4 28//4 1//4
f 24//12 37//12 25//12
f 37//13 30//13 25//13
f 28//4 26//4 24//4
f 10//3 3//3 1//3
f 4//5 5//5 10//5
f 3//4 29//4 28//4
f 24//12 26//12 37//12
f 37//13 31//13 30//13
f 28//4 29//4 26//4
