# Blender v2.77 (sub 0) OBJ File: 'Bridge5.blend'
# www.blender.org
mtllib Bridge.mtl
o Cube
v -1.500000 -1.500000 4.500000
v -1.500000 -1.500000 -1.500000
v -0.750001 1.500000 3.749999
v -1.500000 -1.500000 1.500000
v -0.750001 1.500000 1.499999
v -0.750000 -0.500000 4.500000
v -1.500000 -0.500000 -1.500000
v -1.500000 -0.500000 1.500000
v -0.750000 0.500000 4.499999
v -1.499999 0.500000 -0.000000
v -1.500000 0.500000 1.499999
v -0.675000 -0.500000 4.400000
v -1.400000 -0.500000 1.500000
v -0.675000 0.500000 4.400000
v -1.400000 0.500000 1.500000
v -1.400000 -0.500000 -0.000000
v -1.400000 0.500000 -0.000000
v -1.499999 -0.500000 -0.000000
v -1.499999 0.500000 -1.500001
v -1.500000 -1.500000 0.000000
v -1.499999 1.500000 -1.500001
v 1.500000 -1.500000 4.500000
v 1.500000 -1.500000 -1.500000
v 0.750001 1.500000 3.749999
v 1.500000 -1.500000 1.500000
v 0.750001 1.500000 1.499999
v 0.750000 -0.500000 4.500000
v 1.500000 -0.500000 -1.500000
v 1.500000 -0.500000 1.500000
v 0.750000 0.500000 4.499999
v 1.499999 0.500000 -0.000000
v 1.500000 0.500000 1.499999
v 0.675000 -0.500000 4.400000
v 1.400000 -0.500000 1.500000
v 0.675000 0.500000 4.400000
v 1.400000 0.500000 1.500000
v 0.000000 -1.500000 4.500000
v 0.000000 1.500000 3.750000
v 0.000000 1.500000 -1.500000
v 0.000000 1.500000 1.500000
v 0.000000 -0.500000 4.500000
v 0.000000 -0.500000 4.400000
v 0.000000 0.500000 4.500000
v 0.000000 0.500000 4.400000
v 1.400000 -0.500000 -0.000000
v 1.400000 0.500000 -0.000000
v 1.499999 -0.500000 -0.000000
v 1.499999 0.500000 -1.500001
v 1.500000 -1.500000 0.000000
v 1.499999 1.500000 -1.500001
vn -1.0000 -0.0000 -0.0000
vn -0.7845 0.5883 0.1961
vn 0.0000 1.0000 0.0000
vn 0.0000 -1.0000 0.0000
vn 0.0000 0.6000 0.8000
vn 0.0000 0.0000 1.0000
vn -0.8000 0.6000 0.0000
vn -0.9545 0.1790 0.2386
vn 1.0000 -0.0000 -0.0000
vn 0.7845 0.5883 0.1961
vn 0.8000 0.6000 0.0000
vn 0.9545 0.1790 0.2386
vn -0.9701 0.0000 0.2425
vn 0.9701 0.0000 0.2425
usemtl Primary
s off
f 10//1 11//1 21//1
f 21//2 11//2 5//2
f 18//1 2//1 20//1
f 8//3 12//3 13//3
f 43//4 14//4 44//4
f 11//4 14//4 9//4
f 41//3 12//3 6//3
f 9//5 38//5 3//5
f 38//3 5//3 3//3
f 6//6 37//6 41//6
f 5//3 39//3 21//3
f 4//1 1//1 8//1
f 6//2 8//2 1//2
f 17//6 18//6 16//6
f 8//1 20//1 4//1
f 18//3 13//3 16//3
f 19//1 10//1 21//1
f 7//1 10//1 19//1
f 10//4 15//4 11//4
f 5//7 11//7 3//7
f 3//8 11//8 9//8
f 31//9 50//9 32//9
f 50//10 26//10 32//10
f 23//9 47//9 49//9
f 29//3 33//3 27//3
f 43//4 35//4 30//4
f 32//4 35//4 36//4
f 33//3 41//3 27//3
f 38//5 30//5 24//5
f 26//3 38//3 24//3
f 27//6 37//6 22//6
f 26//3 39//3 40//3
f 25//9 29//9 22//9
f 27//10 22//10 29//10
f 47//6 46//6 45//6
f 49//9 29//9 25//9
f 34//3 47//3 45//3
f 48//9 50//9 31//9
f 28//9 31//9 47//9
f 31//4 36//4 46//4
f 26//11 24//11 32//11
f 24//12 30//12 32//12
f 18//1 7//1 2//1
f 8//3 6//3 12//3
f 43//4 9//4 14//4
f 11//4 15//4 14//4
f 41//3 42//3 12//3
f 9//5 43//5 38//5
f 38//3 40//3 5//3
f 6//6 1//6 37//6
f 5//3 40//3 39//3
f 17//6 10//6 18//6
f 8//1 18//1 20//1
f 18//3 8//3 13//3
f 7//1 18//1 10//1
f 10//4 17//4 15//4
f 23//9 28//9 47//9
f 29//3 34//3 33//3
f 43//4 44//4 35//4
f 32//4 30//4 35//4
f 33//3 42//3 41//3
f 38//5 43//5 30//5
f 26//3 40//3 38//3
f 27//6 41//6 37//6
f 26//3 50//3 39//3
f 47//6 31//6 46//6
f 49//9 47//9 29//9
f 34//3 29//3 47//3
f 28//9 48//9 31//9
f 31//4 32//4 36//4
usemtl Glass
f 12//13 15//13 13//13
f 15//1 16//1 13//1
f 42//6 14//6 12//6
f 36//14 33//14 34//14
f 45//9 36//9 34//9
f 35//6 42//6 33//6
f 12//13 14//13 15//13
f 15//1 17//1 16//1
f 42//6 44//6 14//6
f 36//14 35//14 33//14
f 45//9 46//9 36//9
f 35//6 44//6 42//6
