# Blender v2.77 (sub 0) OBJ File: ''
# www.blender.org
mtllib Cargo_Hull.mtl
o Hull_Outside_Cube.001
v -2.500000 -2.500000 10.500000
v -2.500000 -2.500000 -7.500000
v -2.500000 4.500000 10.499999
v -2.500000 4.500000 -7.500001
v -4.500000 -1.500000 10.500000
v -4.500000 -1.500000 -7.500000
v -4.500001 1.500000 10.499999
v -4.499999 1.500000 -7.500001
v -1.500001 -1.500000 -7.500000
v -1.500000 4.500000 -7.500000
v -1.000000 -7.500000 10.500000
v -1.000000 -7.500000 -7.500000
v -1.500000 4.500000 10.500000
v -1.500000 1.500000 10.500000
v -1.500000 1.500000 -7.500000
v -1.500000 -1.500000 10.500000
v 2.500000 -2.500000 10.500000
v 2.500000 -2.500000 -7.500000
v 2.500000 4.500000 10.499999
v 2.500000 4.500000 -7.500001
v 4.500000 -1.500000 10.500000
v 4.500000 -1.500000 -7.500000
v 4.500001 1.500000 10.499999
v 4.499999 1.500000 -7.500001
v 1.500001 -1.500000 -7.500000
v 1.500000 4.500000 -7.500000
v 1.000000 -7.500000 10.500000
v 1.000000 -7.500000 -7.500000
v 0.000000 -7.500000 10.500000
v 0.000000 -7.500000 -7.500000
v 1.500000 4.500000 10.500000
v 0.000000 4.500000 10.500000
v 1.500000 1.500000 10.500000
v 0.000000 1.500000 10.500000
v 0.000000 4.500000 -7.500000
v 1.500000 1.500000 -7.500000
v 0.000000 1.500000 -7.500000
v 0.000000 -1.500000 10.500000
v 1.500000 -1.500000 10.500000
v 0.000000 -1.500000 -7.500000
vn 0.0000 0.0000 1.0000
vn -0.4472 -0.8944 0.0000
vn -0.8321 0.5547 0.0000
vn 0.0000 -0.0000 -1.0000
vn 0.0000 1.0000 0.0000
vn 0.0000 -1.0000 0.0000
vn -0.9578 -0.2873 0.0000
vn 0.4472 -0.8944 0.0000
vn 0.8321 0.5547 0.0000
vn 0.9578 -0.2873 0.0000
usemtl Material.001
s off
f 1//1 7//1 5//1
f 1//2 6//2 2//2
f 4//3 7//3 3//3
f 2//4 8//4 4//4
f 3//1 16//1 13//1
f 4//4 9//4 2//4
f 3//5 10//5 4//5
f 2//4 30//4 12//4
f 12//6 29//6 11//6
f 2//7 11//7 1//7
f 1//1 29//1 16//1
f 13//1 34//1 32//1
f 37//4 10//4 35//4
f 38//1 16//1 29//1
f 30//4 9//4 40//4
f 17//1 23//1 19//1
f 22//8 17//8 18//8
f 23//9 20//9 19//9
f 24//4 18//4 20//4
f 19//1 39//1 17//1
f 25//4 20//4 18//4
f 26//5 19//5 20//5
f 18//4 30//4 25//4
f 29//6 28//6 27//6
f 27//10 18//10 17//10
f 29//1 17//1 39//1
f 34//1 31//1 32//1
f 26//4 37//4 35//4
f 38//1 29//1 39//1
f 30//4 40//4 25//4
f 1//1 3//1 7//1
f 1//2 5//2 6//2
f 4//3 8//3 7//3
f 2//4 6//4 8//4
f 3//1 1//1 16//1
f 4//4 10//4 9//4
f 3//5 13//5 10//5
f 2//4 9//4 30//4
f 12//6 30//6 29//6
f 2//7 12//7 11//7
f 1//1 11//1 29//1
f 13//1 14//1 34//1
f 37//4 15//4 10//4
f 17//1 21//1 23//1
f 22//8 21//8 17//8
f 23//9 24//9 20//9
f 24//4 22//4 18//4
f 19//1 31//1 39//1
f 25//4 26//4 20//4
f 26//5 31//5 19//5
f 18//4 28//4 30//4
f 29//6 30//6 28//6
f 27//10 28//10 18//10
f 29//1 27//1 17//1
f 34//1 33//1 31//1
f 26//4 36//4 37//4
o Hull_Outside_Detail_Cube.002
v -2.500000 4.500000 10.500000
v -4.500000 1.500000 10.250000
v -2.500000 4.500000 10.250000
v -4.000000 4.500000 10.250000
v -4.000000 4.500000 10.500000
v -4.500000 1.500000 10.500000
v -4.000000 4.500000 7.250000
v -4.500000 1.500000 7.750000
v -2.500000 4.500000 7.250000
v -2.500000 4.500000 7.750000
v -4.500000 1.500000 7.250000
v -4.000000 4.500000 7.750000
v -2.500000 4.500000 4.750000
v -4.500000 1.500000 4.250000
v -4.500000 1.500000 4.750000
v -2.500000 4.500000 4.250000
v -4.000000 4.500000 4.250000
v -4.000000 4.500000 4.750000
v -2.500000 4.500000 1.750000
v -4.000000 4.500000 1.250000
v -4.500000 1.500000 1.250000
v -4.500000 1.500000 1.750000
v -2.500000 4.500000 1.250000
v -2.500000 4.500000 -1.750000
v -2.500000 4.500000 -1.250000
v -4.000000 4.500000 -1.750000
v -4.500000 1.500000 -1.250000
v -4.500000 1.500000 -1.750000
v -4.000000 4.500000 -1.250000
v -2.500000 4.500000 -4.250000
v -4.000000 4.500000 -4.750000
v -4.000000 4.500000 -4.250000
v -4.500000 1.500000 -4.250000
v -2.500000 4.500000 -4.750000
v -4.500000 1.500000 -4.750000
v -4.000000 4.500000 -7.250000
v -4.500000 1.500000 -7.250000
v -2.500000 4.500000 -7.500000
v -2.500000 4.500000 -7.250000
v -4.000000 4.500000 -7.500000
v -4.500000 1.500000 -7.500000
v -2.500000 -2.500000 10.500000
v -4.500000 -1.500000 10.250000
v -2.500000 -2.500000 10.250000
v -1.000000 -7.500000 10.250000
v -1.000000 -7.500000 10.500000
v -4.500000 -1.500000 10.500000
v -1.000000 -7.500000 7.250000
v -4.500000 -1.500000 7.750000
v -2.500000 -2.500000 7.250000
v -2.500000 -2.500000 7.750000
v -4.500000 -1.500000 7.250000
v -1.000000 -7.500000 7.750000
v -2.500000 -2.500000 4.750000
v -4.500000 -1.500000 4.250000
v -4.500000 -1.500000 4.750000
v -2.500000 -2.500000 4.250000
v -1.000000 -7.500000 4.250000
v -1.000000 -7.500000 4.750000
v -2.500000 -2.500000 1.750000
v -1.000000 -7.500000 1.250000
v -4.500000 -1.500000 1.250000
v -4.500000 -1.500000 1.750000
v -2.500000 -2.500000 1.250000
v -1.000000 -7.500000 1.750000
v -2.500000 -2.500000 -1.750000
v -2.500000 -2.500000 -1.250000
v -1.000000 -7.500000 -1.750000
v -4.500000 -1.500000 -1.250000
v -4.500000 -1.500000 -1.750000
v -1.000000 -7.500000 -1.250000
v -2.500000 -2.500000 -4.250000
v -1.000000 -7.500000 -4.750000
v -1.000000 -7.500000 -4.250000
v -4.500000 -1.500000 -4.250000
v -2.500000 -2.500000 -4.750000
v -4.500000 -1.500000 -4.750000
v -1.000000 -7.500000 -7.250000
v -4.500000 -1.500000 -7.250000
v -2.500000 -2.500000 -7.500000
v -2.500000 -2.500000 -7.250000
v -1.000000 -7.500000 -7.500000
v -4.500000 -1.500000 -7.500000
v -4.000000 4.500000 1.999999
v -4.000000 4.500000 1.749999
v 2.500000 4.500000 10.500000
v 4.500000 1.500000 10.250000
v 2.500000 4.500000 10.250000
v 4.000000 4.500000 10.250000
v 4.000000 4.500000 10.500000
v 4.500000 1.500000 10.500000
v 4.000000 4.500000 7.250000
v 4.500000 1.500000 7.750000
v 2.500000 4.500000 7.250000
v 2.500000 4.500000 7.750000
v 4.500000 1.500000 7.250000
v 4.000000 4.500000 7.750000
v 2.500000 4.500000 4.750000
v 4.500000 1.500000 4.250000
v 4.500000 1.500000 4.750000
v 2.500000 4.500000 4.250000
v 4.000000 4.500000 4.250000
v 4.000000 4.500000 4.750000
v 2.500000 4.500000 1.750000
v 4.000000 4.500000 1.250000
v 4.500000 1.500000 1.250000
v 4.500000 1.500000 1.750000
v 2.500000 4.500000 1.250000
v 2.500000 4.500000 -1.750000
v 2.500000 4.500000 -1.250000
v 4.000000 4.500000 -1.750000
v 4.500000 1.500000 -1.250000
v 4.500000 1.500000 -1.750000
v 4.000000 4.500000 -1.250000
v 2.500000 4.500000 -4.250000
v 4.000000 4.500000 -4.750000
v 4.000000 4.500000 -4.250000
v 4.500000 1.500000 -4.250000
v 2.500000 4.500000 -4.750000
v 4.500000 1.500000 -4.750000
v 4.000000 4.500000 -7.250000
v 4.500000 1.500000 -7.250000
v 2.500000 4.500000 -7.500000
v 2.500000 4.500000 -7.250000
v 4.000000 4.500000 -7.500000
v 4.500000 1.500000 -7.500000
v 2.500000 -2.500000 10.500000
v 4.500000 -1.500000 10.250000
v 2.500000 -2.500000 10.250000
v 1.000000 -7.500000 10.250000
v 1.000000 -7.500000 10.500000
v 4.500000 -1.500000 10.500000
v 1.000000 -7.500000 7.250000
v 4.500000 -1.500000 7.750000
v 2.500000 -2.500000 7.250000
v 2.500000 -2.500000 7.750000
v 4.500000 -1.500000 7.250000
v 1.000000 -7.500000 7.750000
v 2.500000 -2.500000 4.750000
v 4.500000 -1.500000 4.250000
v 4.500000 -1.500000 4.750000
v 2.500000 -2.500000 4.250000
v 1.000000 -7.500000 4.250000
v 1.000000 -7.500000 4.750000
v 2.500000 -2.500000 1.750000
v 1.000000 -7.500000 1.250000
v 4.500000 -1.500000 1.250000
v 4.500000 -1.500000 1.750000
v 2.500000 -2.500000 1.250000
v 1.000000 -7.500000 1.750000
v 2.500000 -2.500000 -1.750000
v 2.500000 -2.500000 -1.250000
v 1.000000 -7.500000 -1.750000
v 4.500000 -1.500000 -1.250000
v 4.500000 -1.500000 -1.750000
v 1.000000 -7.500000 -1.250000
v 2.500000 -2.500000 -4.250000
v 1.000000 -7.500000 -4.750000
v 1.000000 -7.500000 -4.250000
v 4.500000 -1.500000 -4.250000
v 2.500000 -2.500000 -4.750000
v 4.500000 -1.500000 -4.750000
v 1.000000 -7.500000 -7.250000
v 4.500000 -1.500000 -7.250000
v 2.500000 -2.500000 -7.500000
v 2.500000 -2.500000 -7.250000
v 1.000000 -7.500000 -7.500000
v 4.500000 -1.500000 -7.500000
v 4.000000 4.500000 1.999999
v 4.000000 4.500000 1.749999
vn 0.0000 0.0000 1.0000
vn -0.9864 0.1644 0.0000
vn 0.0000 0.0000 -1.0000
vn 0.0000 1.0000 0.0000
vn -0.8638 -0.5039 0.0000
vn 0.9864 0.1644 0.0000
vn 0.8638 -0.5039 0.0000
usemtl Material.002
s off
f 70//11 72//11 73//11
f 45//12 42//12 46//12
f 41//11 45//11 46//11
f 42//13 44//13 43//13
f 52//12 51//12 48//12
f 50//11 52//11 48//11
f 51//13 47//13 49//13
f 58//12 54//12 55//12
f 53//11 58//11 55//11
f 54//13 57//13 56//13
f 125//12 61//12 62//12
f 59//11 125//11 62//11
f 61//13 60//13 63//13
f 69//12 68//12 67//12
f 65//11 69//11 67//11
f 68//13 66//13 64//13
f 72//12 75//12 73//12
f 75//13 71//13 74//13
f 81//13 80//13 78//13
f 76//12 81//12 77//12
f 79//11 76//11 77//11
f 41//14 44//14 45//14
f 49//14 52//14 50//14
f 53//14 57//14 58//14
f 64//14 69//14 65//14
f 70//14 71//14 72//14
f 63//14 125//14 59//14
f 76//14 78//14 80//14
f 112//11 115//11 114//11
f 83//15 86//15 87//15
f 82//11 87//11 86//11
f 83//13 84//13 85//13
f 92//15 93//15 89//15
f 91//11 89//11 93//11
f 92//13 90//13 88//13
f 95//15 99//15 96//15
f 94//11 96//11 99//11
f 95//13 97//13 98//13
f 102//15 105//15 103//15
f 100//11 103//11 105//11
f 102//13 104//13 101//13
f 110//15 111//15 109//15
f 107//11 109//11 111//11
f 110//13 106//13 108//13
f 117//15 114//15 115//15
f 117//13 116//13 113//13
f 123//13 120//13 122//13
f 123//15 118//15 119//15
f 121//11 119//11 118//11
f 155//11 158//11 157//11
f 127//16 130//16 131//16
f 126//11 131//11 130//11
f 127//13 128//13 129//13
f 136//16 137//16 133//16
f 135//11 133//11 137//11
f 136//13 134//13 132//13
f 139//16 143//16 140//16
f 138//11 140//11 143//11
f 139//13 141//13 142//13
f 146//16 210//16 147//16
f 144//11 147//11 210//11
f 146//13 148//13 145//13
f 153//16 154//16 152//16
f 150//11 152//11 154//11
f 153//13 149//13 151//13
f 160//16 157//16 158//16
f 160//13 159//13 156//13
f 166//13 163//13 165//13
f 166//16 161//16 162//16
f 164//11 162//11 161//11
f 129//14 126//14 130//14
f 137//14 134//14 135//14
f 142//14 138//14 143//14
f 154//14 149//14 150//14
f 156//14 155//14 157//14
f 210//14 148//14 144//14
f 163//14 161//14 165//14
f 197//11 199//11 200//11
f 171//17 168//17 172//17
f 167//11 171//11 172//11
f 168//13 170//13 169//13
f 178//17 177//17 174//17
f 176//11 178//11 174//11
f 177//13 173//13 175//13
f 184//17 180//17 181//17
f 179//11 184//11 181//11
f 180//13 183//13 182//13
f 190//17 187//17 188//17
f 185//11 190//11 188//11
f 187//13 186//13 189//13
f 196//17 195//17 194//17
f 192//11 196//11 194//11
f 195//13 193//13 191//13
f 199//17 202//17 200//17
f 202//13 198//13 201//13
f 208//13 207//13 205//13
f 203//17 208//17 204//17
f 206//11 203//11 204//11
f 45//12 44//12 42//12
f 52//12 47//12 51//12
f 58//12 57//12 54//12
f 125//12 60//12 61//12
f 69//12 66//12 68//12
f 72//12 71//12 75//12
f 76//12 80//12 81//12
f 41//14 43//14 44//14
f 49//14 47//14 52//14
f 53//14 56//14 57//14
f 64//14 66//14 69//14
f 70//14 74//14 71//14
f 63//14 60//14 125//14
f 76//14 79//14 78//14
f 83//15 85//15 86//15
f 92//15 88//15 93//15
f 95//15 98//15 99//15
f 102//15 101//15 105//15
f 110//15 108//15 111//15
f 117//15 113//15 114//15
f 123//15 122//15 118//15
f 127//16 129//16 130//16
f 136//16 132//16 137//16
f 139//16 142//16 143//16
f 146//16 145//16 210//16
f 153//16 151//16 154//16
f 160//16 156//16 157//16
f 166//16 165//16 161//16
f 129//14 128//14 126//14
f 137//14 132//14 134//14
f 142//14 141//14 138//14
f 154//14 151//14 149//14
f 156//14 159//14 155//14
f 210//14 145//14 148//14
f 163//14 164//14 161//14
f 171//17 170//17 168//17
f 178//17 173//17 177//17
f 184//17 183//17 180//17
f 190//17 186//17 187//17
f 196//17 193//17 195//17
f 199//17 198//17 202//17
f 203//17 207//17 208//17
l 125 124
l 210 209
